<?xml version="1.0" encoding="UTF-8" standalone="no"?>
<!DOCTYPE svg PUBLIC "-//W3C//DTD SVG 1.1//EN"
 "http://www.w3.org/Graphics/SVG/1.1/DTD/svg11.dtd">
<!-- Generated by graphviz version 2.43.0 (0)
 -->
<!-- Title: TREE Pages: 1 -->
<svg width="2040pt" height="908pt"
 viewBox="0.00 0.00 2039.50 908.00" xmlns="http://www.w3.org/2000/svg" xmlns:xlink="http://www.w3.org/1999/xlink">
<g id="graph0" class="graph" transform="scale(1 1) rotate(0) translate(4 904)">
<title>TREE</title>
<polygon fill="#edddd4" stroke="transparent" points="-4,4 -4,-904 2035.5,-904 2035.5,4 -4,4"/>
<!-- node_1453395828 -->
<g id="node1" class="node">
<title>node_1453395828</title>
<path fill="#c45baa" stroke="black" d="M1570,-900C1570,-900 1418,-900 1418,-900 1412,-900 1406,-894 1406,-888 1406,-888 1406,-876 1406,-876 1406,-870 1412,-864 1418,-864 1418,-864 1570,-864 1570,-864 1576,-864 1582,-870 1582,-876 1582,-876 1582,-888 1582,-888 1582,-894 1576,-900 1570,-900"/>
<text text-anchor="middle" x="1494" y="-878.3" font-family="Times,serif" font-size="14.00" fill="#edddd4">сомнительно_но_окей</text>
</g>
<!-- node_1481705953 -->
<g id="node2" class="node">
<title>node_1481705953</title>
<path fill="#c45baa" stroke="black" d="M1487,-828C1487,-828 1335,-828 1335,-828 1329,-828 1323,-822 1323,-816 1323,-816 1323,-804 1323,-804 1323,-798 1329,-792 1335,-792 1335,-792 1487,-792 1487,-792 1493,-792 1499,-798 1499,-804 1499,-804 1499,-816 1499,-816 1499,-822 1493,-828 1487,-828"/>
<text text-anchor="middle" x="1411" y="-806.3" font-family="Times,serif" font-size="14.00" fill="#edddd4">сомнительно_но_окей</text>
</g>
<!-- node_1453395828&#45;&gt;node_1481705953 -->
<g id="edge69" class="edge">
<title>node_1453395828&#45;&gt;node_1481705953</title>
<path fill="none" stroke="black" d="M1473.48,-863.7C1463.13,-854.97 1450.41,-844.24 1439.16,-834.75"/>
<polygon fill="black" stroke="black" points="1441.18,-831.88 1431.28,-828.1 1436.67,-837.23 1441.18,-831.88"/>
</g>
<!-- node_1599988122 -->
<g id="node44" class="node">
<title>node_1599988122</title>
<path fill="#7d387d" stroke="black" d="M1639.5,-828C1639.5,-828 1542.5,-828 1542.5,-828 1536.5,-828 1530.5,-822 1530.5,-816 1530.5,-816 1530.5,-804 1530.5,-804 1530.5,-798 1536.5,-792 1542.5,-792 1542.5,-792 1639.5,-792 1639.5,-792 1645.5,-792 1651.5,-798 1651.5,-804 1651.5,-804 1651.5,-816 1651.5,-816 1651.5,-822 1645.5,-828 1639.5,-828"/>
<text text-anchor="middle" x="1591" y="-806.3" font-family="Times,serif" font-size="14.00" fill="#edddd4">россии_нужен</text>
</g>
<!-- node_1453395828&#45;&gt;node_1599988122 -->
<g id="edge70" class="edge">
<title>node_1453395828&#45;&gt;node_1599988122</title>
<path fill="none" stroke="black" d="M1517.98,-863.7C1530.31,-854.8 1545.52,-843.82 1558.85,-834.2"/>
<polygon fill="black" stroke="black" points="1561.24,-836.79 1567.3,-828.1 1557.14,-831.12 1561.24,-836.79"/>
</g>
<!-- node_1659699550 -->
<g id="node3" class="node">
<title>node_1659699550</title>
<path fill="#7d387d" stroke="black" d="M1408.5,-756C1408.5,-756 1311.5,-756 1311.5,-756 1305.5,-756 1299.5,-750 1299.5,-744 1299.5,-744 1299.5,-732 1299.5,-732 1299.5,-726 1305.5,-720 1311.5,-720 1311.5,-720 1408.5,-720 1408.5,-720 1414.5,-720 1420.5,-726 1420.5,-732 1420.5,-732 1420.5,-744 1420.5,-744 1420.5,-750 1414.5,-756 1408.5,-756"/>
<text text-anchor="middle" x="1360" y="-734.3" font-family="Times,serif" font-size="14.00" fill="#edddd4">россии_нужен</text>
</g>
<!-- node_1481705953&#45;&gt;node_1659699550 -->
<g id="edge41" class="edge">
<title>node_1481705953&#45;&gt;node_1659699550</title>
<path fill="none" stroke="black" d="M1398.39,-791.7C1392.4,-783.47 1385.12,-773.48 1378.52,-764.42"/>
<polygon fill="black" stroke="black" points="1381.18,-762.13 1372.46,-756.1 1375.52,-766.25 1381.18,-762.13"/>
</g>
<!-- node_2034208757 -->
<g id="node4" class="node">
<title>node_2034208757</title>
<path fill="#7d387d" stroke="black" d="M1169,-684C1169,-684 1047,-684 1047,-684 1041,-684 1035,-678 1035,-672 1035,-672 1035,-660 1035,-660 1035,-654 1041,-648 1047,-648 1047,-648 1169,-648 1169,-648 1175,-648 1181,-654 1181,-660 1181,-660 1181,-672 1181,-672 1181,-678 1175,-684 1169,-684"/>
<text text-anchor="middle" x="1108" y="-662.3" font-family="Times,serif" font-size="14.00" fill="#edddd4">олег_не_торопись</text>
</g>
<!-- node_1659699550&#45;&gt;node_2034208757 -->
<g id="edge39" class="edge">
<title>node_1659699550&#45;&gt;node_2034208757</title>
<path fill="none" stroke="black" d="M1299.32,-720.14C1263.22,-710.12 1217.24,-697.34 1179.4,-686.83"/>
<polygon fill="black" stroke="black" points="1180.04,-683.38 1169.47,-684.07 1178.16,-690.12 1180.04,-683.38"/>
</g>
<!-- node_819638157 -->
<g id="node40" class="node">
<title>node_819638157</title>
<path fill="#c45baa" stroke="black" d="M1436,-684C1436,-684 1284,-684 1284,-684 1278,-684 1272,-678 1272,-672 1272,-672 1272,-660 1272,-660 1272,-654 1278,-648 1284,-648 1284,-648 1436,-648 1436,-648 1442,-648 1448,-654 1448,-660 1448,-660 1448,-672 1448,-672 1448,-678 1442,-684 1436,-684"/>
<text text-anchor="middle" x="1360" y="-662.3" font-family="Times,serif" font-size="14.00" fill="#edddd4">сомнительно_но_окей</text>
</g>
<!-- node_1659699550&#45;&gt;node_819638157 -->
<g id="edge40" class="edge">
<title>node_1659699550&#45;&gt;node_819638157</title>
<path fill="none" stroke="black" d="M1360,-719.7C1360,-711.98 1360,-702.71 1360,-694.11"/>
<polygon fill="black" stroke="black" points="1363.5,-694.1 1360,-684.1 1356.5,-694.1 1363.5,-694.1"/>
</g>
<!-- node_1194403146 -->
<g id="node5" class="node">
<title>node_1194403146</title>
<path fill="#c45baa" stroke="black" d="M1109,-612C1109,-612 957,-612 957,-612 951,-612 945,-606 945,-600 945,-600 945,-588 945,-588 945,-582 951,-576 957,-576 957,-576 1109,-576 1109,-576 1115,-576 1121,-582 1121,-588 1121,-588 1121,-600 1121,-600 1121,-606 1115,-612 1109,-612"/>
<text text-anchor="middle" x="1033" y="-590.3" font-family="Times,serif" font-size="14.00" fill="#edddd4">сомнительно_но_окей</text>
</g>
<!-- node_2034208757&#45;&gt;node_1194403146 -->
<g id="edge35" class="edge">
<title>node_2034208757&#45;&gt;node_1194403146</title>
<path fill="none" stroke="black" d="M1089.46,-647.7C1080.2,-639.05 1068.84,-628.45 1058.74,-619.03"/>
<polygon fill="black" stroke="black" points="1061.02,-616.37 1051.33,-612.1 1056.25,-621.49 1061.02,-616.37"/>
</g>
<!-- node_1676129337 -->
<g id="node6" class="node">
<title>node_1676129337</title>
<path fill="#c45baa" stroke="black" d="M919,-540C919,-540 767,-540 767,-540 761,-540 755,-534 755,-528 755,-528 755,-516 755,-516 755,-510 761,-504 767,-504 767,-504 919,-504 919,-504 925,-504 931,-510 931,-516 931,-516 931,-528 931,-528 931,-534 925,-540 919,-540"/>
<text text-anchor="middle" x="843" y="-518.3" font-family="Times,serif" font-size="14.00" fill="#edddd4">сомнительно_но_окей</text>
</g>
<!-- node_1194403146&#45;&gt;node_1676129337 -->
<g id="edge33" class="edge">
<title>node_1194403146&#45;&gt;node_1676129337</title>
<path fill="none" stroke="black" d="M986.52,-575.88C960.08,-566.14 926.8,-553.87 898.94,-543.61"/>
<polygon fill="black" stroke="black" points="899.92,-540.24 889.33,-540.07 897.5,-546.81 899.92,-540.24"/>
</g>
<!-- node_1374742688 -->
<g id="node38" class="node">
<title>node_1374742688</title>
<path fill="#000000" stroke="black" d="M1143,-540C1143,-540 961,-540 961,-540 955,-540 949,-534 949,-528 949,-528 949,-516 949,-516 949,-510 955,-504 961,-504 961,-504 1143,-504 1143,-504 1149,-504 1155,-510 1155,-516 1155,-516 1155,-528 1155,-528 1155,-534 1149,-540 1143,-540"/>
<text text-anchor="middle" x="1052" y="-518.3" font-family="Times,serif" font-size="14.00" fill="#edddd4">никто_никогда_не_вернет</text>
</g>
<!-- node_1194403146&#45;&gt;node_1374742688 -->
<g id="edge34" class="edge">
<title>node_1194403146&#45;&gt;node_1374742688</title>
<path fill="none" stroke="black" d="M1037.7,-575.7C1039.81,-567.9 1042.36,-558.51 1044.72,-549.83"/>
<polygon fill="black" stroke="black" points="1048.12,-550.67 1047.36,-540.1 1041.36,-548.84 1048.12,-550.67"/>
</g>
<!-- node_2094313786 -->
<g id="node7" class="node">
<title>node_2094313786</title>
<path fill="#c45baa" stroke="black" d="M709,-468C709,-468 557,-468 557,-468 551,-468 545,-462 545,-456 545,-456 545,-444 545,-444 545,-438 551,-432 557,-432 557,-432 709,-432 709,-432 715,-432 721,-438 721,-444 721,-444 721,-456 721,-456 721,-462 715,-468 709,-468"/>
<text text-anchor="middle" x="633" y="-446.3" font-family="Times,serif" font-size="14.00" fill="#edddd4">сомнительно_но_окей</text>
</g>
<!-- node_1676129337&#45;&gt;node_2094313786 -->
<g id="edge30" class="edge">
<title>node_1676129337&#45;&gt;node_2094313786</title>
<path fill="none" stroke="black" d="M791.9,-503.97C762.43,-494.14 725.19,-481.73 694.17,-471.39"/>
<polygon fill="black" stroke="black" points="694.93,-467.95 684.33,-468.11 692.71,-474.59 694.93,-467.95"/>
</g>
<!-- node_1481648655 -->
<g id="node30" class="node">
<title>node_1481648655</title>
<path fill="#ff8966" stroke="black" d="M974.5,-468C974.5,-468 751.5,-468 751.5,-468 745.5,-468 739.5,-462 739.5,-456 739.5,-456 739.5,-444 739.5,-444 739.5,-438 745.5,-432 751.5,-432 751.5,-432 974.5,-432 974.5,-432 980.5,-432 986.5,-438 986.5,-444 986.5,-444 986.5,-456 986.5,-456 986.5,-462 980.5,-468 974.5,-468"/>
<text text-anchor="middle" x="863" y="-446.3" font-family="Times,serif" font-size="14.00" fill="#edddd4">але_вам_удобно_разговаривать</text>
</g>
<!-- node_1676129337&#45;&gt;node_1481648655 -->
<g id="edge31" class="edge">
<title>node_1676129337&#45;&gt;node_1481648655</title>
<path fill="none" stroke="black" d="M847.94,-503.7C850.17,-495.9 852.85,-486.51 855.33,-477.83"/>
<polygon fill="black" stroke="black" points="858.73,-478.68 858.11,-468.1 852,-476.76 858.73,-478.68"/>
</g>
<!-- node_217147993 -->
<g id="node8" class="node">
<title>node_217147993</title>
<path fill="#c45baa" stroke="black" d="M490,-396C490,-396 338,-396 338,-396 332,-396 326,-390 326,-384 326,-384 326,-372 326,-372 326,-366 332,-360 338,-360 338,-360 490,-360 490,-360 496,-360 502,-366 502,-372 502,-372 502,-384 502,-384 502,-390 496,-396 490,-396"/>
<text text-anchor="middle" x="414" y="-374.3" font-family="Times,serif" font-size="14.00" fill="#edddd4">сомнительно_но_окей</text>
</g>
<!-- node_2094313786&#45;&gt;node_217147993 -->
<g id="edge21" class="edge">
<title>node_2094313786&#45;&gt;node_217147993</title>
<path fill="none" stroke="black" d="M579.71,-431.97C548.84,-422.1 509.8,-409.62 477.37,-399.25"/>
<polygon fill="black" stroke="black" points="478.12,-395.82 467.53,-396.11 475.99,-402.49 478.12,-395.82"/>
</g>
<!-- node_880840418 -->
<g id="node24" class="node">
<title>node_880840418</title>
<path fill="#ff8966" stroke="black" d="M755.5,-396C755.5,-396 532.5,-396 532.5,-396 526.5,-396 520.5,-390 520.5,-384 520.5,-384 520.5,-372 520.5,-372 520.5,-366 526.5,-360 532.5,-360 532.5,-360 755.5,-360 755.5,-360 761.5,-360 767.5,-366 767.5,-372 767.5,-372 767.5,-384 767.5,-384 767.5,-390 761.5,-396 755.5,-396"/>
<text text-anchor="middle" x="644" y="-374.3" font-family="Times,serif" font-size="14.00" fill="#edddd4">але_вам_удобно_разговаривать</text>
</g>
<!-- node_2094313786&#45;&gt;node_880840418 -->
<g id="edge22" class="edge">
<title>node_2094313786&#45;&gt;node_880840418</title>
<path fill="none" stroke="black" d="M635.72,-431.7C636.93,-423.98 638.39,-414.71 639.74,-406.11"/>
<polygon fill="black" stroke="black" points="643.22,-406.53 641.31,-396.1 636.3,-405.44 643.22,-406.53"/>
</g>
<!-- node_1476283382 -->
<g id="node9" class="node">
<title>node_1476283382</title>
<path fill="#c45baa" stroke="black" d="M322,-324C322,-324 170,-324 170,-324 164,-324 158,-318 158,-312 158,-312 158,-300 158,-300 158,-294 164,-288 170,-288 170,-288 322,-288 322,-288 328,-288 334,-294 334,-300 334,-300 334,-312 334,-312 334,-318 328,-324 322,-324"/>
<text text-anchor="middle" x="246" y="-302.3" font-family="Times,serif" font-size="14.00" fill="#edddd4">сомнительно_но_окей</text>
</g>
<!-- node_217147993&#45;&gt;node_1476283382 -->
<g id="edge14" class="edge">
<title>node_217147993&#45;&gt;node_1476283382</title>
<path fill="none" stroke="black" d="M372.9,-359.88C349.83,-350.26 320.86,-338.19 296.43,-328.01"/>
<polygon fill="black" stroke="black" points="297.54,-324.68 286.96,-324.07 294.85,-331.15 297.54,-324.68"/>
</g>
<!-- node_1250020631 -->
<g id="node17" class="node">
<title>node_1250020631</title>
<path fill="#000000" stroke="black" d="M467.5,-324C467.5,-324 364.5,-324 364.5,-324 358.5,-324 352.5,-318 352.5,-312 352.5,-312 352.5,-300 352.5,-300 352.5,-294 358.5,-288 364.5,-288 364.5,-288 467.5,-288 467.5,-288 473.5,-288 479.5,-294 479.5,-300 479.5,-300 479.5,-312 479.5,-312 479.5,-318 473.5,-324 467.5,-324"/>
<text text-anchor="middle" x="416" y="-302.3" font-family="Times,serif" font-size="14.00" fill="#edddd4">какая_разница</text>
</g>
<!-- node_217147993&#45;&gt;node_1250020631 -->
<g id="edge15" class="edge">
<title>node_217147993&#45;&gt;node_1250020631</title>
<path fill="none" stroke="black" d="M414.49,-359.7C414.71,-351.98 414.98,-342.71 415.23,-334.11"/>
<polygon fill="black" stroke="black" points="418.72,-334.2 415.51,-324.1 411.73,-334 418.72,-334.2"/>
</g>
<!-- node_2035176958 -->
<g id="node10" class="node">
<title>node_2035176958</title>
<path fill="#000000" stroke="black" d="M297.5,-252C297.5,-252 194.5,-252 194.5,-252 188.5,-252 182.5,-246 182.5,-240 182.5,-240 182.5,-228 182.5,-228 182.5,-222 188.5,-216 194.5,-216 194.5,-216 297.5,-216 297.5,-216 303.5,-216 309.5,-222 309.5,-228 309.5,-228 309.5,-240 309.5,-240 309.5,-246 303.5,-252 297.5,-252"/>
<text text-anchor="middle" x="246" y="-230.3" font-family="Times,serif" font-size="14.00" fill="#edddd4">какая_разница</text>
</g>
<!-- node_1476283382&#45;&gt;node_2035176958 -->
<g id="edge7" class="edge">
<title>node_1476283382&#45;&gt;node_2035176958</title>
<path fill="none" stroke="black" d="M246,-287.7C246,-279.98 246,-270.71 246,-262.11"/>
<polygon fill="black" stroke="black" points="249.5,-262.1 246,-252.1 242.5,-262.1 249.5,-262.1"/>
</g>
<!-- node_1954996517 -->
<g id="node11" class="node">
<title>node_1954996517</title>
<path fill="#000000" stroke="black" d="M173.5,-180C173.5,-180 70.5,-180 70.5,-180 64.5,-180 58.5,-174 58.5,-168 58.5,-168 58.5,-156 58.5,-156 58.5,-150 64.5,-144 70.5,-144 70.5,-144 173.5,-144 173.5,-144 179.5,-144 185.5,-150 185.5,-156 185.5,-156 185.5,-168 185.5,-168 185.5,-174 179.5,-180 173.5,-180"/>
<text text-anchor="middle" x="122" y="-158.3" font-family="Times,serif" font-size="14.00" fill="#edddd4">какая_разница</text>
</g>
<!-- node_2035176958&#45;&gt;node_1954996517 -->
<g id="edge5" class="edge">
<title>node_2035176958&#45;&gt;node_1954996517</title>
<path fill="none" stroke="black" d="M215.67,-215.88C199.3,-206.64 178.92,-195.13 161.35,-185.21"/>
<polygon fill="black" stroke="black" points="162.88,-182.06 152.45,-180.19 159.44,-188.15 162.88,-182.06"/>
</g>
<!-- node_1716608489 -->
<g id="node14" class="node">
<title>node_1716608489</title>
<path fill="#c44536" stroke="black" d="M266,-180C266,-180 236,-180 236,-180 230,-180 224,-174 224,-168 224,-168 224,-156 224,-156 224,-150 230,-144 236,-144 236,-144 266,-144 266,-144 272,-144 278,-150 278,-156 278,-156 278,-168 278,-168 278,-174 272,-180 266,-180"/>
<text text-anchor="middle" x="251" y="-158.3" font-family="Times,serif" font-size="14.00" fill="#edddd4">==</text>
</g>
<!-- node_2035176958&#45;&gt;node_1716608489 -->
<g id="edge6" class="edge">
<title>node_2035176958&#45;&gt;node_1716608489</title>
<path fill="none" stroke="black" d="M247.24,-215.7C247.79,-207.98 248.45,-198.71 249.06,-190.11"/>
<polygon fill="black" stroke="black" points="252.56,-190.33 249.78,-180.1 245.57,-189.83 252.56,-190.33"/>
</g>
<!-- node_1743090917 -->
<g id="node12" class="node">
<title>node_1743090917</title>
<path fill="#000000" stroke="black" d="M194,-108C194,-108 12,-108 12,-108 6,-108 0,-102 0,-96 0,-96 0,-84 0,-84 0,-78 6,-72 12,-72 12,-72 194,-72 194,-72 200,-72 206,-78 206,-84 206,-84 206,-96 206,-96 206,-102 200,-108 194,-108"/>
<text text-anchor="middle" x="103" y="-86.3" font-family="Times,serif" font-size="14.00" fill="#edddd4">никто_никогда_не_вернет</text>
</g>
<!-- node_1954996517&#45;&gt;node_1743090917 -->
<g id="edge2" class="edge">
<title>node_1954996517&#45;&gt;node_1743090917</title>
<path fill="none" stroke="black" d="M117.3,-143.7C115.19,-135.9 112.64,-126.51 110.28,-117.83"/>
<polygon fill="black" stroke="black" points="113.64,-116.84 107.64,-108.1 106.88,-118.67 113.64,-116.84"/>
</g>
<!-- node_337552124 -->
<g id="node13" class="node">
<title>node_337552124</title>
<path fill="#197278" stroke="black" d="M118,-36C118,-36 88,-36 88,-36 82,-36 76,-30 76,-24 76,-24 76,-12 76,-12 76,-6 82,0 88,0 88,0 118,0 118,0 124,0 130,-6 130,-12 130,-12 130,-24 130,-24 130,-30 124,-36 118,-36"/>
<text text-anchor="middle" x="103" y="-14.3" font-family="Times,serif" font-size="14.00" fill="#edddd4">1</text>
</g>
<!-- node_1743090917&#45;&gt;node_337552124 -->
<g id="edge1" class="edge">
<title>node_1743090917&#45;&gt;node_337552124</title>
<path fill="none" stroke="black" d="M103,-71.7C103,-63.98 103,-54.71 103,-46.11"/>
<polygon fill="black" stroke="black" points="106.5,-46.1 103,-36.1 99.5,-46.1 106.5,-46.1"/>
</g>
<!-- node_743359473 -->
<g id="node15" class="node">
<title>node_743359473</title>
<path fill="#283d3b" stroke="black" d="M266,-108C266,-108 236,-108 236,-108 230,-108 224,-102 224,-96 224,-96 224,-84 224,-84 224,-78 230,-72 236,-72 236,-72 266,-72 266,-72 272,-72 278,-78 278,-84 278,-84 278,-96 278,-96 278,-102 272,-108 266,-108"/>
<text text-anchor="middle" x="251" y="-86.3" font-family="Times,serif" font-size="14.00" fill="#edddd4">n</text>
</g>
<!-- node_1716608489&#45;&gt;node_743359473 -->
<g id="edge3" class="edge">
<title>node_1716608489&#45;&gt;node_743359473</title>
<path fill="none" stroke="black" d="M251,-143.7C251,-135.98 251,-126.71 251,-118.11"/>
<polygon fill="black" stroke="black" points="254.5,-118.1 251,-108.1 247.5,-118.1 254.5,-118.1"/>
</g>
<!-- node_1019070191 -->
<g id="node16" class="node">
<title>node_1019070191</title>
<path fill="#197278" stroke="black" d="M338,-108C338,-108 308,-108 308,-108 302,-108 296,-102 296,-96 296,-96 296,-84 296,-84 296,-78 302,-72 308,-72 308,-72 338,-72 338,-72 344,-72 350,-78 350,-84 350,-84 350,-96 350,-96 350,-102 344,-108 338,-108"/>
<text text-anchor="middle" x="323" y="-86.3" font-family="Times,serif" font-size="14.00" fill="#edddd4">0</text>
</g>
<!-- node_1716608489&#45;&gt;node_1019070191 -->
<g id="edge4" class="edge">
<title>node_1716608489&#45;&gt;node_1019070191</title>
<path fill="none" stroke="black" d="M268.8,-143.7C277.6,-135.14 288.38,-124.66 298,-115.3"/>
<polygon fill="black" stroke="black" points="300.68,-117.58 305.41,-108.1 295.8,-112.57 300.68,-117.58"/>
</g>
<!-- node_296508163 -->
<g id="node18" class="node">
<title>node_296508163</title>
<path fill="#000000" stroke="black" d="M464.5,-252C464.5,-252 361.5,-252 361.5,-252 355.5,-252 349.5,-246 349.5,-240 349.5,-240 349.5,-228 349.5,-228 349.5,-222 355.5,-216 361.5,-216 361.5,-216 464.5,-216 464.5,-216 470.5,-216 476.5,-222 476.5,-228 476.5,-228 476.5,-240 476.5,-240 476.5,-246 470.5,-252 464.5,-252"/>
<text text-anchor="middle" x="413" y="-230.3" font-family="Times,serif" font-size="14.00" fill="#edddd4">какая_разница</text>
</g>
<!-- node_1250020631&#45;&gt;node_296508163 -->
<g id="edge12" class="edge">
<title>node_1250020631&#45;&gt;node_296508163</title>
<path fill="none" stroke="black" d="M415.26,-287.7C414.93,-279.98 414.53,-270.71 414.16,-262.11"/>
<polygon fill="black" stroke="black" points="417.66,-261.95 413.73,-252.1 410.66,-262.25 417.66,-261.95"/>
</g>
<!-- node_1816042272 -->
<g id="node21" class="node">
<title>node_1816042272</title>
<path fill="#c44536" stroke="black" d="M573,-252C573,-252 543,-252 543,-252 537,-252 531,-246 531,-240 531,-240 531,-228 531,-228 531,-222 537,-216 543,-216 543,-216 573,-216 573,-216 579,-216 585,-222 585,-228 585,-228 585,-240 585,-240 585,-246 579,-252 573,-252"/>
<text text-anchor="middle" x="558" y="-230.3" font-family="Times,serif" font-size="14.00" fill="#edddd4">==</text>
</g>
<!-- node_1250020631&#45;&gt;node_1816042272 -->
<g id="edge13" class="edge">
<title>node_1250020631&#45;&gt;node_1816042272</title>
<path fill="none" stroke="black" d="M450.74,-287.88C472.19,-277.3 499.69,-263.74 521.47,-253.01"/>
<polygon fill="black" stroke="black" points="523.31,-256 530.73,-248.44 520.21,-249.73 523.31,-256"/>
</g>
<!-- node_1361967306 -->
<g id="node19" class="node">
<title>node_1361967306</title>
<path fill="#000000" stroke="black" d="M501,-180C501,-180 319,-180 319,-180 313,-180 307,-174 307,-168 307,-168 307,-156 307,-156 307,-150 313,-144 319,-144 319,-144 501,-144 501,-144 507,-144 513,-150 513,-156 513,-156 513,-168 513,-168 513,-174 507,-180 501,-180"/>
<text text-anchor="middle" x="410" y="-158.3" font-family="Times,serif" font-size="14.00" fill="#edddd4">никто_никогда_не_вернет</text>
</g>
<!-- node_296508163&#45;&gt;node_1361967306 -->
<g id="edge9" class="edge">
<title>node_296508163&#45;&gt;node_1361967306</title>
<path fill="none" stroke="black" d="M412.26,-215.7C411.93,-207.98 411.53,-198.71 411.16,-190.11"/>
<polygon fill="black" stroke="black" points="414.66,-189.95 410.73,-180.1 407.66,-190.25 414.66,-189.95"/>
</g>
<!-- node_1530997703 -->
<g id="node20" class="node">
<title>node_1530997703</title>
<path fill="#197278" stroke="black" d="M425,-108C425,-108 395,-108 395,-108 389,-108 383,-102 383,-96 383,-96 383,-84 383,-84 383,-78 389,-72 395,-72 395,-72 425,-72 425,-72 431,-72 437,-78 437,-84 437,-84 437,-96 437,-96 437,-102 431,-108 425,-108"/>
<text text-anchor="middle" x="410" y="-86.3" font-family="Times,serif" font-size="14.00" fill="#edddd4">1</text>
</g>
<!-- node_1361967306&#45;&gt;node_1530997703 -->
<g id="edge8" class="edge">
<title>node_1361967306&#45;&gt;node_1530997703</title>
<path fill="none" stroke="black" d="M410,-143.7C410,-135.98 410,-126.71 410,-118.11"/>
<polygon fill="black" stroke="black" points="413.5,-118.1 410,-108.1 406.5,-118.1 413.5,-118.1"/>
</g>
<!-- node_798760070 -->
<g id="node22" class="node">
<title>node_798760070</title>
<path fill="#283d3b" stroke="black" d="M573,-180C573,-180 543,-180 543,-180 537,-180 531,-174 531,-168 531,-168 531,-156 531,-156 531,-150 537,-144 543,-144 543,-144 573,-144 573,-144 579,-144 585,-150 585,-156 585,-156 585,-168 585,-168 585,-174 579,-180 573,-180"/>
<text text-anchor="middle" x="558" y="-158.3" font-family="Times,serif" font-size="14.00" fill="#edddd4">n</text>
</g>
<!-- node_1816042272&#45;&gt;node_798760070 -->
<g id="edge10" class="edge">
<title>node_1816042272&#45;&gt;node_798760070</title>
<path fill="none" stroke="black" d="M558,-215.7C558,-207.98 558,-198.71 558,-190.11"/>
<polygon fill="black" stroke="black" points="561.5,-190.1 558,-180.1 554.5,-190.1 561.5,-190.1"/>
</g>
<!-- node_913132052 -->
<g id="node23" class="node">
<title>node_913132052</title>
<path fill="#197278" stroke="black" d="M645,-180C645,-180 615,-180 615,-180 609,-180 603,-174 603,-168 603,-168 603,-156 603,-156 603,-150 609,-144 615,-144 615,-144 645,-144 645,-144 651,-144 657,-150 657,-156 657,-156 657,-168 657,-168 657,-174 651,-180 645,-180"/>
<text text-anchor="middle" x="630" y="-158.3" font-family="Times,serif" font-size="14.00" fill="#edddd4">1</text>
</g>
<!-- node_1816042272&#45;&gt;node_913132052 -->
<g id="edge11" class="edge">
<title>node_1816042272&#45;&gt;node_913132052</title>
<path fill="none" stroke="black" d="M575.8,-215.7C584.6,-207.14 595.38,-196.66 605,-187.3"/>
<polygon fill="black" stroke="black" points="607.68,-189.58 612.41,-180.1 602.8,-184.57 607.68,-189.58"/>
</g>
<!-- node_778225184 -->
<g id="node25" class="node">
<title>node_778225184</title>
<path fill="#c44536" stroke="black" d="M698.5,-324C698.5,-324 589.5,-324 589.5,-324 583.5,-324 577.5,-318 577.5,-312 577.5,-312 577.5,-300 577.5,-300 577.5,-294 583.5,-288 589.5,-288 589.5,-288 698.5,-288 698.5,-288 704.5,-288 710.5,-294 710.5,-300 710.5,-300 710.5,-312 710.5,-312 710.5,-318 704.5,-324 698.5,-324"/>
<text text-anchor="middle" x="644" y="-302.3" font-family="Times,serif" font-size="14.00" fill="#edddd4">я_так_чувствую</text>
</g>
<!-- node_880840418&#45;&gt;node_778225184 -->
<g id="edge20" class="edge">
<title>node_880840418&#45;&gt;node_778225184</title>
<path fill="none" stroke="black" d="M644,-359.7C644,-351.98 644,-342.71 644,-334.11"/>
<polygon fill="black" stroke="black" points="647.5,-334.1 644,-324.1 640.5,-334.1 647.5,-334.1"/>
</g>
<!-- node_1995361750 -->
<g id="node26" class="node">
<title>node_1995361750</title>
<path fill="#283d3b" stroke="black" d="M656,-252C656,-252 626,-252 626,-252 620,-252 614,-246 614,-240 614,-240 614,-228 614,-228 614,-222 620,-216 626,-216 626,-216 656,-216 656,-216 662,-216 668,-222 668,-228 668,-228 668,-240 668,-240 668,-246 662,-252 656,-252"/>
<text text-anchor="middle" x="641" y="-230.3" font-family="Times,serif" font-size="14.00" fill="#edddd4">n__</text>
</g>
<!-- node_778225184&#45;&gt;node_1995361750 -->
<g id="edge18" class="edge">
<title>node_778225184&#45;&gt;node_1995361750</title>
<path fill="none" stroke="black" d="M643.26,-287.7C642.93,-279.98 642.53,-270.71 642.16,-262.11"/>
<polygon fill="black" stroke="black" points="645.66,-261.95 641.73,-252.1 638.66,-262.25 645.66,-261.95"/>
</g>
<!-- node_179790993 -->
<g id="node27" class="node">
<title>node_179790993</title>
<path fill="#c44536" stroke="black" d="M728,-252C728,-252 698,-252 698,-252 692,-252 686,-246 686,-240 686,-240 686,-228 686,-228 686,-222 692,-216 698,-216 698,-216 728,-216 728,-216 734,-216 740,-222 740,-228 740,-228 740,-240 740,-240 740,-246 734,-252 728,-252"/>
<text text-anchor="middle" x="713" y="-230.3" font-family="Times,serif" font-size="14.00" fill="#edddd4">&#45;</text>
</g>
<!-- node_778225184&#45;&gt;node_179790993 -->
<g id="edge19" class="edge">
<title>node_778225184&#45;&gt;node_179790993</title>
<path fill="none" stroke="black" d="M661.06,-287.7C669.5,-279.14 679.82,-268.66 689.04,-259.3"/>
<polygon fill="black" stroke="black" points="691.61,-261.68 696.14,-252.1 686.63,-256.77 691.61,-261.68"/>
</g>
<!-- node_1693494934 -->
<g id="node28" class="node">
<title>node_1693494934</title>
<path fill="#283d3b" stroke="black" d="M727,-180C727,-180 697,-180 697,-180 691,-180 685,-174 685,-168 685,-168 685,-156 685,-156 685,-150 691,-144 697,-144 697,-144 727,-144 727,-144 733,-144 739,-150 739,-156 739,-156 739,-168 739,-168 739,-174 733,-180 727,-180"/>
<text text-anchor="middle" x="712" y="-158.3" font-family="Times,serif" font-size="14.00" fill="#edddd4">n</text>
</g>
<!-- node_179790993&#45;&gt;node_1693494934 -->
<g id="edge16" class="edge">
<title>node_179790993&#45;&gt;node_1693494934</title>
<path fill="none" stroke="black" d="M712.75,-215.7C712.64,-207.98 712.51,-198.71 712.39,-190.11"/>
<polygon fill="black" stroke="black" points="715.89,-190.05 712.24,-180.1 708.89,-190.15 715.89,-190.05"/>
</g>
<!-- node_87791612 -->
<g id="node29" class="node">
<title>node_87791612</title>
<path fill="#197278" stroke="black" d="M799,-180C799,-180 769,-180 769,-180 763,-180 757,-174 757,-168 757,-168 757,-156 757,-156 757,-150 763,-144 769,-144 769,-144 799,-144 799,-144 805,-144 811,-150 811,-156 811,-156 811,-168 811,-168 811,-174 805,-180 799,-180"/>
<text text-anchor="middle" x="784" y="-158.3" font-family="Times,serif" font-size="14.00" fill="#edddd4">1</text>
</g>
<!-- node_179790993&#45;&gt;node_87791612 -->
<g id="edge17" class="edge">
<title>node_179790993&#45;&gt;node_87791612</title>
<path fill="none" stroke="black" d="M730.55,-215.7C739.23,-207.14 749.86,-196.66 759.35,-187.3"/>
<polygon fill="black" stroke="black" points="761.99,-189.62 766.65,-180.1 757.07,-184.63 761.99,-189.62"/>
</g>
<!-- node_302493184 -->
<g id="node31" class="node">
<title>node_302493184</title>
<path fill="#c44536" stroke="black" d="M917.5,-396C917.5,-396 808.5,-396 808.5,-396 802.5,-396 796.5,-390 796.5,-384 796.5,-384 796.5,-372 796.5,-372 796.5,-366 802.5,-360 808.5,-360 808.5,-360 917.5,-360 917.5,-360 923.5,-360 929.5,-366 929.5,-372 929.5,-372 929.5,-384 929.5,-384 929.5,-390 923.5,-396 917.5,-396"/>
<text text-anchor="middle" x="863" y="-374.3" font-family="Times,serif" font-size="14.00" fill="#edddd4">я_так_чувствую</text>
</g>
<!-- node_1481648655&#45;&gt;node_302493184 -->
<g id="edge29" class="edge">
<title>node_1481648655&#45;&gt;node_302493184</title>
<path fill="none" stroke="black" d="M863,-431.7C863,-423.98 863,-414.71 863,-406.11"/>
<polygon fill="black" stroke="black" points="866.5,-406.1 863,-396.1 859.5,-406.1 866.5,-406.1"/>
</g>
<!-- node_1541187441 -->
<g id="node32" class="node">
<title>node_1541187441</title>
<path fill="#283d3b" stroke="black" d="M835,-324C835,-324 803,-324 803,-324 797,-324 791,-318 791,-312 791,-312 791,-300 791,-300 791,-294 797,-288 803,-288 803,-288 835,-288 835,-288 841,-288 847,-294 847,-300 847,-300 847,-312 847,-312 847,-318 841,-324 835,-324"/>
<text text-anchor="middle" x="819" y="-302.3" font-family="Times,serif" font-size="14.00" fill="#edddd4">ответ</text>
</g>
<!-- node_302493184&#45;&gt;node_1541187441 -->
<g id="edge27" class="edge">
<title>node_302493184&#45;&gt;node_1541187441</title>
<path fill="none" stroke="black" d="M852.12,-359.7C847.01,-351.56 840.8,-341.69 835.16,-332.7"/>
<polygon fill="black" stroke="black" points="838.04,-330.71 829.75,-324.1 832.11,-334.43 838.04,-330.71"/>
</g>
<!-- node_815870960 -->
<g id="node33" class="node">
<title>node_815870960</title>
<path fill="#c44536" stroke="black" d="M907,-324C907,-324 877,-324 877,-324 871,-324 865,-318 865,-312 865,-312 865,-300 865,-300 865,-294 871,-288 877,-288 877,-288 907,-288 907,-288 913,-288 919,-294 919,-300 919,-300 919,-312 919,-312 919,-318 913,-324 907,-324"/>
<text text-anchor="middle" x="892" y="-302.3" font-family="Times,serif" font-size="14.00" fill="#edddd4">*</text>
</g>
<!-- node_302493184&#45;&gt;node_815870960 -->
<g id="edge28" class="edge">
<title>node_302493184&#45;&gt;node_815870960</title>
<path fill="none" stroke="black" d="M870.17,-359.7C873.43,-351.81 877.37,-342.3 881,-333.55"/>
<polygon fill="black" stroke="black" points="884.32,-334.68 884.91,-324.1 877.85,-332 884.32,-334.68"/>
</g>
<!-- node_1962192734 -->
<g id="node34" class="node">
<title>node_1962192734</title>
<path fill="#283d3b" stroke="black" d="M866,-252C866,-252 836,-252 836,-252 830,-252 824,-246 824,-240 824,-240 824,-228 824,-228 824,-222 830,-216 836,-216 836,-216 866,-216 866,-216 872,-216 878,-222 878,-228 878,-228 878,-240 878,-240 878,-246 872,-252 866,-252"/>
<text text-anchor="middle" x="851" y="-230.3" font-family="Times,serif" font-size="14.00" fill="#edddd4">n</text>
</g>
<!-- node_815870960&#45;&gt;node_1962192734 -->
<g id="edge25" class="edge">
<title>node_815870960&#45;&gt;node_1962192734</title>
<path fill="none" stroke="black" d="M881.87,-287.7C877.15,-279.64 871.44,-269.89 866.22,-260.98"/>
<polygon fill="black" stroke="black" points="869.09,-258.96 861.02,-252.1 863.05,-262.5 869.09,-258.96"/>
</g>
<!-- node_1427912550 -->
<g id="node35" class="node">
<title>node_1427912550</title>
<path fill="#283d3b" stroke="black" d="M997.5,-252C997.5,-252 908.5,-252 908.5,-252 902.5,-252 896.5,-246 896.5,-240 896.5,-240 896.5,-228 896.5,-228 896.5,-222 902.5,-216 908.5,-216 908.5,-216 997.5,-216 997.5,-216 1003.5,-216 1009.5,-222 1009.5,-228 1009.5,-228 1009.5,-240 1009.5,-240 1009.5,-246 1003.5,-252 997.5,-252"/>
<text text-anchor="middle" x="953" y="-230.3" font-family="Times,serif" font-size="14.00" fill="#edddd4">ФАКТОРИАЛ</text>
</g>
<!-- node_815870960&#45;&gt;node_1427912550 -->
<g id="edge26" class="edge">
<title>node_815870960&#45;&gt;node_1427912550</title>
<path fill="none" stroke="black" d="M907.08,-287.7C914.39,-279.3 923.31,-269.07 931.34,-259.86"/>
<polygon fill="black" stroke="black" points="934.16,-261.94 938.09,-252.1 928.89,-257.34 934.16,-261.94"/>
</g>
<!-- node_2010274107 -->
<g id="node36" class="node">
<title>node_2010274107</title>
<path fill="#c45baa" stroke="black" d="M1029,-180C1029,-180 877,-180 877,-180 871,-180 865,-174 865,-168 865,-168 865,-156 865,-156 865,-150 871,-144 877,-144 877,-144 1029,-144 1029,-144 1035,-144 1041,-150 1041,-156 1041,-156 1041,-168 1041,-168 1041,-174 1035,-180 1029,-180"/>
<text text-anchor="middle" x="953" y="-158.3" font-family="Times,serif" font-size="14.00" fill="#edddd4">сомнительно_но_окей</text>
</g>
<!-- node_1427912550&#45;&gt;node_2010274107 -->
<g id="edge24" class="edge">
<title>node_1427912550&#45;&gt;node_2010274107</title>
<path fill="none" stroke="black" d="M953,-215.7C953,-207.98 953,-198.71 953,-190.11"/>
<polygon fill="black" stroke="black" points="956.5,-190.1 953,-180.1 949.5,-190.1 956.5,-190.1"/>
</g>
<!-- node_1490838423 -->
<g id="node37" class="node">
<title>node_1490838423</title>
<path fill="#283d3b" stroke="black" d="M968,-108C968,-108 938,-108 938,-108 932,-108 926,-102 926,-96 926,-96 926,-84 926,-84 926,-78 932,-72 938,-72 938,-72 968,-72 968,-72 974,-72 980,-78 980,-84 980,-84 980,-96 980,-96 980,-102 974,-108 968,-108"/>
<text text-anchor="middle" x="953" y="-86.3" font-family="Times,serif" font-size="14.00" fill="#edddd4">n__</text>
</g>
<!-- node_2010274107&#45;&gt;node_1490838423 -->
<g id="edge23" class="edge">
<title>node_2010274107&#45;&gt;node_1490838423</title>
<path fill="none" stroke="black" d="M953,-143.7C953,-135.98 953,-126.71 953,-118.11"/>
<polygon fill="black" stroke="black" points="956.5,-118.1 953,-108.1 949.5,-118.1 956.5,-118.1"/>
</g>
<!-- node_79938452 -->
<g id="node39" class="node">
<title>node_79938452</title>
<path fill="#283d3b" stroke="black" d="M1068,-468C1068,-468 1036,-468 1036,-468 1030,-468 1024,-462 1024,-456 1024,-456 1024,-444 1024,-444 1024,-438 1030,-432 1036,-432 1036,-432 1068,-432 1068,-432 1074,-432 1080,-438 1080,-444 1080,-444 1080,-456 1080,-456 1080,-462 1074,-468 1068,-468"/>
<text text-anchor="middle" x="1052" y="-446.3" font-family="Times,serif" font-size="14.00" fill="#edddd4">ответ</text>
</g>
<!-- node_1374742688&#45;&gt;node_79938452 -->
<g id="edge32" class="edge">
<title>node_1374742688&#45;&gt;node_79938452</title>
<path fill="none" stroke="black" d="M1052,-503.7C1052,-495.98 1052,-486.71 1052,-478.11"/>
<polygon fill="black" stroke="black" points="1055.5,-478.1 1052,-468.1 1048.5,-478.1 1055.5,-478.1"/>
</g>
<!-- node_1262435998 -->
<g id="node41" class="node">
<title>node_1262435998</title>
<path fill="#c45baa" stroke="black" d="M1303,-612C1303,-612 1151,-612 1151,-612 1145,-612 1139,-606 1139,-600 1139,-600 1139,-588 1139,-588 1139,-582 1145,-576 1151,-576 1151,-576 1303,-576 1303,-576 1309,-576 1315,-582 1315,-588 1315,-588 1315,-600 1315,-600 1315,-606 1309,-612 1303,-612"/>
<text text-anchor="middle" x="1227" y="-590.3" font-family="Times,serif" font-size="14.00" fill="#edddd4">сомнительно_но_окей</text>
</g>
<!-- node_819638157&#45;&gt;node_1262435998 -->
<g id="edge37" class="edge">
<title>node_819638157&#45;&gt;node_1262435998</title>
<path fill="none" stroke="black" d="M1327.46,-647.88C1309.75,-638.55 1287.65,-626.92 1268.68,-616.94"/>
<polygon fill="black" stroke="black" points="1270.14,-613.75 1259.66,-612.19 1266.88,-619.94 1270.14,-613.75"/>
</g>
<!-- node_415245426 -->
<g id="node43" class="node">
<title>node_415245426</title>
<path fill="#283d3b" stroke="black" d="M1434.5,-612C1434.5,-612 1345.5,-612 1345.5,-612 1339.5,-612 1333.5,-606 1333.5,-600 1333.5,-600 1333.5,-588 1333.5,-588 1333.5,-582 1339.5,-576 1345.5,-576 1345.5,-576 1434.5,-576 1434.5,-576 1440.5,-576 1446.5,-582 1446.5,-588 1446.5,-588 1446.5,-600 1446.5,-600 1446.5,-606 1440.5,-612 1434.5,-612"/>
<text text-anchor="middle" x="1390" y="-590.3" font-family="Times,serif" font-size="14.00" fill="#edddd4">ФАКТОРИАЛ</text>
</g>
<!-- node_819638157&#45;&gt;node_415245426 -->
<g id="edge38" class="edge">
<title>node_819638157&#45;&gt;node_415245426</title>
<path fill="none" stroke="black" d="M1367.42,-647.7C1370.79,-639.81 1374.87,-630.3 1378.62,-621.55"/>
<polygon fill="black" stroke="black" points="1381.95,-622.67 1382.67,-612.1 1375.51,-619.92 1381.95,-622.67"/>
</g>
<!-- node_2034934969 -->
<g id="node42" class="node">
<title>node_2034934969</title>
<path fill="#283d3b" stroke="black" d="M1238,-540C1238,-540 1208,-540 1208,-540 1202,-540 1196,-534 1196,-528 1196,-528 1196,-516 1196,-516 1196,-510 1202,-504 1208,-504 1208,-504 1238,-504 1238,-504 1244,-504 1250,-510 1250,-516 1250,-516 1250,-528 1250,-528 1250,-534 1244,-540 1238,-540"/>
<text text-anchor="middle" x="1223" y="-518.3" font-family="Times,serif" font-size="14.00" fill="#edddd4">n</text>
</g>
<!-- node_1262435998&#45;&gt;node_2034934969 -->
<g id="edge36" class="edge">
<title>node_1262435998&#45;&gt;node_2034934969</title>
<path fill="none" stroke="black" d="M1226.01,-575.7C1225.57,-567.98 1225.04,-558.71 1224.55,-550.11"/>
<polygon fill="black" stroke="black" points="1228.04,-549.89 1223.98,-540.1 1221.05,-550.29 1228.04,-549.89"/>
</g>
<!-- node_1604059811 -->
<g id="node45" class="node">
<title>node_1604059811</title>
<path fill="#7d387d" stroke="black" d="M1652,-756C1652,-756 1530,-756 1530,-756 1524,-756 1518,-750 1518,-744 1518,-744 1518,-732 1518,-732 1518,-726 1524,-720 1530,-720 1530,-720 1652,-720 1652,-720 1658,-720 1664,-726 1664,-732 1664,-732 1664,-744 1664,-744 1664,-750 1658,-756 1652,-756"/>
<text text-anchor="middle" x="1591" y="-734.3" font-family="Times,serif" font-size="14.00" fill="#edddd4">олег_не_торопись</text>
</g>
<!-- node_1599988122&#45;&gt;node_1604059811 -->
<g id="edge67" class="edge">
<title>node_1599988122&#45;&gt;node_1604059811</title>
<path fill="none" stroke="black" d="M1591,-791.7C1591,-783.98 1591,-774.71 1591,-766.11"/>
<polygon fill="black" stroke="black" points="1594.5,-766.1 1591,-756.1 1587.5,-766.1 1594.5,-766.1"/>
</g>
<!-- node_269611910 -->
<g id="node68" class="node">
<title>node_269611910</title>
<path fill="#c45baa" stroke="black" d="M1942,-756C1942,-756 1790,-756 1790,-756 1784,-756 1778,-750 1778,-744 1778,-744 1778,-732 1778,-732 1778,-726 1784,-720 1790,-720 1790,-720 1942,-720 1942,-720 1948,-720 1954,-726 1954,-732 1954,-732 1954,-744 1954,-744 1954,-750 1948,-756 1942,-756"/>
<text text-anchor="middle" x="1866" y="-734.3" font-family="Times,serif" font-size="14.00" fill="#edddd4">сомнительно_но_окей</text>
</g>
<!-- node_1599988122&#45;&gt;node_269611910 -->
<g id="edge68" class="edge">
<title>node_1599988122&#45;&gt;node_269611910</title>
<path fill="none" stroke="black" d="M1651.69,-793.55C1692.19,-783.24 1745.78,-769.6 1789.24,-758.54"/>
<polygon fill="black" stroke="black" points="1790.38,-761.86 1799.2,-756 1788.65,-755.08 1790.38,-761.86"/>
</g>
<!-- node_1158604899 -->
<g id="node46" class="node">
<title>node_1158604899</title>
<path fill="#c45baa" stroke="black" d="M1667,-684C1667,-684 1515,-684 1515,-684 1509,-684 1503,-678 1503,-672 1503,-672 1503,-660 1503,-660 1503,-654 1509,-648 1515,-648 1515,-648 1667,-648 1667,-648 1673,-648 1679,-654 1679,-660 1679,-660 1679,-672 1679,-672 1679,-678 1673,-684 1667,-684"/>
<text text-anchor="middle" x="1591" y="-662.3" font-family="Times,serif" font-size="14.00" fill="#edddd4">сомнительно_но_окей</text>
</g>
<!-- node_1604059811&#45;&gt;node_1158604899 -->
<g id="edge63" class="edge">
<title>node_1604059811&#45;&gt;node_1158604899</title>
<path fill="none" stroke="black" d="M1591,-719.7C1591,-711.98 1591,-702.71 1591,-694.11"/>
<polygon fill="black" stroke="black" points="1594.5,-694.1 1591,-684.1 1587.5,-694.1 1594.5,-694.1"/>
</g>
<!-- node_471574666 -->
<g id="node47" class="node">
<title>node_471574666</title>
<path fill="#c45baa" stroke="black" d="M1638,-612C1638,-612 1486,-612 1486,-612 1480,-612 1474,-606 1474,-600 1474,-600 1474,-588 1474,-588 1474,-582 1480,-576 1486,-576 1486,-576 1638,-576 1638,-576 1644,-576 1650,-582 1650,-588 1650,-588 1650,-600 1650,-600 1650,-606 1644,-612 1638,-612"/>
<text text-anchor="middle" x="1562" y="-590.3" font-family="Times,serif" font-size="14.00" fill="#edddd4">сомнительно_но_окей</text>
</g>
<!-- node_1158604899&#45;&gt;node_471574666 -->
<g id="edge61" class="edge">
<title>node_1158604899&#45;&gt;node_471574666</title>
<path fill="none" stroke="black" d="M1583.83,-647.7C1580.57,-639.81 1576.63,-630.3 1573,-621.55"/>
<polygon fill="black" stroke="black" points="1576.15,-620 1569.09,-612.1 1569.68,-622.68 1576.15,-620"/>
</g>
<!-- node_1760528959 -->
<g id="node66" class="node">
<title>node_1760528959</title>
<path fill="#000000" stroke="black" d="M1862,-612C1862,-612 1680,-612 1680,-612 1674,-612 1668,-606 1668,-600 1668,-600 1668,-588 1668,-588 1668,-582 1674,-576 1680,-576 1680,-576 1862,-576 1862,-576 1868,-576 1874,-582 1874,-588 1874,-588 1874,-600 1874,-600 1874,-606 1868,-612 1862,-612"/>
<text text-anchor="middle" x="1771" y="-590.3" font-family="Times,serif" font-size="14.00" fill="#edddd4">никто_никогда_не_вернет</text>
</g>
<!-- node_1158604899&#45;&gt;node_1760528959 -->
<g id="edge62" class="edge">
<title>node_1158604899&#45;&gt;node_1760528959</title>
<path fill="none" stroke="black" d="M1635.03,-647.88C1659.97,-638.18 1691.34,-625.98 1717.66,-615.74"/>
<polygon fill="black" stroke="black" points="1719.06,-618.95 1727.11,-612.07 1716.52,-612.43 1719.06,-618.95"/>
</g>
<!-- node_706596794 -->
<g id="node48" class="node">
<title>node_706596794</title>
<path fill="#c45baa" stroke="black" d="M1432,-540C1432,-540 1280,-540 1280,-540 1274,-540 1268,-534 1268,-528 1268,-528 1268,-516 1268,-516 1268,-510 1274,-504 1280,-504 1280,-504 1432,-504 1432,-504 1438,-504 1444,-510 1444,-516 1444,-516 1444,-528 1444,-528 1444,-534 1438,-540 1432,-540"/>
<text text-anchor="middle" x="1356" y="-518.3" font-family="Times,serif" font-size="14.00" fill="#edddd4">сомнительно_но_окей</text>
</g>
<!-- node_471574666&#45;&gt;node_706596794 -->
<g id="edge58" class="edge">
<title>node_471574666&#45;&gt;node_706596794</title>
<path fill="none" stroke="black" d="M1511.87,-575.97C1482.96,-566.14 1446.43,-553.73 1416,-543.39"/>
<polygon fill="black" stroke="black" points="1416.95,-540.01 1406.35,-540.11 1414.7,-546.64 1416.95,-540.01"/>
</g>
<!-- node_938912616 -->
<g id="node60" class="node">
<title>node_938912616</title>
<path fill="#ff8966" stroke="black" d="M1697.5,-540C1697.5,-540 1474.5,-540 1474.5,-540 1468.5,-540 1462.5,-534 1462.5,-528 1462.5,-528 1462.5,-516 1462.5,-516 1462.5,-510 1468.5,-504 1474.5,-504 1474.5,-504 1697.5,-504 1697.5,-504 1703.5,-504 1709.5,-510 1709.5,-516 1709.5,-516 1709.5,-528 1709.5,-528 1709.5,-534 1703.5,-540 1697.5,-540"/>
<text text-anchor="middle" x="1586" y="-518.3" font-family="Times,serif" font-size="14.00" fill="#edddd4">але_вам_удобно_разговаривать</text>
</g>
<!-- node_471574666&#45;&gt;node_938912616 -->
<g id="edge59" class="edge">
<title>node_471574666&#45;&gt;node_938912616</title>
<path fill="none" stroke="black" d="M1567.93,-575.7C1570.61,-567.9 1573.83,-558.51 1576.8,-549.83"/>
<polygon fill="black" stroke="black" points="1580.2,-550.7 1580.14,-540.1 1573.58,-548.43 1580.2,-550.7"/>
</g>
<!-- node_1455113063 -->
<g id="node49" class="node">
<title>node_1455113063</title>
<path fill="#c45baa" stroke="black" d="M1290,-468C1290,-468 1138,-468 1138,-468 1132,-468 1126,-462 1126,-456 1126,-456 1126,-444 1126,-444 1126,-438 1132,-432 1138,-432 1138,-432 1290,-432 1290,-432 1296,-432 1302,-438 1302,-444 1302,-444 1302,-456 1302,-456 1302,-462 1296,-468 1290,-468"/>
<text text-anchor="middle" x="1214" y="-446.3" font-family="Times,serif" font-size="14.00" fill="#edddd4">сомнительно_но_окей</text>
</g>
<!-- node_706596794&#45;&gt;node_1455113063 -->
<g id="edge51" class="edge">
<title>node_706596794&#45;&gt;node_1455113063</title>
<path fill="none" stroke="black" d="M1321.26,-503.88C1302.18,-494.47 1278.32,-482.71 1257.95,-472.67"/>
<polygon fill="black" stroke="black" points="1259.39,-469.47 1248.87,-468.19 1256.29,-475.75 1259.39,-469.47"/>
</g>
<!-- node_1003242901 -->
<g id="node54" class="node">
<title>node_1003242901</title>
<path fill="#7d387d" stroke="black" d="M1477,-468C1477,-468 1355,-468 1355,-468 1349,-468 1343,-462 1343,-456 1343,-456 1343,-444 1343,-444 1343,-438 1349,-432 1355,-432 1355,-432 1477,-432 1477,-432 1483,-432 1489,-438 1489,-444 1489,-444 1489,-456 1489,-456 1489,-462 1483,-468 1477,-468"/>
<text text-anchor="middle" x="1416" y="-446.3" font-family="Times,serif" font-size="14.00" fill="#edddd4">олег_не_торопись</text>
</g>
<!-- node_706596794&#45;&gt;node_1003242901 -->
<g id="edge52" class="edge">
<title>node_706596794&#45;&gt;node_1003242901</title>
<path fill="none" stroke="black" d="M1370.83,-503.7C1378.02,-495.3 1386.8,-485.07 1394.69,-475.86"/>
<polygon fill="black" stroke="black" points="1397.49,-477.97 1401.34,-468.1 1392.17,-473.42 1397.49,-477.97"/>
</g>
<!-- node_1833541972 -->
<g id="node50" class="node">
<title>node_1833541972</title>
<path fill="#ff8966" stroke="black" d="M1301.5,-396C1301.5,-396 1078.5,-396 1078.5,-396 1072.5,-396 1066.5,-390 1066.5,-384 1066.5,-384 1066.5,-372 1066.5,-372 1066.5,-366 1072.5,-360 1078.5,-360 1078.5,-360 1301.5,-360 1301.5,-360 1307.5,-360 1313.5,-366 1313.5,-372 1313.5,-372 1313.5,-384 1313.5,-384 1313.5,-390 1307.5,-396 1301.5,-396"/>
<text text-anchor="middle" x="1190" y="-374.3" font-family="Times,serif" font-size="14.00" fill="#edddd4">але_вам_удобно_разговаривать</text>
</g>
<!-- node_1455113063&#45;&gt;node_1833541972 -->
<g id="edge45" class="edge">
<title>node_1455113063&#45;&gt;node_1833541972</title>
<path fill="none" stroke="black" d="M1208.07,-431.7C1205.39,-423.9 1202.17,-414.51 1199.2,-405.83"/>
<polygon fill="black" stroke="black" points="1202.42,-404.43 1195.86,-396.1 1195.8,-406.7 1202.42,-404.43"/>
</g>
<!-- node_90110849 -->
<g id="node51" class="node">
<title>node_90110849</title>
<path fill="#c44536" stroke="black" d="M1244.5,-324C1244.5,-324 1135.5,-324 1135.5,-324 1129.5,-324 1123.5,-318 1123.5,-312 1123.5,-312 1123.5,-300 1123.5,-300 1123.5,-294 1129.5,-288 1135.5,-288 1135.5,-288 1244.5,-288 1244.5,-288 1250.5,-288 1256.5,-294 1256.5,-300 1256.5,-300 1256.5,-312 1256.5,-312 1256.5,-318 1250.5,-324 1244.5,-324"/>
<text text-anchor="middle" x="1190" y="-302.3" font-family="Times,serif" font-size="14.00" fill="#edddd4">я_так_чувствую</text>
</g>
<!-- node_1833541972&#45;&gt;node_90110849 -->
<g id="edge44" class="edge">
<title>node_1833541972&#45;&gt;node_90110849</title>
<path fill="none" stroke="black" d="M1190,-359.7C1190,-351.98 1190,-342.71 1190,-334.11"/>
<polygon fill="black" stroke="black" points="1193.5,-334.1 1190,-324.1 1186.5,-334.1 1193.5,-334.1"/>
</g>
<!-- node_1123671687 -->
<g id="node52" class="node">
<title>node_1123671687</title>
<path fill="#283d3b" stroke="black" d="M1169,-252C1169,-252 1139,-252 1139,-252 1133,-252 1127,-246 1127,-240 1127,-240 1127,-228 1127,-228 1127,-222 1133,-216 1139,-216 1139,-216 1169,-216 1169,-216 1175,-216 1181,-222 1181,-228 1181,-228 1181,-240 1181,-240 1181,-246 1175,-252 1169,-252"/>
<text text-anchor="middle" x="1154" y="-230.3" font-family="Times,serif" font-size="14.00" fill="#edddd4">N</text>
</g>
<!-- node_90110849&#45;&gt;node_1123671687 -->
<g id="edge42" class="edge">
<title>node_90110849&#45;&gt;node_1123671687</title>
<path fill="none" stroke="black" d="M1181.1,-287.7C1177,-279.73 1172.05,-270.1 1167.51,-261.26"/>
<polygon fill="black" stroke="black" points="1170.48,-259.4 1162.8,-252.1 1164.26,-262.6 1170.48,-259.4"/>
</g>
<!-- node_484818394 -->
<g id="node53" class="node">
<title>node_484818394</title>
<path fill="#197278" stroke="black" d="M1241,-252C1241,-252 1211,-252 1211,-252 1205,-252 1199,-246 1199,-240 1199,-240 1199,-228 1199,-228 1199,-222 1205,-216 1211,-216 1211,-216 1241,-216 1241,-216 1247,-216 1253,-222 1253,-228 1253,-228 1253,-240 1253,-240 1253,-246 1247,-252 1241,-252"/>
<text text-anchor="middle" x="1226" y="-230.3" font-family="Times,serif" font-size="14.00" fill="#edddd4">5</text>
</g>
<!-- node_90110849&#45;&gt;node_484818394 -->
<g id="edge43" class="edge">
<title>node_90110849&#45;&gt;node_484818394</title>
<path fill="none" stroke="black" d="M1198.9,-287.7C1203,-279.73 1207.95,-270.1 1212.49,-261.26"/>
<polygon fill="black" stroke="black" points="1215.74,-262.6 1217.2,-252.1 1209.52,-259.4 1215.74,-262.6"/>
</g>
<!-- node_2004512105 -->
<g id="node55" class="node">
<title>node_2004512105</title>
<path fill="#c45baa" stroke="black" d="M1496,-396C1496,-396 1344,-396 1344,-396 1338,-396 1332,-390 1332,-384 1332,-384 1332,-372 1332,-372 1332,-366 1338,-360 1344,-360 1344,-360 1496,-360 1496,-360 1502,-360 1508,-366 1508,-372 1508,-372 1508,-384 1508,-384 1508,-390 1502,-396 1496,-396"/>
<text text-anchor="middle" x="1420" y="-374.3" font-family="Times,serif" font-size="14.00" fill="#edddd4">сомнительно_но_окей</text>
</g>
<!-- node_1003242901&#45;&gt;node_2004512105 -->
<g id="edge50" class="edge">
<title>node_1003242901&#45;&gt;node_2004512105</title>
<path fill="none" stroke="black" d="M1416.99,-431.7C1417.43,-423.98 1417.96,-414.71 1418.45,-406.11"/>
<polygon fill="black" stroke="black" points="1421.95,-406.29 1419.02,-396.1 1414.96,-405.89 1421.95,-406.29"/>
</g>
<!-- node_1263043578 -->
<g id="node56" class="node">
<title>node_1263043578</title>
<path fill="#ff8966" stroke="black" d="M1531.5,-324C1531.5,-324 1308.5,-324 1308.5,-324 1302.5,-324 1296.5,-318 1296.5,-312 1296.5,-312 1296.5,-300 1296.5,-300 1296.5,-294 1302.5,-288 1308.5,-288 1308.5,-288 1531.5,-288 1531.5,-288 1537.5,-288 1543.5,-294 1543.5,-300 1543.5,-300 1543.5,-312 1543.5,-312 1543.5,-318 1537.5,-324 1531.5,-324"/>
<text text-anchor="middle" x="1420" y="-302.3" font-family="Times,serif" font-size="14.00" fill="#edddd4">але_вам_удобно_разговаривать</text>
</g>
<!-- node_2004512105&#45;&gt;node_1263043578 -->
<g id="edge49" class="edge">
<title>node_2004512105&#45;&gt;node_1263043578</title>
<path fill="none" stroke="black" d="M1420,-359.7C1420,-351.98 1420,-342.71 1420,-334.11"/>
<polygon fill="black" stroke="black" points="1423.5,-334.1 1420,-324.1 1416.5,-334.1 1423.5,-334.1"/>
</g>
<!-- node_851121003 -->
<g id="node57" class="node">
<title>node_851121003</title>
<path fill="#c44536" stroke="black" d="M1474.5,-252C1474.5,-252 1365.5,-252 1365.5,-252 1359.5,-252 1353.5,-246 1353.5,-240 1353.5,-240 1353.5,-228 1353.5,-228 1353.5,-222 1359.5,-216 1365.5,-216 1365.5,-216 1474.5,-216 1474.5,-216 1480.5,-216 1486.5,-222 1486.5,-228 1486.5,-228 1486.5,-240 1486.5,-240 1486.5,-246 1480.5,-252 1474.5,-252"/>
<text text-anchor="middle" x="1420" y="-230.3" font-family="Times,serif" font-size="14.00" fill="#edddd4">я_так_чувствую</text>
</g>
<!-- node_1263043578&#45;&gt;node_851121003 -->
<g id="edge48" class="edge">
<title>node_1263043578&#45;&gt;node_851121003</title>
<path fill="none" stroke="black" d="M1420,-287.7C1420,-279.98 1420,-270.71 1420,-262.11"/>
<polygon fill="black" stroke="black" points="1423.5,-262.1 1420,-252.1 1416.5,-262.1 1423.5,-262.1"/>
</g>
<!-- node_36819450 -->
<g id="node58" class="node">
<title>node_36819450</title>
<path fill="#283d3b" stroke="black" d="M1399,-180C1399,-180 1369,-180 1369,-180 1363,-180 1357,-174 1357,-168 1357,-168 1357,-156 1357,-156 1357,-150 1363,-144 1369,-144 1369,-144 1399,-144 1399,-144 1405,-144 1411,-150 1411,-156 1411,-156 1411,-168 1411,-168 1411,-174 1405,-180 1399,-180"/>
<text text-anchor="middle" x="1384" y="-158.3" font-family="Times,serif" font-size="14.00" fill="#edddd4">ZV</text>
</g>
<!-- node_851121003&#45;&gt;node_36819450 -->
<g id="edge46" class="edge">
<title>node_851121003&#45;&gt;node_36819450</title>
<path fill="none" stroke="black" d="M1411.1,-215.7C1407,-207.73 1402.05,-198.1 1397.51,-189.26"/>
<polygon fill="black" stroke="black" points="1400.48,-187.4 1392.8,-180.1 1394.26,-190.6 1400.48,-187.4"/>
</g>
<!-- node_809054864 -->
<g id="node59" class="node">
<title>node_809054864</title>
<path fill="#197278" stroke="black" d="M1471,-180C1471,-180 1441,-180 1441,-180 1435,-180 1429,-174 1429,-168 1429,-168 1429,-156 1429,-156 1429,-150 1435,-144 1441,-144 1441,-144 1471,-144 1471,-144 1477,-144 1483,-150 1483,-156 1483,-156 1483,-168 1483,-168 1483,-174 1477,-180 1471,-180"/>
<text text-anchor="middle" x="1456" y="-158.3" font-family="Times,serif" font-size="14.00" fill="#edddd4">1488</text>
</g>
<!-- node_851121003&#45;&gt;node_809054864 -->
<g id="edge47" class="edge">
<title>node_851121003&#45;&gt;node_809054864</title>
<path fill="none" stroke="black" d="M1428.9,-215.7C1433,-207.73 1437.95,-198.1 1442.49,-189.26"/>
<polygon fill="black" stroke="black" points="1445.74,-190.6 1447.2,-180.1 1439.52,-187.4 1445.74,-190.6"/>
</g>
<!-- node_1518468105 -->
<g id="node61" class="node">
<title>node_1518468105</title>
<path fill="#c44536" stroke="black" d="M1640.5,-468C1640.5,-468 1531.5,-468 1531.5,-468 1525.5,-468 1519.5,-462 1519.5,-456 1519.5,-456 1519.5,-444 1519.5,-444 1519.5,-438 1525.5,-432 1531.5,-432 1531.5,-432 1640.5,-432 1640.5,-432 1646.5,-432 1652.5,-438 1652.5,-444 1652.5,-444 1652.5,-456 1652.5,-456 1652.5,-462 1646.5,-468 1640.5,-468"/>
<text text-anchor="middle" x="1586" y="-446.3" font-family="Times,serif" font-size="14.00" fill="#edddd4">я_так_чувствую</text>
</g>
<!-- node_938912616&#45;&gt;node_1518468105 -->
<g id="edge57" class="edge">
<title>node_938912616&#45;&gt;node_1518468105</title>
<path fill="none" stroke="black" d="M1586,-503.7C1586,-495.98 1586,-486.71 1586,-478.11"/>
<polygon fill="black" stroke="black" points="1589.5,-478.1 1586,-468.1 1582.5,-478.1 1589.5,-478.1"/>
</g>
<!-- node_1111548048 -->
<g id="node62" class="node">
<title>node_1111548048</title>
<path fill="#283d3b" stroke="black" d="M1618,-396C1618,-396 1546,-396 1546,-396 1540,-396 1534,-390 1534,-384 1534,-384 1534,-372 1534,-372 1534,-366 1540,-360 1546,-360 1546,-360 1618,-360 1618,-360 1624,-360 1630,-366 1630,-372 1630,-372 1630,-384 1630,-384 1630,-390 1624,-396 1618,-396"/>
<text text-anchor="middle" x="1582" y="-374.3" font-family="Times,serif" font-size="14.00" fill="#edddd4">факториал</text>
</g>
<!-- node_1518468105&#45;&gt;node_1111548048 -->
<g id="edge55" class="edge">
<title>node_1518468105&#45;&gt;node_1111548048</title>
<path fill="none" stroke="black" d="M1585.01,-431.7C1584.57,-423.98 1584.04,-414.71 1583.55,-406.11"/>
<polygon fill="black" stroke="black" points="1587.04,-405.89 1582.98,-396.1 1580.05,-406.29 1587.04,-405.89"/>
</g>
<!-- node_332616409 -->
<g id="node63" class="node">
<title>node_332616409</title>
<path fill="#283d3b" stroke="black" d="M1749.5,-396C1749.5,-396 1660.5,-396 1660.5,-396 1654.5,-396 1648.5,-390 1648.5,-384 1648.5,-384 1648.5,-372 1648.5,-372 1648.5,-366 1654.5,-360 1660.5,-360 1660.5,-360 1749.5,-360 1749.5,-360 1755.5,-360 1761.5,-366 1761.5,-372 1761.5,-372 1761.5,-384 1761.5,-384 1761.5,-390 1755.5,-396 1749.5,-396"/>
<text text-anchor="middle" x="1705" y="-374.3" font-family="Times,serif" font-size="14.00" fill="#edddd4">ФАКТОРИАЛ</text>
</g>
<!-- node_1518468105&#45;&gt;node_332616409 -->
<g id="edge56" class="edge">
<title>node_1518468105&#45;&gt;node_332616409</title>
<path fill="none" stroke="black" d="M1615.11,-431.88C1630.67,-422.72 1650.02,-411.34 1666.78,-401.48"/>
<polygon fill="black" stroke="black" points="1668.93,-404.28 1675.78,-396.19 1665.38,-398.24 1668.93,-404.28"/>
</g>
<!-- node_186855417 -->
<g id="node64" class="node">
<title>node_186855417</title>
<path fill="#c45baa" stroke="black" d="M1781,-324C1781,-324 1629,-324 1629,-324 1623,-324 1617,-318 1617,-312 1617,-312 1617,-300 1617,-300 1617,-294 1623,-288 1629,-288 1629,-288 1781,-288 1781,-288 1787,-288 1793,-294 1793,-300 1793,-300 1793,-312 1793,-312 1793,-318 1787,-324 1781,-324"/>
<text text-anchor="middle" x="1705" y="-302.3" font-family="Times,serif" font-size="14.00" fill="#edddd4">сомнительно_но_окей</text>
</g>
<!-- node_332616409&#45;&gt;node_186855417 -->
<g id="edge54" class="edge">
<title>node_332616409&#45;&gt;node_186855417</title>
<path fill="none" stroke="black" d="M1705,-359.7C1705,-351.98 1705,-342.71 1705,-334.11"/>
<polygon fill="black" stroke="black" points="1708.5,-334.1 1705,-324.1 1701.5,-334.1 1708.5,-334.1"/>
</g>
<!-- node_926257135 -->
<g id="node65" class="node">
<title>node_926257135</title>
<path fill="#283d3b" stroke="black" d="M1720,-252C1720,-252 1690,-252 1690,-252 1684,-252 1678,-246 1678,-240 1678,-240 1678,-228 1678,-228 1678,-222 1684,-216 1690,-216 1690,-216 1720,-216 1720,-216 1726,-216 1732,-222 1732,-228 1732,-228 1732,-240 1732,-240 1732,-246 1726,-252 1720,-252"/>
<text text-anchor="middle" x="1705" y="-230.3" font-family="Times,serif" font-size="14.00" fill="#edddd4">N</text>
</g>
<!-- node_186855417&#45;&gt;node_926257135 -->
<g id="edge53" class="edge">
<title>node_186855417&#45;&gt;node_926257135</title>
<path fill="none" stroke="black" d="M1705,-287.7C1705,-279.98 1705,-270.71 1705,-262.11"/>
<polygon fill="black" stroke="black" points="1708.5,-262.1 1705,-252.1 1701.5,-262.1 1708.5,-262.1"/>
</g>
<!-- node_49645876 -->
<g id="node67" class="node">
<title>node_49645876</title>
<path fill="#283d3b" stroke="black" d="M1812,-540C1812,-540 1740,-540 1740,-540 1734,-540 1728,-534 1728,-528 1728,-528 1728,-516 1728,-516 1728,-510 1734,-504 1740,-504 1740,-504 1812,-504 1812,-504 1818,-504 1824,-510 1824,-516 1824,-516 1824,-528 1824,-528 1824,-534 1818,-540 1812,-540"/>
<text text-anchor="middle" x="1776" y="-518.3" font-family="Times,serif" font-size="14.00" fill="#edddd4">факториал</text>
</g>
<!-- node_1760528959&#45;&gt;node_49645876 -->
<g id="edge60" class="edge">
<title>node_1760528959&#45;&gt;node_49645876</title>
<path fill="none" stroke="black" d="M1772.24,-575.7C1772.79,-567.98 1773.45,-558.71 1774.06,-550.11"/>
<polygon fill="black" stroke="black" points="1777.56,-550.33 1774.78,-540.1 1770.57,-549.83 1777.56,-550.33"/>
</g>
<!-- node_987787999 -->
<g id="node69" class="node">
<title>node_987787999</title>
<path fill="#c45baa" stroke="black" d="M1942,-684C1942,-684 1790,-684 1790,-684 1784,-684 1778,-678 1778,-672 1778,-672 1778,-660 1778,-660 1778,-654 1784,-648 1790,-648 1790,-648 1942,-648 1942,-648 1948,-648 1954,-654 1954,-660 1954,-660 1954,-672 1954,-672 1954,-678 1948,-684 1942,-684"/>
<text text-anchor="middle" x="1866" y="-662.3" font-family="Times,serif" font-size="14.00" fill="#edddd4">сомнительно_но_окей</text>
</g>
<!-- node_269611910&#45;&gt;node_987787999 -->
<g id="edge65" class="edge">
<title>node_269611910&#45;&gt;node_987787999</title>
<path fill="none" stroke="black" d="M1866,-719.7C1866,-711.98 1866,-702.71 1866,-694.11"/>
<polygon fill="black" stroke="black" points="1869.5,-694.1 1866,-684.1 1862.5,-694.1 1869.5,-694.1"/>
</g>
<!-- node_1089250068 -->
<g id="node71" class="node">
<title>node_1089250068</title>
<path fill="#283d3b" stroke="black" d="M2019.5,-684C2019.5,-684 1984.5,-684 1984.5,-684 1978.5,-684 1972.5,-678 1972.5,-672 1972.5,-672 1972.5,-660 1972.5,-660 1972.5,-654 1978.5,-648 1984.5,-648 1984.5,-648 2019.5,-648 2019.5,-648 2025.5,-648 2031.5,-654 2031.5,-660 2031.5,-660 2031.5,-672 2031.5,-672 2031.5,-678 2025.5,-684 2019.5,-684"/>
<text text-anchor="middle" x="2002" y="-662.3" font-family="Times,serif" font-size="14.00" fill="#edddd4">ЦАРЬ</text>
</g>
<!-- node_269611910&#45;&gt;node_1089250068 -->
<g id="edge66" class="edge">
<title>node_269611910&#45;&gt;node_1089250068</title>
<path fill="none" stroke="black" d="M1899.27,-719.88C1918.64,-709.91 1943.14,-697.29 1963.36,-686.89"/>
<polygon fill="black" stroke="black" points="1965.02,-689.97 1972.31,-682.28 1961.82,-683.74 1965.02,-689.97"/>
</g>
<!-- node_129584329 -->
<g id="node70" class="node">
<title>node_129584329</title>
<path fill="#283d3b" stroke="black" d="M1934,-612C1934,-612 1904,-612 1904,-612 1898,-612 1892,-606 1892,-600 1892,-600 1892,-588 1892,-588 1892,-582 1898,-576 1904,-576 1904,-576 1934,-576 1934,-576 1940,-576 1946,-582 1946,-588 1946,-588 1946,-600 1946,-600 1946,-606 1940,-612 1934,-612"/>
<text text-anchor="middle" x="1919" y="-590.3" font-family="Times,serif" font-size="14.00" fill="#edddd4">x</text>
</g>
<!-- node_987787999&#45;&gt;node_129584329 -->
<g id="edge64" class="edge">
<title>node_987787999&#45;&gt;node_129584329</title>
<path fill="none" stroke="black" d="M1879.1,-647.7C1885.39,-639.39 1893.05,-629.28 1899.96,-620.14"/>
<polygon fill="black" stroke="black" points="1902.8,-622.19 1906.05,-612.1 1897.22,-617.96 1902.8,-622.19"/>
</g>
</g>
</svg>
