<?xml version="1.0" encoding="UTF-8" standalone="no"?>
<!DOCTYPE svg PUBLIC "-//W3C//DTD SVG 1.1//EN"
 "http://www.w3.org/Graphics/SVG/1.1/DTD/svg11.dtd">
<!-- Generated by graphviz version 2.43.0 (0)
 -->
<!-- Title: TREE Pages: 1 -->
<svg width="2034pt" height="908pt"
 viewBox="0.00 0.00 2033.50 908.00" xmlns="http://www.w3.org/2000/svg" xmlns:xlink="http://www.w3.org/1999/xlink">
<g id="graph0" class="graph" transform="scale(1 1) rotate(0) translate(4 904)">
<title>TREE</title>
<polygon fill="#edddd4" stroke="transparent" points="-4,4 -4,-904 2029.5,-904 2029.5,4 -4,4"/>
<!-- node_623592573 -->
<g id="node1" class="node">
<title>node_623592573</title>
<path fill="#c45baa" stroke="black" d="M1564,-900C1564,-900 1412,-900 1412,-900 1406,-900 1400,-894 1400,-888 1400,-888 1400,-876 1400,-876 1400,-870 1406,-864 1412,-864 1412,-864 1564,-864 1564,-864 1570,-864 1576,-870 1576,-876 1576,-876 1576,-888 1576,-888 1576,-894 1570,-900 1564,-900"/>
<text text-anchor="middle" x="1488" y="-878.3" font-family="Times,serif" font-size="14.00" fill="#edddd4">сомнительно_но_окей</text>
</g>
<!-- node_161934804 -->
<g id="node2" class="node">
<title>node_161934804</title>
<path fill="#c45baa" stroke="black" d="M1481,-828C1481,-828 1329,-828 1329,-828 1323,-828 1317,-822 1317,-816 1317,-816 1317,-804 1317,-804 1317,-798 1323,-792 1329,-792 1329,-792 1481,-792 1481,-792 1487,-792 1493,-798 1493,-804 1493,-804 1493,-816 1493,-816 1493,-822 1487,-828 1481,-828"/>
<text text-anchor="middle" x="1405" y="-806.3" font-family="Times,serif" font-size="14.00" fill="#edddd4">сомнительно_но_окей</text>
</g>
<!-- node_623592573&#45;&gt;node_161934804 -->
<g id="edge69" class="edge">
<title>node_623592573&#45;&gt;node_161934804</title>
<path fill="none" stroke="black" d="M1467.48,-863.7C1457.13,-854.97 1444.41,-844.24 1433.16,-834.75"/>
<polygon fill="black" stroke="black" points="1435.18,-831.88 1425.28,-828.1 1430.67,-837.23 1435.18,-831.88"/>
</g>
<!-- node_1223617064 -->
<g id="node44" class="node">
<title>node_1223617064</title>
<path fill="#7d387d" stroke="black" d="M1633.5,-828C1633.5,-828 1536.5,-828 1536.5,-828 1530.5,-828 1524.5,-822 1524.5,-816 1524.5,-816 1524.5,-804 1524.5,-804 1524.5,-798 1530.5,-792 1536.5,-792 1536.5,-792 1633.5,-792 1633.5,-792 1639.5,-792 1645.5,-798 1645.5,-804 1645.5,-804 1645.5,-816 1645.5,-816 1645.5,-822 1639.5,-828 1633.5,-828"/>
<text text-anchor="middle" x="1585" y="-806.3" font-family="Times,serif" font-size="14.00" fill="#edddd4">россии_нужен</text>
</g>
<!-- node_623592573&#45;&gt;node_1223617064 -->
<g id="edge70" class="edge">
<title>node_623592573&#45;&gt;node_1223617064</title>
<path fill="none" stroke="black" d="M1511.98,-863.7C1524.31,-854.8 1539.52,-843.82 1552.85,-834.2"/>
<polygon fill="black" stroke="black" points="1555.24,-836.79 1561.3,-828.1 1551.14,-831.12 1555.24,-836.79"/>
</g>
<!-- node_2023574124 -->
<g id="node3" class="node">
<title>node_2023574124</title>
<path fill="#7d387d" stroke="black" d="M1402.5,-756C1402.5,-756 1305.5,-756 1305.5,-756 1299.5,-756 1293.5,-750 1293.5,-744 1293.5,-744 1293.5,-732 1293.5,-732 1293.5,-726 1299.5,-720 1305.5,-720 1305.5,-720 1402.5,-720 1402.5,-720 1408.5,-720 1414.5,-726 1414.5,-732 1414.5,-732 1414.5,-744 1414.5,-744 1414.5,-750 1408.5,-756 1402.5,-756"/>
<text text-anchor="middle" x="1354" y="-734.3" font-family="Times,serif" font-size="14.00" fill="#edddd4">россии_нужен</text>
</g>
<!-- node_161934804&#45;&gt;node_2023574124 -->
<g id="edge41" class="edge">
<title>node_161934804&#45;&gt;node_2023574124</title>
<path fill="none" stroke="black" d="M1392.39,-791.7C1386.4,-783.47 1379.12,-773.48 1372.52,-764.42"/>
<polygon fill="black" stroke="black" points="1375.18,-762.13 1366.46,-756.1 1369.52,-766.25 1375.18,-762.13"/>
</g>
<!-- node_251103920 -->
<g id="node4" class="node">
<title>node_251103920</title>
<path fill="#7d387d" stroke="black" d="M1163,-684C1163,-684 1041,-684 1041,-684 1035,-684 1029,-678 1029,-672 1029,-672 1029,-660 1029,-660 1029,-654 1035,-648 1041,-648 1041,-648 1163,-648 1163,-648 1169,-648 1175,-654 1175,-660 1175,-660 1175,-672 1175,-672 1175,-678 1169,-684 1163,-684"/>
<text text-anchor="middle" x="1102" y="-662.3" font-family="Times,serif" font-size="14.00" fill="#edddd4">олег_не_торопись</text>
</g>
<!-- node_2023574124&#45;&gt;node_251103920 -->
<g id="edge39" class="edge">
<title>node_2023574124&#45;&gt;node_251103920</title>
<path fill="none" stroke="black" d="M1293.32,-720.14C1257.22,-710.12 1211.24,-697.34 1173.4,-686.83"/>
<polygon fill="black" stroke="black" points="1174.04,-683.38 1163.47,-684.07 1172.16,-690.12 1174.04,-683.38"/>
</g>
<!-- node_1439304751 -->
<g id="node40" class="node">
<title>node_1439304751</title>
<path fill="#c45baa" stroke="black" d="M1430,-684C1430,-684 1278,-684 1278,-684 1272,-684 1266,-678 1266,-672 1266,-672 1266,-660 1266,-660 1266,-654 1272,-648 1278,-648 1278,-648 1430,-648 1430,-648 1436,-648 1442,-654 1442,-660 1442,-660 1442,-672 1442,-672 1442,-678 1436,-684 1430,-684"/>
<text text-anchor="middle" x="1354" y="-662.3" font-family="Times,serif" font-size="14.00" fill="#edddd4">сомнительно_но_окей</text>
</g>
<!-- node_2023574124&#45;&gt;node_1439304751 -->
<g id="edge40" class="edge">
<title>node_2023574124&#45;&gt;node_1439304751</title>
<path fill="none" stroke="black" d="M1354,-719.7C1354,-711.98 1354,-702.71 1354,-694.11"/>
<polygon fill="black" stroke="black" points="1357.5,-694.1 1354,-684.1 1350.5,-694.1 1357.5,-694.1"/>
</g>
<!-- node_1808615270 -->
<g id="node5" class="node">
<title>node_1808615270</title>
<path fill="#c45baa" stroke="black" d="M1106,-612C1106,-612 954,-612 954,-612 948,-612 942,-606 942,-600 942,-600 942,-588 942,-588 942,-582 948,-576 954,-576 954,-576 1106,-576 1106,-576 1112,-576 1118,-582 1118,-588 1118,-588 1118,-600 1118,-600 1118,-606 1112,-612 1106,-612"/>
<text text-anchor="middle" x="1030" y="-590.3" font-family="Times,serif" font-size="14.00" fill="#edddd4">сомнительно_но_окей</text>
</g>
<!-- node_251103920&#45;&gt;node_1808615270 -->
<g id="edge35" class="edge">
<title>node_251103920&#45;&gt;node_1808615270</title>
<path fill="none" stroke="black" d="M1084.2,-647.7C1075.4,-639.14 1064.62,-628.66 1055,-619.3"/>
<polygon fill="black" stroke="black" points="1057.2,-616.57 1047.59,-612.1 1052.32,-621.58 1057.2,-616.57"/>
</g>
<!-- node_483324016 -->
<g id="node6" class="node">
<title>node_483324016</title>
<path fill="#c45baa" stroke="black" d="M919,-540C919,-540 767,-540 767,-540 761,-540 755,-534 755,-528 755,-528 755,-516 755,-516 755,-510 761,-504 767,-504 767,-504 919,-504 919,-504 925,-504 931,-510 931,-516 931,-516 931,-528 931,-528 931,-534 925,-540 919,-540"/>
<text text-anchor="middle" x="843" y="-518.3" font-family="Times,serif" font-size="14.00" fill="#edddd4">сомнительно_но_окей</text>
</g>
<!-- node_1808615270&#45;&gt;node_483324016 -->
<g id="edge33" class="edge">
<title>node_1808615270&#45;&gt;node_483324016</title>
<path fill="none" stroke="black" d="M984.25,-575.88C958.24,-566.14 925.47,-553.87 898.05,-543.61"/>
<polygon fill="black" stroke="black" points="899.19,-540.3 888.6,-540.07 896.74,-546.85 899.19,-540.3"/>
</g>
<!-- node_88042469 -->
<g id="node38" class="node">
<title>node_88042469</title>
<path fill="#000000" stroke="black" d="M1143,-540C1143,-540 961,-540 961,-540 955,-540 949,-534 949,-528 949,-528 949,-516 949,-516 949,-510 955,-504 961,-504 961,-504 1143,-504 1143,-504 1149,-504 1155,-510 1155,-516 1155,-516 1155,-528 1155,-528 1155,-534 1149,-540 1143,-540"/>
<text text-anchor="middle" x="1052" y="-518.3" font-family="Times,serif" font-size="14.00" fill="#edddd4">никто_никогда_не_вернет</text>
</g>
<!-- node_1808615270&#45;&gt;node_88042469 -->
<g id="edge34" class="edge">
<title>node_1808615270&#45;&gt;node_88042469</title>
<path fill="none" stroke="black" d="M1035.44,-575.7C1037.89,-567.9 1040.84,-558.51 1043.57,-549.83"/>
<polygon fill="black" stroke="black" points="1046.96,-550.69 1046.62,-540.1 1040.29,-548.59 1046.96,-550.69"/>
</g>
<!-- node_554134965 -->
<g id="node7" class="node">
<title>node_554134965</title>
<path fill="#c45baa" stroke="black" d="M709,-468C709,-468 557,-468 557,-468 551,-468 545,-462 545,-456 545,-456 545,-444 545,-444 545,-438 551,-432 557,-432 557,-432 709,-432 709,-432 715,-432 721,-438 721,-444 721,-444 721,-456 721,-456 721,-462 715,-468 709,-468"/>
<text text-anchor="middle" x="633" y="-446.3" font-family="Times,serif" font-size="14.00" fill="#edddd4">сомнительно_но_окей</text>
</g>
<!-- node_483324016&#45;&gt;node_554134965 -->
<g id="edge30" class="edge">
<title>node_483324016&#45;&gt;node_554134965</title>
<path fill="none" stroke="black" d="M791.9,-503.97C762.43,-494.14 725.19,-481.73 694.17,-471.39"/>
<polygon fill="black" stroke="black" points="694.93,-467.95 684.33,-468.11 692.71,-474.59 694.93,-467.95"/>
</g>
<!-- node_1793166812 -->
<g id="node30" class="node">
<title>node_1793166812</title>
<path fill="#ff8966" stroke="black" d="M974.5,-468C974.5,-468 751.5,-468 751.5,-468 745.5,-468 739.5,-462 739.5,-456 739.5,-456 739.5,-444 739.5,-444 739.5,-438 745.5,-432 751.5,-432 751.5,-432 974.5,-432 974.5,-432 980.5,-432 986.5,-438 986.5,-444 986.5,-444 986.5,-456 986.5,-456 986.5,-462 980.5,-468 974.5,-468"/>
<text text-anchor="middle" x="863" y="-446.3" font-family="Times,serif" font-size="14.00" fill="#edddd4">але_вам_удобно_разговаривать</text>
</g>
<!-- node_483324016&#45;&gt;node_1793166812 -->
<g id="edge31" class="edge">
<title>node_483324016&#45;&gt;node_1793166812</title>
<path fill="none" stroke="black" d="M847.94,-503.7C850.17,-495.9 852.85,-486.51 855.33,-477.83"/>
<polygon fill="black" stroke="black" points="858.73,-478.68 858.11,-468.1 852,-476.76 858.73,-478.68"/>
</g>
<!-- node_374674021 -->
<g id="node8" class="node">
<title>node_374674021</title>
<path fill="#c45baa" stroke="black" d="M490,-396C490,-396 338,-396 338,-396 332,-396 326,-390 326,-384 326,-384 326,-372 326,-372 326,-366 332,-360 338,-360 338,-360 490,-360 490,-360 496,-360 502,-366 502,-372 502,-372 502,-384 502,-384 502,-390 496,-396 490,-396"/>
<text text-anchor="middle" x="414" y="-374.3" font-family="Times,serif" font-size="14.00" fill="#edddd4">сомнительно_но_окей</text>
</g>
<!-- node_554134965&#45;&gt;node_374674021 -->
<g id="edge21" class="edge">
<title>node_554134965&#45;&gt;node_374674021</title>
<path fill="none" stroke="black" d="M579.71,-431.97C548.84,-422.1 509.8,-409.62 477.37,-399.25"/>
<polygon fill="black" stroke="black" points="478.12,-395.82 467.53,-396.11 475.99,-402.49 478.12,-395.82"/>
</g>
<!-- node_18129527 -->
<g id="node24" class="node">
<title>node_18129527</title>
<path fill="#ff8966" stroke="black" d="M755.5,-396C755.5,-396 532.5,-396 532.5,-396 526.5,-396 520.5,-390 520.5,-384 520.5,-384 520.5,-372 520.5,-372 520.5,-366 526.5,-360 532.5,-360 532.5,-360 755.5,-360 755.5,-360 761.5,-360 767.5,-366 767.5,-372 767.5,-372 767.5,-384 767.5,-384 767.5,-390 761.5,-396 755.5,-396"/>
<text text-anchor="middle" x="644" y="-374.3" font-family="Times,serif" font-size="14.00" fill="#edddd4">але_вам_удобно_разговаривать</text>
</g>
<!-- node_554134965&#45;&gt;node_18129527 -->
<g id="edge22" class="edge">
<title>node_554134965&#45;&gt;node_18129527</title>
<path fill="none" stroke="black" d="M635.72,-431.7C636.93,-423.98 638.39,-414.71 639.74,-406.11"/>
<polygon fill="black" stroke="black" points="643.22,-406.53 641.31,-396.1 636.3,-405.44 643.22,-406.53"/>
</g>
<!-- node_2064559072 -->
<g id="node9" class="node">
<title>node_2064559072</title>
<path fill="#c45baa" stroke="black" d="M322,-324C322,-324 170,-324 170,-324 164,-324 158,-318 158,-312 158,-312 158,-300 158,-300 158,-294 164,-288 170,-288 170,-288 322,-288 322,-288 328,-288 334,-294 334,-300 334,-300 334,-312 334,-312 334,-318 328,-324 322,-324"/>
<text text-anchor="middle" x="246" y="-302.3" font-family="Times,serif" font-size="14.00" fill="#edddd4">сомнительно_но_окей</text>
</g>
<!-- node_374674021&#45;&gt;node_2064559072 -->
<g id="edge14" class="edge">
<title>node_374674021&#45;&gt;node_2064559072</title>
<path fill="none" stroke="black" d="M372.9,-359.88C349.83,-350.26 320.86,-338.19 296.43,-328.01"/>
<polygon fill="black" stroke="black" points="297.54,-324.68 286.96,-324.07 294.85,-331.15 297.54,-324.68"/>
</g>
<!-- node_814397572 -->
<g id="node17" class="node">
<title>node_814397572</title>
<path fill="#000000" stroke="black" d="M467.5,-324C467.5,-324 364.5,-324 364.5,-324 358.5,-324 352.5,-318 352.5,-312 352.5,-312 352.5,-300 352.5,-300 352.5,-294 358.5,-288 364.5,-288 364.5,-288 467.5,-288 467.5,-288 473.5,-288 479.5,-294 479.5,-300 479.5,-300 479.5,-312 479.5,-312 479.5,-318 473.5,-324 467.5,-324"/>
<text text-anchor="middle" x="416" y="-302.3" font-family="Times,serif" font-size="14.00" fill="#edddd4">какая_разница</text>
</g>
<!-- node_374674021&#45;&gt;node_814397572 -->
<g id="edge15" class="edge">
<title>node_374674021&#45;&gt;node_814397572</title>
<path fill="none" stroke="black" d="M414.49,-359.7C414.71,-351.98 414.98,-342.71 415.23,-334.11"/>
<polygon fill="black" stroke="black" points="418.72,-334.2 415.51,-324.1 411.73,-334 418.72,-334.2"/>
</g>
<!-- node_602183350 -->
<g id="node10" class="node">
<title>node_602183350</title>
<path fill="#000000" stroke="black" d="M297.5,-252C297.5,-252 194.5,-252 194.5,-252 188.5,-252 182.5,-246 182.5,-240 182.5,-240 182.5,-228 182.5,-228 182.5,-222 188.5,-216 194.5,-216 194.5,-216 297.5,-216 297.5,-216 303.5,-216 309.5,-222 309.5,-228 309.5,-228 309.5,-240 309.5,-240 309.5,-246 303.5,-252 297.5,-252"/>
<text text-anchor="middle" x="246" y="-230.3" font-family="Times,serif" font-size="14.00" fill="#edddd4">какая_разница</text>
</g>
<!-- node_2064559072&#45;&gt;node_602183350 -->
<g id="edge7" class="edge">
<title>node_2064559072&#45;&gt;node_602183350</title>
<path fill="none" stroke="black" d="M246,-287.7C246,-279.98 246,-270.71 246,-262.11"/>
<polygon fill="black" stroke="black" points="249.5,-262.1 246,-252.1 242.5,-262.1 249.5,-262.1"/>
</g>
<!-- node_933294155 -->
<g id="node11" class="node">
<title>node_933294155</title>
<path fill="#000000" stroke="black" d="M173.5,-180C173.5,-180 70.5,-180 70.5,-180 64.5,-180 58.5,-174 58.5,-168 58.5,-168 58.5,-156 58.5,-156 58.5,-150 64.5,-144 70.5,-144 70.5,-144 173.5,-144 173.5,-144 179.5,-144 185.5,-150 185.5,-156 185.5,-156 185.5,-168 185.5,-168 185.5,-174 179.5,-180 173.5,-180"/>
<text text-anchor="middle" x="122" y="-158.3" font-family="Times,serif" font-size="14.00" fill="#edddd4">какая_разница</text>
</g>
<!-- node_602183350&#45;&gt;node_933294155 -->
<g id="edge5" class="edge">
<title>node_602183350&#45;&gt;node_933294155</title>
<path fill="none" stroke="black" d="M215.67,-215.88C199.3,-206.64 178.92,-195.13 161.35,-185.21"/>
<polygon fill="black" stroke="black" points="162.88,-182.06 152.45,-180.19 159.44,-188.15 162.88,-182.06"/>
</g>
<!-- node_1066491771 -->
<g id="node14" class="node">
<title>node_1066491771</title>
<path fill="#c44536" stroke="black" d="M266,-180C266,-180 236,-180 236,-180 230,-180 224,-174 224,-168 224,-168 224,-156 224,-156 224,-150 230,-144 236,-144 236,-144 266,-144 266,-144 272,-144 278,-150 278,-156 278,-156 278,-168 278,-168 278,-174 272,-180 266,-180"/>
<text text-anchor="middle" x="251" y="-158.3" font-family="Times,serif" font-size="14.00" fill="#edddd4">==</text>
</g>
<!-- node_602183350&#45;&gt;node_1066491771 -->
<g id="edge6" class="edge">
<title>node_602183350&#45;&gt;node_1066491771</title>
<path fill="none" stroke="black" d="M247.24,-215.7C247.79,-207.98 248.45,-198.71 249.06,-190.11"/>
<polygon fill="black" stroke="black" points="252.56,-190.33 249.78,-180.1 245.57,-189.83 252.56,-190.33"/>
</g>
<!-- node_680725997 -->
<g id="node12" class="node">
<title>node_680725997</title>
<path fill="#000000" stroke="black" d="M194,-108C194,-108 12,-108 12,-108 6,-108 0,-102 0,-96 0,-96 0,-84 0,-84 0,-78 6,-72 12,-72 12,-72 194,-72 194,-72 200,-72 206,-78 206,-84 206,-84 206,-96 206,-96 206,-102 200,-108 194,-108"/>
<text text-anchor="middle" x="103" y="-86.3" font-family="Times,serif" font-size="14.00" fill="#edddd4">никто_никогда_не_вернет</text>
</g>
<!-- node_933294155&#45;&gt;node_680725997 -->
<g id="edge2" class="edge">
<title>node_933294155&#45;&gt;node_680725997</title>
<path fill="none" stroke="black" d="M117.3,-143.7C115.19,-135.9 112.64,-126.51 110.28,-117.83"/>
<polygon fill="black" stroke="black" points="113.64,-116.84 107.64,-108.1 106.88,-118.67 113.64,-116.84"/>
</g>
<!-- node_533391245 -->
<g id="node13" class="node">
<title>node_533391245</title>
<path fill="#197278" stroke="black" d="M118,-36C118,-36 88,-36 88,-36 82,-36 76,-30 76,-24 76,-24 76,-12 76,-12 76,-6 82,0 88,0 88,0 118,0 118,0 124,0 130,-6 130,-12 130,-12 130,-24 130,-24 130,-30 124,-36 118,-36"/>
<text text-anchor="middle" x="103" y="-14.3" font-family="Times,serif" font-size="14.00" fill="#edddd4">1</text>
</g>
<!-- node_680725997&#45;&gt;node_533391245 -->
<g id="edge1" class="edge">
<title>node_680725997&#45;&gt;node_533391245</title>
<path fill="none" stroke="black" d="M103,-71.7C103,-63.98 103,-54.71 103,-46.11"/>
<polygon fill="black" stroke="black" points="106.5,-46.1 103,-36.1 99.5,-46.1 106.5,-46.1"/>
</g>
<!-- node_2131851959 -->
<g id="node15" class="node">
<title>node_2131851959</title>
<path fill="#283d3b" stroke="black" d="M266,-108C266,-108 236,-108 236,-108 230,-108 224,-102 224,-96 224,-96 224,-84 224,-84 224,-78 230,-72 236,-72 236,-72 266,-72 266,-72 272,-72 278,-78 278,-84 278,-84 278,-96 278,-96 278,-102 272,-108 266,-108"/>
<text text-anchor="middle" x="251" y="-86.3" font-family="Times,serif" font-size="14.00" fill="#edddd4">n</text>
</g>
<!-- node_1066491771&#45;&gt;node_2131851959 -->
<g id="edge3" class="edge">
<title>node_1066491771&#45;&gt;node_2131851959</title>
<path fill="none" stroke="black" d="M251,-143.7C251,-135.98 251,-126.71 251,-118.11"/>
<polygon fill="black" stroke="black" points="254.5,-118.1 251,-108.1 247.5,-118.1 254.5,-118.1"/>
</g>
<!-- node_411584678 -->
<g id="node16" class="node">
<title>node_411584678</title>
<path fill="#197278" stroke="black" d="M338,-108C338,-108 308,-108 308,-108 302,-108 296,-102 296,-96 296,-96 296,-84 296,-84 296,-78 302,-72 308,-72 308,-72 338,-72 338,-72 344,-72 350,-78 350,-84 350,-84 350,-96 350,-96 350,-102 344,-108 338,-108"/>
<text text-anchor="middle" x="323" y="-86.3" font-family="Times,serif" font-size="14.00" fill="#edddd4">0</text>
</g>
<!-- node_1066491771&#45;&gt;node_411584678 -->
<g id="edge4" class="edge">
<title>node_1066491771&#45;&gt;node_411584678</title>
<path fill="none" stroke="black" d="M268.8,-143.7C277.6,-135.14 288.38,-124.66 298,-115.3"/>
<polygon fill="black" stroke="black" points="300.68,-117.58 305.41,-108.1 295.8,-112.57 300.68,-117.58"/>
</g>
<!-- node_848783005 -->
<g id="node18" class="node">
<title>node_848783005</title>
<path fill="#000000" stroke="black" d="M464.5,-252C464.5,-252 361.5,-252 361.5,-252 355.5,-252 349.5,-246 349.5,-240 349.5,-240 349.5,-228 349.5,-228 349.5,-222 355.5,-216 361.5,-216 361.5,-216 464.5,-216 464.5,-216 470.5,-216 476.5,-222 476.5,-228 476.5,-228 476.5,-240 476.5,-240 476.5,-246 470.5,-252 464.5,-252"/>
<text text-anchor="middle" x="413" y="-230.3" font-family="Times,serif" font-size="14.00" fill="#edddd4">какая_разница</text>
</g>
<!-- node_814397572&#45;&gt;node_848783005 -->
<g id="edge12" class="edge">
<title>node_814397572&#45;&gt;node_848783005</title>
<path fill="none" stroke="black" d="M415.26,-287.7C414.93,-279.98 414.53,-270.71 414.16,-262.11"/>
<polygon fill="black" stroke="black" points="417.66,-261.95 413.73,-252.1 410.66,-262.25 417.66,-261.95"/>
</g>
<!-- node_1187271077 -->
<g id="node21" class="node">
<title>node_1187271077</title>
<path fill="#c44536" stroke="black" d="M573,-252C573,-252 543,-252 543,-252 537,-252 531,-246 531,-240 531,-240 531,-228 531,-228 531,-222 537,-216 543,-216 543,-216 573,-216 573,-216 579,-216 585,-222 585,-228 585,-228 585,-240 585,-240 585,-246 579,-252 573,-252"/>
<text text-anchor="middle" x="558" y="-230.3" font-family="Times,serif" font-size="14.00" fill="#edddd4">==</text>
</g>
<!-- node_814397572&#45;&gt;node_1187271077 -->
<g id="edge13" class="edge">
<title>node_814397572&#45;&gt;node_1187271077</title>
<path fill="none" stroke="black" d="M450.74,-287.88C472.19,-277.3 499.69,-263.74 521.47,-253.01"/>
<polygon fill="black" stroke="black" points="523.31,-256 530.73,-248.44 520.21,-249.73 523.31,-256"/>
</g>
<!-- node_1628607522 -->
<g id="node19" class="node">
<title>node_1628607522</title>
<path fill="#000000" stroke="black" d="M501,-180C501,-180 319,-180 319,-180 313,-180 307,-174 307,-168 307,-168 307,-156 307,-156 307,-150 313,-144 319,-144 319,-144 501,-144 501,-144 507,-144 513,-150 513,-156 513,-156 513,-168 513,-168 513,-174 507,-180 501,-180"/>
<text text-anchor="middle" x="410" y="-158.3" font-family="Times,serif" font-size="14.00" fill="#edddd4">никто_никогда_не_вернет</text>
</g>
<!-- node_848783005&#45;&gt;node_1628607522 -->
<g id="edge9" class="edge">
<title>node_848783005&#45;&gt;node_1628607522</title>
<path fill="none" stroke="black" d="M412.26,-215.7C411.93,-207.98 411.53,-198.71 411.16,-190.11"/>
<polygon fill="black" stroke="black" points="414.66,-189.95 410.73,-180.1 407.66,-190.25 414.66,-189.95"/>
</g>
<!-- node_1571285955 -->
<g id="node20" class="node">
<title>node_1571285955</title>
<path fill="#197278" stroke="black" d="M425,-108C425,-108 395,-108 395,-108 389,-108 383,-102 383,-96 383,-96 383,-84 383,-84 383,-78 389,-72 395,-72 395,-72 425,-72 425,-72 431,-72 437,-78 437,-84 437,-84 437,-96 437,-96 437,-102 431,-108 425,-108"/>
<text text-anchor="middle" x="410" y="-86.3" font-family="Times,serif" font-size="14.00" fill="#edddd4">1</text>
</g>
<!-- node_1628607522&#45;&gt;node_1571285955 -->
<g id="edge8" class="edge">
<title>node_1628607522&#45;&gt;node_1571285955</title>
<path fill="none" stroke="black" d="M410,-143.7C410,-135.98 410,-126.71 410,-118.11"/>
<polygon fill="black" stroke="black" points="413.5,-118.1 410,-108.1 406.5,-118.1 413.5,-118.1"/>
</g>
<!-- node_1104894596 -->
<g id="node22" class="node">
<title>node_1104894596</title>
<path fill="#283d3b" stroke="black" d="M573,-180C573,-180 543,-180 543,-180 537,-180 531,-174 531,-168 531,-168 531,-156 531,-156 531,-150 537,-144 543,-144 543,-144 573,-144 573,-144 579,-144 585,-150 585,-156 585,-156 585,-168 585,-168 585,-174 579,-180 573,-180"/>
<text text-anchor="middle" x="558" y="-158.3" font-family="Times,serif" font-size="14.00" fill="#edddd4">n</text>
</g>
<!-- node_1187271077&#45;&gt;node_1104894596 -->
<g id="edge10" class="edge">
<title>node_1187271077&#45;&gt;node_1104894596</title>
<path fill="none" stroke="black" d="M558,-215.7C558,-207.98 558,-198.71 558,-190.11"/>
<polygon fill="black" stroke="black" points="561.5,-190.1 558,-180.1 554.5,-190.1 561.5,-190.1"/>
</g>
<!-- node_1140656704 -->
<g id="node23" class="node">
<title>node_1140656704</title>
<path fill="#197278" stroke="black" d="M645,-180C645,-180 615,-180 615,-180 609,-180 603,-174 603,-168 603,-168 603,-156 603,-156 603,-150 609,-144 615,-144 615,-144 645,-144 645,-144 651,-144 657,-150 657,-156 657,-156 657,-168 657,-168 657,-174 651,-180 645,-180"/>
<text text-anchor="middle" x="630" y="-158.3" font-family="Times,serif" font-size="14.00" fill="#edddd4">1</text>
</g>
<!-- node_1187271077&#45;&gt;node_1140656704 -->
<g id="edge11" class="edge">
<title>node_1187271077&#45;&gt;node_1140656704</title>
<path fill="none" stroke="black" d="M575.8,-215.7C584.6,-207.14 595.38,-196.66 605,-187.3"/>
<polygon fill="black" stroke="black" points="607.68,-189.58 612.41,-180.1 602.8,-184.57 607.68,-189.58"/>
</g>
<!-- node_1080350665 -->
<g id="node25" class="node">
<title>node_1080350665</title>
<path fill="#c44536" stroke="black" d="M698.5,-324C698.5,-324 589.5,-324 589.5,-324 583.5,-324 577.5,-318 577.5,-312 577.5,-312 577.5,-300 577.5,-300 577.5,-294 583.5,-288 589.5,-288 589.5,-288 698.5,-288 698.5,-288 704.5,-288 710.5,-294 710.5,-300 710.5,-300 710.5,-312 710.5,-312 710.5,-318 704.5,-324 698.5,-324"/>
<text text-anchor="middle" x="644" y="-302.3" font-family="Times,serif" font-size="14.00" fill="#edddd4">я_так_чувствую</text>
</g>
<!-- node_18129527&#45;&gt;node_1080350665 -->
<g id="edge20" class="edge">
<title>node_18129527&#45;&gt;node_1080350665</title>
<path fill="none" stroke="black" d="M644,-359.7C644,-351.98 644,-342.71 644,-334.11"/>
<polygon fill="black" stroke="black" points="647.5,-334.1 644,-324.1 640.5,-334.1 647.5,-334.1"/>
</g>
<!-- node_2005734008 -->
<g id="node26" class="node">
<title>node_2005734008</title>
<path fill="#283d3b" stroke="black" d="M656,-252C656,-252 626,-252 626,-252 620,-252 614,-246 614,-240 614,-240 614,-228 614,-228 614,-222 620,-216 626,-216 626,-216 656,-216 656,-216 662,-216 668,-222 668,-228 668,-228 668,-240 668,-240 668,-246 662,-252 656,-252"/>
<text text-anchor="middle" x="641" y="-230.3" font-family="Times,serif" font-size="14.00" fill="#edddd4">n__</text>
</g>
<!-- node_1080350665&#45;&gt;node_2005734008 -->
<g id="edge18" class="edge">
<title>node_1080350665&#45;&gt;node_2005734008</title>
<path fill="none" stroke="black" d="M643.26,-287.7C642.93,-279.98 642.53,-270.71 642.16,-262.11"/>
<polygon fill="black" stroke="black" points="645.66,-261.95 641.73,-252.1 638.66,-262.25 645.66,-261.95"/>
</g>
<!-- node_1094520252 -->
<g id="node27" class="node">
<title>node_1094520252</title>
<path fill="#c44536" stroke="black" d="M728,-252C728,-252 698,-252 698,-252 692,-252 686,-246 686,-240 686,-240 686,-228 686,-228 686,-222 692,-216 698,-216 698,-216 728,-216 728,-216 734,-216 740,-222 740,-228 740,-228 740,-240 740,-240 740,-246 734,-252 728,-252"/>
<text text-anchor="middle" x="713" y="-230.3" font-family="Times,serif" font-size="14.00" fill="#edddd4">&#45;</text>
</g>
<!-- node_1080350665&#45;&gt;node_1094520252 -->
<g id="edge19" class="edge">
<title>node_1080350665&#45;&gt;node_1094520252</title>
<path fill="none" stroke="black" d="M661.06,-287.7C669.5,-279.14 679.82,-268.66 689.04,-259.3"/>
<polygon fill="black" stroke="black" points="691.61,-261.68 696.14,-252.1 686.63,-256.77 691.61,-261.68"/>
</g>
<!-- node_343808471 -->
<g id="node28" class="node">
<title>node_343808471</title>
<path fill="#283d3b" stroke="black" d="M727,-180C727,-180 697,-180 697,-180 691,-180 685,-174 685,-168 685,-168 685,-156 685,-156 685,-150 691,-144 697,-144 697,-144 727,-144 727,-144 733,-144 739,-150 739,-156 739,-156 739,-168 739,-168 739,-174 733,-180 727,-180"/>
<text text-anchor="middle" x="712" y="-158.3" font-family="Times,serif" font-size="14.00" fill="#edddd4">n</text>
</g>
<!-- node_1094520252&#45;&gt;node_343808471 -->
<g id="edge16" class="edge">
<title>node_1094520252&#45;&gt;node_343808471</title>
<path fill="none" stroke="black" d="M712.75,-215.7C712.64,-207.98 712.51,-198.71 712.39,-190.11"/>
<polygon fill="black" stroke="black" points="715.89,-190.05 712.24,-180.1 708.89,-190.15 715.89,-190.05"/>
</g>
<!-- node_806694658 -->
<g id="node29" class="node">
<title>node_806694658</title>
<path fill="#197278" stroke="black" d="M799,-180C799,-180 769,-180 769,-180 763,-180 757,-174 757,-168 757,-168 757,-156 757,-156 757,-150 763,-144 769,-144 769,-144 799,-144 799,-144 805,-144 811,-150 811,-156 811,-156 811,-168 811,-168 811,-174 805,-180 799,-180"/>
<text text-anchor="middle" x="784" y="-158.3" font-family="Times,serif" font-size="14.00" fill="#edddd4">1</text>
</g>
<!-- node_1094520252&#45;&gt;node_806694658 -->
<g id="edge17" class="edge">
<title>node_1094520252&#45;&gt;node_806694658</title>
<path fill="none" stroke="black" d="M730.55,-215.7C739.23,-207.14 749.86,-196.66 759.35,-187.3"/>
<polygon fill="black" stroke="black" points="761.99,-189.62 766.65,-180.1 757.07,-184.63 761.99,-189.62"/>
</g>
<!-- node_1162814834 -->
<g id="node31" class="node">
<title>node_1162814834</title>
<path fill="#c44536" stroke="black" d="M917.5,-396C917.5,-396 808.5,-396 808.5,-396 802.5,-396 796.5,-390 796.5,-384 796.5,-384 796.5,-372 796.5,-372 796.5,-366 802.5,-360 808.5,-360 808.5,-360 917.5,-360 917.5,-360 923.5,-360 929.5,-366 929.5,-372 929.5,-372 929.5,-384 929.5,-384 929.5,-390 923.5,-396 917.5,-396"/>
<text text-anchor="middle" x="863" y="-374.3" font-family="Times,serif" font-size="14.00" fill="#edddd4">я_так_чувствую</text>
</g>
<!-- node_1793166812&#45;&gt;node_1162814834 -->
<g id="edge29" class="edge">
<title>node_1793166812&#45;&gt;node_1162814834</title>
<path fill="none" stroke="black" d="M863,-431.7C863,-423.98 863,-414.71 863,-406.11"/>
<polygon fill="black" stroke="black" points="866.5,-406.1 863,-396.1 859.5,-406.1 866.5,-406.1"/>
</g>
<!-- node_1430287231 -->
<g id="node32" class="node">
<title>node_1430287231</title>
<path fill="#283d3b" stroke="black" d="M835,-324C835,-324 803,-324 803,-324 797,-324 791,-318 791,-312 791,-312 791,-300 791,-300 791,-294 797,-288 803,-288 803,-288 835,-288 835,-288 841,-288 847,-294 847,-300 847,-300 847,-312 847,-312 847,-318 841,-324 835,-324"/>
<text text-anchor="middle" x="819" y="-302.3" font-family="Times,serif" font-size="14.00" fill="#edddd4">ответ</text>
</g>
<!-- node_1162814834&#45;&gt;node_1430287231 -->
<g id="edge27" class="edge">
<title>node_1162814834&#45;&gt;node_1430287231</title>
<path fill="none" stroke="black" d="M852.12,-359.7C847.01,-351.56 840.8,-341.69 835.16,-332.7"/>
<polygon fill="black" stroke="black" points="838.04,-330.71 829.75,-324.1 832.11,-334.43 838.04,-330.71"/>
</g>
<!-- node_1955101617 -->
<g id="node33" class="node">
<title>node_1955101617</title>
<path fill="#c44536" stroke="black" d="M907,-324C907,-324 877,-324 877,-324 871,-324 865,-318 865,-312 865,-312 865,-300 865,-300 865,-294 871,-288 877,-288 877,-288 907,-288 907,-288 913,-288 919,-294 919,-300 919,-300 919,-312 919,-312 919,-318 913,-324 907,-324"/>
<text text-anchor="middle" x="892" y="-302.3" font-family="Times,serif" font-size="14.00" fill="#edddd4">*</text>
</g>
<!-- node_1162814834&#45;&gt;node_1955101617 -->
<g id="edge28" class="edge">
<title>node_1162814834&#45;&gt;node_1955101617</title>
<path fill="none" stroke="black" d="M870.17,-359.7C873.43,-351.81 877.37,-342.3 881,-333.55"/>
<polygon fill="black" stroke="black" points="884.32,-334.68 884.91,-324.1 877.85,-332 884.32,-334.68"/>
</g>
<!-- node_1038905310 -->
<g id="node34" class="node">
<title>node_1038905310</title>
<path fill="#283d3b" stroke="black" d="M866,-252C866,-252 836,-252 836,-252 830,-252 824,-246 824,-240 824,-240 824,-228 824,-228 824,-222 830,-216 836,-216 836,-216 866,-216 866,-216 872,-216 878,-222 878,-228 878,-228 878,-240 878,-240 878,-246 872,-252 866,-252"/>
<text text-anchor="middle" x="851" y="-230.3" font-family="Times,serif" font-size="14.00" fill="#edddd4">n</text>
</g>
<!-- node_1955101617&#45;&gt;node_1038905310 -->
<g id="edge25" class="edge">
<title>node_1955101617&#45;&gt;node_1038905310</title>
<path fill="none" stroke="black" d="M881.87,-287.7C877.15,-279.64 871.44,-269.89 866.22,-260.98"/>
<polygon fill="black" stroke="black" points="869.09,-258.96 861.02,-252.1 863.05,-262.5 869.09,-258.96"/>
</g>
<!-- node_1681391151 -->
<g id="node35" class="node">
<title>node_1681391151</title>
<path fill="#283d3b" stroke="black" d="M997.5,-252C997.5,-252 908.5,-252 908.5,-252 902.5,-252 896.5,-246 896.5,-240 896.5,-240 896.5,-228 896.5,-228 896.5,-222 902.5,-216 908.5,-216 908.5,-216 997.5,-216 997.5,-216 1003.5,-216 1009.5,-222 1009.5,-228 1009.5,-228 1009.5,-240 1009.5,-240 1009.5,-246 1003.5,-252 997.5,-252"/>
<text text-anchor="middle" x="953" y="-230.3" font-family="Times,serif" font-size="14.00" fill="#edddd4">ФАКТОРИАЛ</text>
</g>
<!-- node_1955101617&#45;&gt;node_1681391151 -->
<g id="edge26" class="edge">
<title>node_1955101617&#45;&gt;node_1681391151</title>
<path fill="none" stroke="black" d="M907.08,-287.7C914.39,-279.3 923.31,-269.07 931.34,-259.86"/>
<polygon fill="black" stroke="black" points="934.16,-261.94 938.09,-252.1 928.89,-257.34 934.16,-261.94"/>
</g>
<!-- node_1616233239 -->
<g id="node36" class="node">
<title>node_1616233239</title>
<path fill="#c45baa" stroke="black" d="M1029,-180C1029,-180 877,-180 877,-180 871,-180 865,-174 865,-168 865,-168 865,-156 865,-156 865,-150 871,-144 877,-144 877,-144 1029,-144 1029,-144 1035,-144 1041,-150 1041,-156 1041,-156 1041,-168 1041,-168 1041,-174 1035,-180 1029,-180"/>
<text text-anchor="middle" x="953" y="-158.3" font-family="Times,serif" font-size="14.00" fill="#edddd4">сомнительно_но_окей</text>
</g>
<!-- node_1681391151&#45;&gt;node_1616233239 -->
<g id="edge24" class="edge">
<title>node_1681391151&#45;&gt;node_1616233239</title>
<path fill="none" stroke="black" d="M953,-215.7C953,-207.98 953,-198.71 953,-190.11"/>
<polygon fill="black" stroke="black" points="956.5,-190.1 953,-180.1 949.5,-190.1 956.5,-190.1"/>
</g>
<!-- node_1522229326 -->
<g id="node37" class="node">
<title>node_1522229326</title>
<path fill="#283d3b" stroke="black" d="M968,-108C968,-108 938,-108 938,-108 932,-108 926,-102 926,-96 926,-96 926,-84 926,-84 926,-78 932,-72 938,-72 938,-72 968,-72 968,-72 974,-72 980,-78 980,-84 980,-84 980,-96 980,-96 980,-102 974,-108 968,-108"/>
<text text-anchor="middle" x="953" y="-86.3" font-family="Times,serif" font-size="14.00" fill="#edddd4">n__</text>
</g>
<!-- node_1616233239&#45;&gt;node_1522229326 -->
<g id="edge23" class="edge">
<title>node_1616233239&#45;&gt;node_1522229326</title>
<path fill="none" stroke="black" d="M953,-143.7C953,-135.98 953,-126.71 953,-118.11"/>
<polygon fill="black" stroke="black" points="956.5,-118.1 953,-108.1 949.5,-118.1 956.5,-118.1"/>
</g>
<!-- node_1990907260 -->
<g id="node39" class="node">
<title>node_1990907260</title>
<path fill="#283d3b" stroke="black" d="M1068,-468C1068,-468 1036,-468 1036,-468 1030,-468 1024,-462 1024,-456 1024,-456 1024,-444 1024,-444 1024,-438 1030,-432 1036,-432 1036,-432 1068,-432 1068,-432 1074,-432 1080,-438 1080,-444 1080,-444 1080,-456 1080,-456 1080,-462 1074,-468 1068,-468"/>
<text text-anchor="middle" x="1052" y="-446.3" font-family="Times,serif" font-size="14.00" fill="#edddd4">ответ</text>
</g>
<!-- node_88042469&#45;&gt;node_1990907260 -->
<g id="edge32" class="edge">
<title>node_88042469&#45;&gt;node_1990907260</title>
<path fill="none" stroke="black" d="M1052,-503.7C1052,-495.98 1052,-486.71 1052,-478.11"/>
<polygon fill="black" stroke="black" points="1055.5,-478.1 1052,-468.1 1048.5,-478.1 1055.5,-478.1"/>
</g>
<!-- node_690225819 -->
<g id="node41" class="node">
<title>node_690225819</title>
<path fill="#c45baa" stroke="black" d="M1300,-612C1300,-612 1148,-612 1148,-612 1142,-612 1136,-606 1136,-600 1136,-600 1136,-588 1136,-588 1136,-582 1142,-576 1148,-576 1148,-576 1300,-576 1300,-576 1306,-576 1312,-582 1312,-588 1312,-588 1312,-600 1312,-600 1312,-606 1306,-612 1300,-612"/>
<text text-anchor="middle" x="1224" y="-590.3" font-family="Times,serif" font-size="14.00" fill="#edddd4">сомнительно_но_окей</text>
</g>
<!-- node_1439304751&#45;&gt;node_690225819 -->
<g id="edge37" class="edge">
<title>node_1439304751&#45;&gt;node_690225819</title>
<path fill="none" stroke="black" d="M1322.2,-647.88C1304.89,-638.55 1283.28,-626.92 1264.74,-616.94"/>
<polygon fill="black" stroke="black" points="1266.39,-613.85 1255.92,-612.19 1263.07,-620.01 1266.39,-613.85"/>
</g>
<!-- node_2120030748 -->
<g id="node43" class="node">
<title>node_2120030748</title>
<path fill="#283d3b" stroke="black" d="M1431.5,-612C1431.5,-612 1342.5,-612 1342.5,-612 1336.5,-612 1330.5,-606 1330.5,-600 1330.5,-600 1330.5,-588 1330.5,-588 1330.5,-582 1336.5,-576 1342.5,-576 1342.5,-576 1431.5,-576 1431.5,-576 1437.5,-576 1443.5,-582 1443.5,-588 1443.5,-588 1443.5,-600 1443.5,-600 1443.5,-606 1437.5,-612 1431.5,-612"/>
<text text-anchor="middle" x="1387" y="-590.3" font-family="Times,serif" font-size="14.00" fill="#edddd4">ФАКТОРИАЛ</text>
</g>
<!-- node_1439304751&#45;&gt;node_2120030748 -->
<g id="edge38" class="edge">
<title>node_1439304751&#45;&gt;node_2120030748</title>
<path fill="none" stroke="black" d="M1362.16,-647.7C1365.91,-639.73 1370.45,-630.1 1374.62,-621.26"/>
<polygon fill="black" stroke="black" points="1377.84,-622.64 1378.94,-612.1 1371.51,-619.66 1377.84,-622.64"/>
</g>
<!-- node_776717767 -->
<g id="node42" class="node">
<title>node_776717767</title>
<path fill="#283d3b" stroke="black" d="M1238,-540C1238,-540 1208,-540 1208,-540 1202,-540 1196,-534 1196,-528 1196,-528 1196,-516 1196,-516 1196,-510 1202,-504 1208,-504 1208,-504 1238,-504 1238,-504 1244,-504 1250,-510 1250,-516 1250,-516 1250,-528 1250,-528 1250,-534 1244,-540 1238,-540"/>
<text text-anchor="middle" x="1223" y="-518.3" font-family="Times,serif" font-size="14.00" fill="#edddd4">n</text>
</g>
<!-- node_690225819&#45;&gt;node_776717767 -->
<g id="edge36" class="edge">
<title>node_690225819&#45;&gt;node_776717767</title>
<path fill="none" stroke="black" d="M1223.75,-575.7C1223.64,-567.98 1223.51,-558.71 1223.39,-550.11"/>
<polygon fill="black" stroke="black" points="1226.89,-550.05 1223.24,-540.1 1219.89,-550.15 1226.89,-550.05"/>
</g>
<!-- node_1843209538 -->
<g id="node45" class="node">
<title>node_1843209538</title>
<path fill="#7d387d" stroke="black" d="M1646,-756C1646,-756 1524,-756 1524,-756 1518,-756 1512,-750 1512,-744 1512,-744 1512,-732 1512,-732 1512,-726 1518,-720 1524,-720 1524,-720 1646,-720 1646,-720 1652,-720 1658,-726 1658,-732 1658,-732 1658,-744 1658,-744 1658,-750 1652,-756 1646,-756"/>
<text text-anchor="middle" x="1585" y="-734.3" font-family="Times,serif" font-size="14.00" fill="#edddd4">олег_не_торопись</text>
</g>
<!-- node_1223617064&#45;&gt;node_1843209538 -->
<g id="edge67" class="edge">
<title>node_1223617064&#45;&gt;node_1843209538</title>
<path fill="none" stroke="black" d="M1585,-791.7C1585,-783.98 1585,-774.71 1585,-766.11"/>
<polygon fill="black" stroke="black" points="1588.5,-766.1 1585,-756.1 1581.5,-766.1 1588.5,-766.1"/>
</g>
<!-- node_926877877 -->
<g id="node68" class="node">
<title>node_926877877</title>
<path fill="#c45baa" stroke="black" d="M1936,-756C1936,-756 1784,-756 1784,-756 1778,-756 1772,-750 1772,-744 1772,-744 1772,-732 1772,-732 1772,-726 1778,-720 1784,-720 1784,-720 1936,-720 1936,-720 1942,-720 1948,-726 1948,-732 1948,-732 1948,-744 1948,-744 1948,-750 1942,-756 1936,-756"/>
<text text-anchor="middle" x="1860" y="-734.3" font-family="Times,serif" font-size="14.00" fill="#edddd4">сомнительно_но_окей</text>
</g>
<!-- node_1223617064&#45;&gt;node_926877877 -->
<g id="edge68" class="edge">
<title>node_1223617064&#45;&gt;node_926877877</title>
<path fill="none" stroke="black" d="M1645.69,-793.55C1686.19,-783.24 1739.78,-769.6 1783.24,-758.54"/>
<polygon fill="black" stroke="black" points="1784.38,-761.86 1793.2,-756 1782.65,-755.08 1784.38,-761.86"/>
</g>
<!-- node_2104399059 -->
<g id="node46" class="node">
<title>node_2104399059</title>
<path fill="#c45baa" stroke="black" d="M1661,-684C1661,-684 1509,-684 1509,-684 1503,-684 1497,-678 1497,-672 1497,-672 1497,-660 1497,-660 1497,-654 1503,-648 1509,-648 1509,-648 1661,-648 1661,-648 1667,-648 1673,-654 1673,-660 1673,-660 1673,-672 1673,-672 1673,-678 1667,-684 1661,-684"/>
<text text-anchor="middle" x="1585" y="-662.3" font-family="Times,serif" font-size="14.00" fill="#edddd4">сомнительно_но_окей</text>
</g>
<!-- node_1843209538&#45;&gt;node_2104399059 -->
<g id="edge63" class="edge">
<title>node_1843209538&#45;&gt;node_2104399059</title>
<path fill="none" stroke="black" d="M1585,-719.7C1585,-711.98 1585,-702.71 1585,-694.11"/>
<polygon fill="black" stroke="black" points="1588.5,-694.1 1585,-684.1 1581.5,-694.1 1588.5,-694.1"/>
</g>
<!-- node_1635201742 -->
<g id="node47" class="node">
<title>node_1635201742</title>
<path fill="#c45baa" stroke="black" d="M1629,-612C1629,-612 1477,-612 1477,-612 1471,-612 1465,-606 1465,-600 1465,-600 1465,-588 1465,-588 1465,-582 1471,-576 1477,-576 1477,-576 1629,-576 1629,-576 1635,-576 1641,-582 1641,-588 1641,-588 1641,-600 1641,-600 1641,-606 1635,-612 1629,-612"/>
<text text-anchor="middle" x="1553" y="-590.3" font-family="Times,serif" font-size="14.00" fill="#edddd4">сомнительно_но_окей</text>
</g>
<!-- node_2104399059&#45;&gt;node_1635201742 -->
<g id="edge61" class="edge">
<title>node_2104399059&#45;&gt;node_1635201742</title>
<path fill="none" stroke="black" d="M1577.09,-647.7C1573.45,-639.73 1569.05,-630.1 1565.01,-621.26"/>
<polygon fill="black" stroke="black" points="1568.16,-619.74 1560.82,-612.1 1561.79,-622.65 1568.16,-619.74"/>
</g>
<!-- node_556238579 -->
<g id="node66" class="node">
<title>node_556238579</title>
<path fill="#000000" stroke="black" d="M1853,-612C1853,-612 1671,-612 1671,-612 1665,-612 1659,-606 1659,-600 1659,-600 1659,-588 1659,-588 1659,-582 1665,-576 1671,-576 1671,-576 1853,-576 1853,-576 1859,-576 1865,-582 1865,-588 1865,-588 1865,-600 1865,-600 1865,-606 1859,-612 1853,-612"/>
<text text-anchor="middle" x="1762" y="-590.3" font-family="Times,serif" font-size="14.00" fill="#edddd4">никто_никогда_не_вернет</text>
</g>
<!-- node_2104399059&#45;&gt;node_556238579 -->
<g id="edge62" class="edge">
<title>node_2104399059&#45;&gt;node_556238579</title>
<path fill="none" stroke="black" d="M1628.3,-647.88C1652.71,-638.22 1683.4,-626.09 1709.21,-615.88"/>
<polygon fill="black" stroke="black" points="1710.83,-619 1718.84,-612.07 1708.26,-612.49 1710.83,-619"/>
</g>
<!-- node_510123463 -->
<g id="node48" class="node">
<title>node_510123463</title>
<path fill="#c45baa" stroke="black" d="M1432,-540C1432,-540 1280,-540 1280,-540 1274,-540 1268,-534 1268,-528 1268,-528 1268,-516 1268,-516 1268,-510 1274,-504 1280,-504 1280,-504 1432,-504 1432,-504 1438,-504 1444,-510 1444,-516 1444,-516 1444,-528 1444,-528 1444,-534 1438,-540 1432,-540"/>
<text text-anchor="middle" x="1356" y="-518.3" font-family="Times,serif" font-size="14.00" fill="#edddd4">сомнительно_но_окей</text>
</g>
<!-- node_1635201742&#45;&gt;node_510123463 -->
<g id="edge58" class="edge">
<title>node_1635201742&#45;&gt;node_510123463</title>
<path fill="none" stroke="black" d="M1505.06,-575.97C1477.53,-566.19 1442.78,-553.84 1413.76,-543.52"/>
<polygon fill="black" stroke="black" points="1414.75,-540.16 1404.15,-540.11 1412.41,-546.76 1414.75,-540.16"/>
</g>
<!-- node_1739527493 -->
<g id="node60" class="node">
<title>node_1739527493</title>
<path fill="#ff8966" stroke="black" d="M1697.5,-540C1697.5,-540 1474.5,-540 1474.5,-540 1468.5,-540 1462.5,-534 1462.5,-528 1462.5,-528 1462.5,-516 1462.5,-516 1462.5,-510 1468.5,-504 1474.5,-504 1474.5,-504 1697.5,-504 1697.5,-504 1703.5,-504 1709.5,-510 1709.5,-516 1709.5,-516 1709.5,-528 1709.5,-528 1709.5,-534 1703.5,-540 1697.5,-540"/>
<text text-anchor="middle" x="1586" y="-518.3" font-family="Times,serif" font-size="14.00" fill="#edddd4">але_вам_удобно_разговаривать</text>
</g>
<!-- node_1635201742&#45;&gt;node_1739527493 -->
<g id="edge59" class="edge">
<title>node_1635201742&#45;&gt;node_1739527493</title>
<path fill="none" stroke="black" d="M1561.16,-575.7C1564.91,-567.73 1569.45,-558.1 1573.62,-549.26"/>
<polygon fill="black" stroke="black" points="1576.84,-550.64 1577.94,-540.1 1570.51,-547.66 1576.84,-550.64"/>
</g>
<!-- node_805698416 -->
<g id="node49" class="node">
<title>node_805698416</title>
<path fill="#c45baa" stroke="black" d="M1299,-468C1299,-468 1147,-468 1147,-468 1141,-468 1135,-462 1135,-456 1135,-456 1135,-444 1135,-444 1135,-438 1141,-432 1147,-432 1147,-432 1299,-432 1299,-432 1305,-432 1311,-438 1311,-444 1311,-444 1311,-456 1311,-456 1311,-462 1305,-468 1299,-468"/>
<text text-anchor="middle" x="1223" y="-446.3" font-family="Times,serif" font-size="14.00" fill="#edddd4">сомнительно_но_окей</text>
</g>
<!-- node_510123463&#45;&gt;node_805698416 -->
<g id="edge51" class="edge">
<title>node_510123463&#45;&gt;node_805698416</title>
<path fill="none" stroke="black" d="M1323.46,-503.88C1305.75,-494.55 1283.65,-482.92 1264.68,-472.94"/>
<polygon fill="black" stroke="black" points="1266.14,-469.75 1255.66,-468.19 1262.88,-475.94 1266.14,-469.75"/>
</g>
<!-- node_1074582474 -->
<g id="node54" class="node">
<title>node_1074582474</title>
<path fill="#7d387d" stroke="black" d="M1480,-468C1480,-468 1358,-468 1358,-468 1352,-468 1346,-462 1346,-456 1346,-456 1346,-444 1346,-444 1346,-438 1352,-432 1358,-432 1358,-432 1480,-432 1480,-432 1486,-432 1492,-438 1492,-444 1492,-444 1492,-456 1492,-456 1492,-462 1486,-468 1480,-468"/>
<text text-anchor="middle" x="1419" y="-446.3" font-family="Times,serif" font-size="14.00" fill="#edddd4">олег_не_торопись</text>
</g>
<!-- node_510123463&#45;&gt;node_1074582474 -->
<g id="edge52" class="edge">
<title>node_510123463&#45;&gt;node_1074582474</title>
<path fill="none" stroke="black" d="M1371.57,-503.7C1379.2,-495.22 1388.52,-484.86 1396.88,-475.58"/>
<polygon fill="black" stroke="black" points="1399.52,-477.88 1403.61,-468.1 1394.31,-473.2 1399.52,-477.88"/>
</g>
<!-- node_1116325616 -->
<g id="node50" class="node">
<title>node_1116325616</title>
<path fill="#ff8966" stroke="black" d="M1307.5,-396C1307.5,-396 1084.5,-396 1084.5,-396 1078.5,-396 1072.5,-390 1072.5,-384 1072.5,-384 1072.5,-372 1072.5,-372 1072.5,-366 1078.5,-360 1084.5,-360 1084.5,-360 1307.5,-360 1307.5,-360 1313.5,-360 1319.5,-366 1319.5,-372 1319.5,-372 1319.5,-384 1319.5,-384 1319.5,-390 1313.5,-396 1307.5,-396"/>
<text text-anchor="middle" x="1196" y="-374.3" font-family="Times,serif" font-size="14.00" fill="#edddd4">але_вам_удобно_разговаривать</text>
</g>
<!-- node_805698416&#45;&gt;node_1116325616 -->
<g id="edge45" class="edge">
<title>node_805698416&#45;&gt;node_1116325616</title>
<path fill="none" stroke="black" d="M1216.33,-431.7C1213.29,-423.81 1209.62,-414.3 1206.24,-405.55"/>
<polygon fill="black" stroke="black" points="1209.46,-404.17 1202.6,-396.1 1202.93,-406.69 1209.46,-404.17"/>
</g>
<!-- node_2081409418 -->
<g id="node51" class="node">
<title>node_2081409418</title>
<path fill="#c44536" stroke="black" d="M1250.5,-324C1250.5,-324 1141.5,-324 1141.5,-324 1135.5,-324 1129.5,-318 1129.5,-312 1129.5,-312 1129.5,-300 1129.5,-300 1129.5,-294 1135.5,-288 1141.5,-288 1141.5,-288 1250.5,-288 1250.5,-288 1256.5,-288 1262.5,-294 1262.5,-300 1262.5,-300 1262.5,-312 1262.5,-312 1262.5,-318 1256.5,-324 1250.5,-324"/>
<text text-anchor="middle" x="1196" y="-302.3" font-family="Times,serif" font-size="14.00" fill="#edddd4">я_так_чувствую</text>
</g>
<!-- node_1116325616&#45;&gt;node_2081409418 -->
<g id="edge44" class="edge">
<title>node_1116325616&#45;&gt;node_2081409418</title>
<path fill="none" stroke="black" d="M1196,-359.7C1196,-351.98 1196,-342.71 1196,-334.11"/>
<polygon fill="black" stroke="black" points="1199.5,-334.1 1196,-324.1 1192.5,-334.1 1199.5,-334.1"/>
</g>
<!-- node_1992969494 -->
<g id="node52" class="node">
<title>node_1992969494</title>
<path fill="#283d3b" stroke="black" d="M1175,-252C1175,-252 1145,-252 1145,-252 1139,-252 1133,-246 1133,-240 1133,-240 1133,-228 1133,-228 1133,-222 1139,-216 1145,-216 1145,-216 1175,-216 1175,-216 1181,-216 1187,-222 1187,-228 1187,-228 1187,-240 1187,-240 1187,-246 1181,-252 1175,-252"/>
<text text-anchor="middle" x="1160" y="-230.3" font-family="Times,serif" font-size="14.00" fill="#edddd4">N</text>
</g>
<!-- node_2081409418&#45;&gt;node_1992969494 -->
<g id="edge42" class="edge">
<title>node_2081409418&#45;&gt;node_1992969494</title>
<path fill="none" stroke="black" d="M1187.1,-287.7C1183,-279.73 1178.05,-270.1 1173.51,-261.26"/>
<polygon fill="black" stroke="black" points="1176.48,-259.4 1168.8,-252.1 1170.26,-262.6 1176.48,-259.4"/>
</g>
<!-- node_73736565 -->
<g id="node53" class="node">
<title>node_73736565</title>
<path fill="#197278" stroke="black" d="M1247,-252C1247,-252 1217,-252 1217,-252 1211,-252 1205,-246 1205,-240 1205,-240 1205,-228 1205,-228 1205,-222 1211,-216 1217,-216 1217,-216 1247,-216 1247,-216 1253,-216 1259,-222 1259,-228 1259,-228 1259,-240 1259,-240 1259,-246 1253,-252 1247,-252"/>
<text text-anchor="middle" x="1232" y="-230.3" font-family="Times,serif" font-size="14.00" fill="#edddd4">5</text>
</g>
<!-- node_2081409418&#45;&gt;node_73736565 -->
<g id="edge43" class="edge">
<title>node_2081409418&#45;&gt;node_73736565</title>
<path fill="none" stroke="black" d="M1204.9,-287.7C1209,-279.73 1213.95,-270.1 1218.49,-261.26"/>
<polygon fill="black" stroke="black" points="1221.74,-262.6 1223.2,-252.1 1215.52,-259.4 1221.74,-262.6"/>
</g>
<!-- node_2011099021 -->
<g id="node55" class="node">
<title>node_2011099021</title>
<path fill="#c45baa" stroke="black" d="M1502,-396C1502,-396 1350,-396 1350,-396 1344,-396 1338,-390 1338,-384 1338,-384 1338,-372 1338,-372 1338,-366 1344,-360 1350,-360 1350,-360 1502,-360 1502,-360 1508,-360 1514,-366 1514,-372 1514,-372 1514,-384 1514,-384 1514,-390 1508,-396 1502,-396"/>
<text text-anchor="middle" x="1426" y="-374.3" font-family="Times,serif" font-size="14.00" fill="#edddd4">сомнительно_но_окей</text>
</g>
<!-- node_1074582474&#45;&gt;node_2011099021 -->
<g id="edge50" class="edge">
<title>node_1074582474&#45;&gt;node_2011099021</title>
<path fill="none" stroke="black" d="M1420.73,-431.7C1421.5,-423.98 1422.43,-414.71 1423.29,-406.11"/>
<polygon fill="black" stroke="black" points="1426.78,-406.4 1424.29,-396.1 1419.81,-405.71 1426.78,-406.4"/>
</g>
<!-- node_1154087230 -->
<g id="node56" class="node">
<title>node_1154087230</title>
<path fill="#ff8966" stroke="black" d="M1537.5,-324C1537.5,-324 1314.5,-324 1314.5,-324 1308.5,-324 1302.5,-318 1302.5,-312 1302.5,-312 1302.5,-300 1302.5,-300 1302.5,-294 1308.5,-288 1314.5,-288 1314.5,-288 1537.5,-288 1537.5,-288 1543.5,-288 1549.5,-294 1549.5,-300 1549.5,-300 1549.5,-312 1549.5,-312 1549.5,-318 1543.5,-324 1537.5,-324"/>
<text text-anchor="middle" x="1426" y="-302.3" font-family="Times,serif" font-size="14.00" fill="#edddd4">але_вам_удобно_разговаривать</text>
</g>
<!-- node_2011099021&#45;&gt;node_1154087230 -->
<g id="edge49" class="edge">
<title>node_2011099021&#45;&gt;node_1154087230</title>
<path fill="none" stroke="black" d="M1426,-359.7C1426,-351.98 1426,-342.71 1426,-334.11"/>
<polygon fill="black" stroke="black" points="1429.5,-334.1 1426,-324.1 1422.5,-334.1 1429.5,-334.1"/>
</g>
<!-- node_932832835 -->
<g id="node57" class="node">
<title>node_932832835</title>
<path fill="#c44536" stroke="black" d="M1480.5,-252C1480.5,-252 1371.5,-252 1371.5,-252 1365.5,-252 1359.5,-246 1359.5,-240 1359.5,-240 1359.5,-228 1359.5,-228 1359.5,-222 1365.5,-216 1371.5,-216 1371.5,-216 1480.5,-216 1480.5,-216 1486.5,-216 1492.5,-222 1492.5,-228 1492.5,-228 1492.5,-240 1492.5,-240 1492.5,-246 1486.5,-252 1480.5,-252"/>
<text text-anchor="middle" x="1426" y="-230.3" font-family="Times,serif" font-size="14.00" fill="#edddd4">я_так_чувствую</text>
</g>
<!-- node_1154087230&#45;&gt;node_932832835 -->
<g id="edge48" class="edge">
<title>node_1154087230&#45;&gt;node_932832835</title>
<path fill="none" stroke="black" d="M1426,-287.7C1426,-279.98 1426,-270.71 1426,-262.11"/>
<polygon fill="black" stroke="black" points="1429.5,-262.1 1426,-252.1 1422.5,-262.1 1429.5,-262.1"/>
</g>
<!-- node_958135626 -->
<g id="node58" class="node">
<title>node_958135626</title>
<path fill="#283d3b" stroke="black" d="M1405,-180C1405,-180 1375,-180 1375,-180 1369,-180 1363,-174 1363,-168 1363,-168 1363,-156 1363,-156 1363,-150 1369,-144 1375,-144 1375,-144 1405,-144 1405,-144 1411,-144 1417,-150 1417,-156 1417,-156 1417,-168 1417,-168 1417,-174 1411,-180 1405,-180"/>
<text text-anchor="middle" x="1390" y="-158.3" font-family="Times,serif" font-size="14.00" fill="#edddd4">ZV</text>
</g>
<!-- node_932832835&#45;&gt;node_958135626 -->
<g id="edge46" class="edge">
<title>node_932832835&#45;&gt;node_958135626</title>
<path fill="none" stroke="black" d="M1417.1,-215.7C1413,-207.73 1408.05,-198.1 1403.51,-189.26"/>
<polygon fill="black" stroke="black" points="1406.48,-187.4 1398.8,-180.1 1400.26,-190.6 1406.48,-187.4"/>
</g>
<!-- node_1497895702 -->
<g id="node59" class="node">
<title>node_1497895702</title>
<path fill="#197278" stroke="black" d="M1477,-180C1477,-180 1447,-180 1447,-180 1441,-180 1435,-174 1435,-168 1435,-168 1435,-156 1435,-156 1435,-150 1441,-144 1447,-144 1447,-144 1477,-144 1477,-144 1483,-144 1489,-150 1489,-156 1489,-156 1489,-168 1489,-168 1489,-174 1483,-180 1477,-180"/>
<text text-anchor="middle" x="1462" y="-158.3" font-family="Times,serif" font-size="14.00" fill="#edddd4">1488</text>
</g>
<!-- node_932832835&#45;&gt;node_1497895702 -->
<g id="edge47" class="edge">
<title>node_932832835&#45;&gt;node_1497895702</title>
<path fill="none" stroke="black" d="M1434.9,-215.7C1439,-207.73 1443.95,-198.1 1448.49,-189.26"/>
<polygon fill="black" stroke="black" points="1451.74,-190.6 1453.2,-180.1 1445.52,-187.4 1451.74,-190.6"/>
</g>
<!-- node_603818790 -->
<g id="node61" class="node">
<title>node_603818790</title>
<path fill="#c44536" stroke="black" d="M1640.5,-468C1640.5,-468 1531.5,-468 1531.5,-468 1525.5,-468 1519.5,-462 1519.5,-456 1519.5,-456 1519.5,-444 1519.5,-444 1519.5,-438 1525.5,-432 1531.5,-432 1531.5,-432 1640.5,-432 1640.5,-432 1646.5,-432 1652.5,-438 1652.5,-444 1652.5,-444 1652.5,-456 1652.5,-456 1652.5,-462 1646.5,-468 1640.5,-468"/>
<text text-anchor="middle" x="1586" y="-446.3" font-family="Times,serif" font-size="14.00" fill="#edddd4">я_так_чувствую</text>
</g>
<!-- node_1739527493&#45;&gt;node_603818790 -->
<g id="edge57" class="edge">
<title>node_1739527493&#45;&gt;node_603818790</title>
<path fill="none" stroke="black" d="M1586,-503.7C1586,-495.98 1586,-486.71 1586,-478.11"/>
<polygon fill="black" stroke="black" points="1589.5,-478.1 1586,-468.1 1582.5,-478.1 1589.5,-478.1"/>
</g>
<!-- node_513226888 -->
<g id="node62" class="node">
<title>node_513226888</title>
<path fill="#283d3b" stroke="black" d="M1604,-396C1604,-396 1556,-396 1556,-396 1550,-396 1544,-390 1544,-384 1544,-384 1544,-372 1544,-372 1544,-366 1550,-360 1556,-360 1556,-360 1604,-360 1604,-360 1610,-360 1616,-366 1616,-372 1616,-372 1616,-384 1616,-384 1616,-390 1610,-396 1604,-396"/>
<text text-anchor="middle" x="1580" y="-374.3" font-family="Times,serif" font-size="14.00" fill="#edddd4">ответ_1</text>
</g>
<!-- node_603818790&#45;&gt;node_513226888 -->
<g id="edge55" class="edge">
<title>node_603818790&#45;&gt;node_513226888</title>
<path fill="none" stroke="black" d="M1584.52,-431.7C1583.86,-423.98 1583.06,-414.71 1582.32,-406.11"/>
<polygon fill="black" stroke="black" points="1585.81,-405.77 1581.47,-396.1 1578.83,-406.37 1585.81,-405.77"/>
</g>
<!-- node_1022331076 -->
<g id="node63" class="node">
<title>node_1022331076</title>
<path fill="#283d3b" stroke="black" d="M1735.5,-396C1735.5,-396 1646.5,-396 1646.5,-396 1640.5,-396 1634.5,-390 1634.5,-384 1634.5,-384 1634.5,-372 1634.5,-372 1634.5,-366 1640.5,-360 1646.5,-360 1646.5,-360 1735.5,-360 1735.5,-360 1741.5,-360 1747.5,-366 1747.5,-372 1747.5,-372 1747.5,-384 1747.5,-384 1747.5,-390 1741.5,-396 1735.5,-396"/>
<text text-anchor="middle" x="1691" y="-374.3" font-family="Times,serif" font-size="14.00" fill="#edddd4">ФАКТОРИАЛ</text>
</g>
<!-- node_603818790&#45;&gt;node_1022331076 -->
<g id="edge56" class="edge">
<title>node_603818790&#45;&gt;node_1022331076</title>
<path fill="none" stroke="black" d="M1611.69,-431.88C1625.29,-422.81 1642.17,-411.55 1656.86,-401.76"/>
<polygon fill="black" stroke="black" points="1658.84,-404.65 1665.22,-396.19 1654.95,-398.82 1658.84,-404.65"/>
</g>
<!-- node_411436759 -->
<g id="node64" class="node">
<title>node_411436759</title>
<path fill="#c45baa" stroke="black" d="M1767,-324C1767,-324 1615,-324 1615,-324 1609,-324 1603,-318 1603,-312 1603,-312 1603,-300 1603,-300 1603,-294 1609,-288 1615,-288 1615,-288 1767,-288 1767,-288 1773,-288 1779,-294 1779,-300 1779,-300 1779,-312 1779,-312 1779,-318 1773,-324 1767,-324"/>
<text text-anchor="middle" x="1691" y="-302.3" font-family="Times,serif" font-size="14.00" fill="#edddd4">сомнительно_но_окей</text>
</g>
<!-- node_1022331076&#45;&gt;node_411436759 -->
<g id="edge54" class="edge">
<title>node_1022331076&#45;&gt;node_411436759</title>
<path fill="none" stroke="black" d="M1691,-359.7C1691,-351.98 1691,-342.71 1691,-334.11"/>
<polygon fill="black" stroke="black" points="1694.5,-334.1 1691,-324.1 1687.5,-334.1 1694.5,-334.1"/>
</g>
<!-- node_1552132198 -->
<g id="node65" class="node">
<title>node_1552132198</title>
<path fill="#283d3b" stroke="black" d="M1706,-252C1706,-252 1676,-252 1676,-252 1670,-252 1664,-246 1664,-240 1664,-240 1664,-228 1664,-228 1664,-222 1670,-216 1676,-216 1676,-216 1706,-216 1706,-216 1712,-216 1718,-222 1718,-228 1718,-228 1718,-240 1718,-240 1718,-246 1712,-252 1706,-252"/>
<text text-anchor="middle" x="1691" y="-230.3" font-family="Times,serif" font-size="14.00" fill="#edddd4">N</text>
</g>
<!-- node_411436759&#45;&gt;node_1552132198 -->
<g id="edge53" class="edge">
<title>node_411436759&#45;&gt;node_1552132198</title>
<path fill="none" stroke="black" d="M1691,-287.7C1691,-279.98 1691,-270.71 1691,-262.11"/>
<polygon fill="black" stroke="black" points="1694.5,-262.1 1691,-252.1 1687.5,-262.1 1694.5,-262.1"/>
</g>
<!-- node_2027669998 -->
<g id="node67" class="node">
<title>node_2027669998</title>
<path fill="#283d3b" stroke="black" d="M1788,-540C1788,-540 1740,-540 1740,-540 1734,-540 1728,-534 1728,-528 1728,-528 1728,-516 1728,-516 1728,-510 1734,-504 1740,-504 1740,-504 1788,-504 1788,-504 1794,-504 1800,-510 1800,-516 1800,-516 1800,-528 1800,-528 1800,-534 1794,-540 1788,-540"/>
<text text-anchor="middle" x="1764" y="-518.3" font-family="Times,serif" font-size="14.00" fill="#edddd4">ответ_1</text>
</g>
<!-- node_556238579&#45;&gt;node_2027669998 -->
<g id="edge60" class="edge">
<title>node_556238579&#45;&gt;node_2027669998</title>
<path fill="none" stroke="black" d="M1762.49,-575.7C1762.71,-567.98 1762.98,-558.71 1763.23,-550.11"/>
<polygon fill="black" stroke="black" points="1766.72,-550.2 1763.51,-540.1 1759.73,-550 1766.72,-550.2"/>
</g>
<!-- node_644281048 -->
<g id="node69" class="node">
<title>node_644281048</title>
<path fill="#c45baa" stroke="black" d="M1936,-684C1936,-684 1784,-684 1784,-684 1778,-684 1772,-678 1772,-672 1772,-672 1772,-660 1772,-660 1772,-654 1778,-648 1784,-648 1784,-648 1936,-648 1936,-648 1942,-648 1948,-654 1948,-660 1948,-660 1948,-672 1948,-672 1948,-678 1942,-684 1936,-684"/>
<text text-anchor="middle" x="1860" y="-662.3" font-family="Times,serif" font-size="14.00" fill="#edddd4">сомнительно_но_окей</text>
</g>
<!-- node_926877877&#45;&gt;node_644281048 -->
<g id="edge65" class="edge">
<title>node_926877877&#45;&gt;node_644281048</title>
<path fill="none" stroke="black" d="M1860,-719.7C1860,-711.98 1860,-702.71 1860,-694.11"/>
<polygon fill="black" stroke="black" points="1863.5,-694.1 1860,-684.1 1856.5,-694.1 1863.5,-694.1"/>
</g>
<!-- node_218698980 -->
<g id="node71" class="node">
<title>node_218698980</title>
<path fill="#283d3b" stroke="black" d="M2013.5,-684C2013.5,-684 1978.5,-684 1978.5,-684 1972.5,-684 1966.5,-678 1966.5,-672 1966.5,-672 1966.5,-660 1966.5,-660 1966.5,-654 1972.5,-648 1978.5,-648 1978.5,-648 2013.5,-648 2013.5,-648 2019.5,-648 2025.5,-654 2025.5,-660 2025.5,-660 2025.5,-672 2025.5,-672 2025.5,-678 2019.5,-684 2013.5,-684"/>
<text text-anchor="middle" x="1996" y="-662.3" font-family="Times,serif" font-size="14.00" fill="#edddd4">ЦАРЬ</text>
</g>
<!-- node_926877877&#45;&gt;node_218698980 -->
<g id="edge66" class="edge">
<title>node_926877877&#45;&gt;node_218698980</title>
<path fill="none" stroke="black" d="M1893.27,-719.88C1912.64,-709.91 1937.14,-697.29 1957.36,-686.89"/>
<polygon fill="black" stroke="black" points="1959.02,-689.97 1966.31,-682.28 1955.82,-683.74 1959.02,-689.97"/>
</g>
<!-- node_1871093610 -->
<g id="node70" class="node">
<title>node_1871093610</title>
<path fill="#283d3b" stroke="black" d="M1925,-612C1925,-612 1895,-612 1895,-612 1889,-612 1883,-606 1883,-600 1883,-600 1883,-588 1883,-588 1883,-582 1889,-576 1895,-576 1895,-576 1925,-576 1925,-576 1931,-576 1937,-582 1937,-588 1937,-588 1937,-600 1937,-600 1937,-606 1931,-612 1925,-612"/>
<text text-anchor="middle" x="1910" y="-590.3" font-family="Times,serif" font-size="14.00" fill="#edddd4">x</text>
</g>
<!-- node_644281048&#45;&gt;node_1871093610 -->
<g id="edge64" class="edge">
<title>node_644281048&#45;&gt;node_1871093610</title>
<path fill="none" stroke="black" d="M1872.36,-647.7C1878.23,-639.47 1885.37,-629.48 1891.84,-620.42"/>
<polygon fill="black" stroke="black" points="1894.82,-622.28 1897.78,-612.1 1889.12,-618.21 1894.82,-622.28"/>
</g>
</g>
</svg>
