<?xml version="1.0" encoding="UTF-8" standalone="no"?>
<!DOCTYPE svg PUBLIC "-//W3C//DTD SVG 1.1//EN"
 "http://www.w3.org/Graphics/SVG/1.1/DTD/svg11.dtd">
<!-- Generated by graphviz version 2.43.0 (0)
 -->
<!-- Title: TREE Pages: 1 -->
<svg width="2032pt" height="908pt"
 viewBox="0.00 0.00 2031.50 908.00" xmlns="http://www.w3.org/2000/svg" xmlns:xlink="http://www.w3.org/1999/xlink">
<g id="graph0" class="graph" transform="scale(1 1) rotate(0) translate(4 904)">
<title>TREE</title>
<polygon fill="#edddd4" stroke="transparent" points="-4,4 -4,-904 2027.5,-904 2027.5,4 -4,4"/>
<!-- node_1543797114 -->
<g id="node1" class="node">
<title>node_1543797114</title>
<path fill="#c45baa" stroke="black" d="M1562,-900C1562,-900 1410,-900 1410,-900 1404,-900 1398,-894 1398,-888 1398,-888 1398,-876 1398,-876 1398,-870 1404,-864 1410,-864 1410,-864 1562,-864 1562,-864 1568,-864 1574,-870 1574,-876 1574,-876 1574,-888 1574,-888 1574,-894 1568,-900 1562,-900"/>
<text text-anchor="middle" x="1486" y="-878.3" font-family="Times,serif" font-size="14.00" fill="#edddd4">сомнительно_но_окей</text>
</g>
<!-- node_951099552 -->
<g id="node2" class="node">
<title>node_951099552</title>
<path fill="#c45baa" stroke="black" d="M1479,-828C1479,-828 1327,-828 1327,-828 1321,-828 1315,-822 1315,-816 1315,-816 1315,-804 1315,-804 1315,-798 1321,-792 1327,-792 1327,-792 1479,-792 1479,-792 1485,-792 1491,-798 1491,-804 1491,-804 1491,-816 1491,-816 1491,-822 1485,-828 1479,-828"/>
<text text-anchor="middle" x="1403" y="-806.3" font-family="Times,serif" font-size="14.00" fill="#edddd4">сомнительно_но_окей</text>
</g>
<!-- node_1543797114&#45;&gt;node_951099552 -->
<g id="edge69" class="edge">
<title>node_1543797114&#45;&gt;node_951099552</title>
<path fill="none" stroke="black" d="M1465.48,-863.7C1455.13,-854.97 1442.41,-844.24 1431.16,-834.75"/>
<polygon fill="black" stroke="black" points="1433.18,-831.88 1423.28,-828.1 1428.67,-837.23 1433.18,-831.88"/>
</g>
<!-- node_922252567 -->
<g id="node44" class="node">
<title>node_922252567</title>
<path fill="#7d387d" stroke="black" d="M1631.5,-828C1631.5,-828 1534.5,-828 1534.5,-828 1528.5,-828 1522.5,-822 1522.5,-816 1522.5,-816 1522.5,-804 1522.5,-804 1522.5,-798 1528.5,-792 1534.5,-792 1534.5,-792 1631.5,-792 1631.5,-792 1637.5,-792 1643.5,-798 1643.5,-804 1643.5,-804 1643.5,-816 1643.5,-816 1643.5,-822 1637.5,-828 1631.5,-828"/>
<text text-anchor="middle" x="1583" y="-806.3" font-family="Times,serif" font-size="14.00" fill="#edddd4">россии_нужен</text>
</g>
<!-- node_1543797114&#45;&gt;node_922252567 -->
<g id="edge70" class="edge">
<title>node_1543797114&#45;&gt;node_922252567</title>
<path fill="none" stroke="black" d="M1509.98,-863.7C1522.31,-854.8 1537.52,-843.82 1550.85,-834.2"/>
<polygon fill="black" stroke="black" points="1553.24,-836.79 1559.3,-828.1 1549.14,-831.12 1553.24,-836.79"/>
</g>
<!-- node_2134116442 -->
<g id="node3" class="node">
<title>node_2134116442</title>
<path fill="#7d387d" stroke="black" d="M1400.5,-756C1400.5,-756 1303.5,-756 1303.5,-756 1297.5,-756 1291.5,-750 1291.5,-744 1291.5,-744 1291.5,-732 1291.5,-732 1291.5,-726 1297.5,-720 1303.5,-720 1303.5,-720 1400.5,-720 1400.5,-720 1406.5,-720 1412.5,-726 1412.5,-732 1412.5,-732 1412.5,-744 1412.5,-744 1412.5,-750 1406.5,-756 1400.5,-756"/>
<text text-anchor="middle" x="1352" y="-734.3" font-family="Times,serif" font-size="14.00" fill="#edddd4">россии_нужен</text>
</g>
<!-- node_951099552&#45;&gt;node_2134116442 -->
<g id="edge41" class="edge">
<title>node_951099552&#45;&gt;node_2134116442</title>
<path fill="none" stroke="black" d="M1390.39,-791.7C1384.4,-783.47 1377.12,-773.48 1370.52,-764.42"/>
<polygon fill="black" stroke="black" points="1373.18,-762.13 1364.46,-756.1 1367.52,-766.25 1373.18,-762.13"/>
</g>
<!-- node_1477986071 -->
<g id="node4" class="node">
<title>node_1477986071</title>
<path fill="#7d387d" stroke="black" d="M1161,-684C1161,-684 1039,-684 1039,-684 1033,-684 1027,-678 1027,-672 1027,-672 1027,-660 1027,-660 1027,-654 1033,-648 1039,-648 1039,-648 1161,-648 1161,-648 1167,-648 1173,-654 1173,-660 1173,-660 1173,-672 1173,-672 1173,-678 1167,-684 1161,-684"/>
<text text-anchor="middle" x="1100" y="-662.3" font-family="Times,serif" font-size="14.00" fill="#edddd4">олег_не_торопись</text>
</g>
<!-- node_2134116442&#45;&gt;node_1477986071 -->
<g id="edge39" class="edge">
<title>node_2134116442&#45;&gt;node_1477986071</title>
<path fill="none" stroke="black" d="M1291.32,-720.14C1255.22,-710.12 1209.24,-697.34 1171.4,-686.83"/>
<polygon fill="black" stroke="black" points="1172.04,-683.38 1161.47,-684.07 1170.16,-690.12 1172.04,-683.38"/>
</g>
<!-- node_496583151 -->
<g id="node40" class="node">
<title>node_496583151</title>
<path fill="#c45baa" stroke="black" d="M1428,-684C1428,-684 1276,-684 1276,-684 1270,-684 1264,-678 1264,-672 1264,-672 1264,-660 1264,-660 1264,-654 1270,-648 1276,-648 1276,-648 1428,-648 1428,-648 1434,-648 1440,-654 1440,-660 1440,-660 1440,-672 1440,-672 1440,-678 1434,-684 1428,-684"/>
<text text-anchor="middle" x="1352" y="-662.3" font-family="Times,serif" font-size="14.00" fill="#edddd4">сомнительно_но_окей</text>
</g>
<!-- node_2134116442&#45;&gt;node_496583151 -->
<g id="edge40" class="edge">
<title>node_2134116442&#45;&gt;node_496583151</title>
<path fill="none" stroke="black" d="M1352,-719.7C1352,-711.98 1352,-702.71 1352,-694.11"/>
<polygon fill="black" stroke="black" points="1355.5,-694.1 1352,-684.1 1348.5,-694.1 1355.5,-694.1"/>
</g>
<!-- node_1151146158 -->
<g id="node5" class="node">
<title>node_1151146158</title>
<path fill="#c45baa" stroke="black" d="M1105,-612C1105,-612 953,-612 953,-612 947,-612 941,-606 941,-600 941,-600 941,-588 941,-588 941,-582 947,-576 953,-576 953,-576 1105,-576 1105,-576 1111,-576 1117,-582 1117,-588 1117,-588 1117,-600 1117,-600 1117,-606 1111,-612 1105,-612"/>
<text text-anchor="middle" x="1029" y="-590.3" font-family="Times,serif" font-size="14.00" fill="#edddd4">сомнительно_но_окей</text>
</g>
<!-- node_1477986071&#45;&gt;node_1151146158 -->
<g id="edge35" class="edge">
<title>node_1477986071&#45;&gt;node_1151146158</title>
<path fill="none" stroke="black" d="M1082.45,-647.7C1073.77,-639.14 1063.14,-628.66 1053.65,-619.3"/>
<polygon fill="black" stroke="black" points="1055.93,-616.63 1046.35,-612.1 1051.01,-621.62 1055.93,-616.63"/>
</g>
<!-- node_1844193783 -->
<g id="node6" class="node">
<title>node_1844193783</title>
<path fill="#c45baa" stroke="black" d="M919,-540C919,-540 767,-540 767,-540 761,-540 755,-534 755,-528 755,-528 755,-516 755,-516 755,-510 761,-504 767,-504 767,-504 919,-504 919,-504 925,-504 931,-510 931,-516 931,-516 931,-528 931,-528 931,-534 925,-540 919,-540"/>
<text text-anchor="middle" x="843" y="-518.3" font-family="Times,serif" font-size="14.00" fill="#edddd4">сомнительно_но_окей</text>
</g>
<!-- node_1151146158&#45;&gt;node_1844193783 -->
<g id="edge33" class="edge">
<title>node_1151146158&#45;&gt;node_1844193783</title>
<path fill="none" stroke="black" d="M983.5,-575.88C957.62,-566.14 925.03,-553.87 897.76,-543.61"/>
<polygon fill="black" stroke="black" points="898.94,-540.31 888.35,-540.07 896.48,-546.87 898.94,-540.31"/>
</g>
<!-- node_1339493005 -->
<g id="node38" class="node">
<title>node_1339493005</title>
<path fill="#000000" stroke="black" d="M1143,-540C1143,-540 961,-540 961,-540 955,-540 949,-534 949,-528 949,-528 949,-516 949,-516 949,-510 955,-504 961,-504 961,-504 1143,-504 1143,-504 1149,-504 1155,-510 1155,-516 1155,-516 1155,-528 1155,-528 1155,-534 1149,-540 1143,-540"/>
<text text-anchor="middle" x="1052" y="-518.3" font-family="Times,serif" font-size="14.00" fill="#edddd4">никто_никогда_не_вернет</text>
</g>
<!-- node_1151146158&#45;&gt;node_1339493005 -->
<g id="edge34" class="edge">
<title>node_1151146158&#45;&gt;node_1339493005</title>
<path fill="none" stroke="black" d="M1034.69,-575.7C1037.25,-567.9 1040.33,-558.51 1043.18,-549.83"/>
<polygon fill="black" stroke="black" points="1046.58,-550.7 1046.38,-540.1 1039.93,-548.51 1046.58,-550.7"/>
</g>
<!-- node_81174876 -->
<g id="node7" class="node">
<title>node_81174876</title>
<path fill="#c45baa" stroke="black" d="M709,-468C709,-468 557,-468 557,-468 551,-468 545,-462 545,-456 545,-456 545,-444 545,-444 545,-438 551,-432 557,-432 557,-432 709,-432 709,-432 715,-432 721,-438 721,-444 721,-444 721,-456 721,-456 721,-462 715,-468 709,-468"/>
<text text-anchor="middle" x="633" y="-446.3" font-family="Times,serif" font-size="14.00" fill="#edddd4">сомнительно_но_окей</text>
</g>
<!-- node_1844193783&#45;&gt;node_81174876 -->
<g id="edge30" class="edge">
<title>node_1844193783&#45;&gt;node_81174876</title>
<path fill="none" stroke="black" d="M791.9,-503.97C762.43,-494.14 725.19,-481.73 694.17,-471.39"/>
<polygon fill="black" stroke="black" points="694.93,-467.95 684.33,-468.11 692.71,-474.59 694.93,-467.95"/>
</g>
<!-- node_553859496 -->
<g id="node30" class="node">
<title>node_553859496</title>
<path fill="#ff8966" stroke="black" d="M974.5,-468C974.5,-468 751.5,-468 751.5,-468 745.5,-468 739.5,-462 739.5,-456 739.5,-456 739.5,-444 739.5,-444 739.5,-438 745.5,-432 751.5,-432 751.5,-432 974.5,-432 974.5,-432 980.5,-432 986.5,-438 986.5,-444 986.5,-444 986.5,-456 986.5,-456 986.5,-462 980.5,-468 974.5,-468"/>
<text text-anchor="middle" x="863" y="-446.3" font-family="Times,serif" font-size="14.00" fill="#edddd4">але_вам_удобно_разговаривать</text>
</g>
<!-- node_1844193783&#45;&gt;node_553859496 -->
<g id="edge31" class="edge">
<title>node_1844193783&#45;&gt;node_553859496</title>
<path fill="none" stroke="black" d="M847.94,-503.7C850.17,-495.9 852.85,-486.51 855.33,-477.83"/>
<polygon fill="black" stroke="black" points="858.73,-478.68 858.11,-468.1 852,-476.76 858.73,-478.68"/>
</g>
<!-- node_326836500 -->
<g id="node8" class="node">
<title>node_326836500</title>
<path fill="#c45baa" stroke="black" d="M490,-396C490,-396 338,-396 338,-396 332,-396 326,-390 326,-384 326,-384 326,-372 326,-372 326,-366 332,-360 338,-360 338,-360 490,-360 490,-360 496,-360 502,-366 502,-372 502,-372 502,-384 502,-384 502,-390 496,-396 490,-396"/>
<text text-anchor="middle" x="414" y="-374.3" font-family="Times,serif" font-size="14.00" fill="#edddd4">сомнительно_но_окей</text>
</g>
<!-- node_81174876&#45;&gt;node_326836500 -->
<g id="edge21" class="edge">
<title>node_81174876&#45;&gt;node_326836500</title>
<path fill="none" stroke="black" d="M579.71,-431.97C548.84,-422.1 509.8,-409.62 477.37,-399.25"/>
<polygon fill="black" stroke="black" points="478.12,-395.82 467.53,-396.11 475.99,-402.49 478.12,-395.82"/>
</g>
<!-- node_1555307191 -->
<g id="node24" class="node">
<title>node_1555307191</title>
<path fill="#ff8966" stroke="black" d="M755.5,-396C755.5,-396 532.5,-396 532.5,-396 526.5,-396 520.5,-390 520.5,-384 520.5,-384 520.5,-372 520.5,-372 520.5,-366 526.5,-360 532.5,-360 532.5,-360 755.5,-360 755.5,-360 761.5,-360 767.5,-366 767.5,-372 767.5,-372 767.5,-384 767.5,-384 767.5,-390 761.5,-396 755.5,-396"/>
<text text-anchor="middle" x="644" y="-374.3" font-family="Times,serif" font-size="14.00" fill="#edddd4">але_вам_удобно_разговаривать</text>
</g>
<!-- node_81174876&#45;&gt;node_1555307191 -->
<g id="edge22" class="edge">
<title>node_81174876&#45;&gt;node_1555307191</title>
<path fill="none" stroke="black" d="M635.72,-431.7C636.93,-423.98 638.39,-414.71 639.74,-406.11"/>
<polygon fill="black" stroke="black" points="643.22,-406.53 641.31,-396.1 636.3,-405.44 643.22,-406.53"/>
</g>
<!-- node_759405495 -->
<g id="node9" class="node">
<title>node_759405495</title>
<path fill="#c45baa" stroke="black" d="M322,-324C322,-324 170,-324 170,-324 164,-324 158,-318 158,-312 158,-312 158,-300 158,-300 158,-294 164,-288 170,-288 170,-288 322,-288 322,-288 328,-288 334,-294 334,-300 334,-300 334,-312 334,-312 334,-318 328,-324 322,-324"/>
<text text-anchor="middle" x="246" y="-302.3" font-family="Times,serif" font-size="14.00" fill="#edddd4">сомнительно_но_окей</text>
</g>
<!-- node_326836500&#45;&gt;node_759405495 -->
<g id="edge14" class="edge">
<title>node_326836500&#45;&gt;node_759405495</title>
<path fill="none" stroke="black" d="M372.9,-359.88C349.83,-350.26 320.86,-338.19 296.43,-328.01"/>
<polygon fill="black" stroke="black" points="297.54,-324.68 286.96,-324.07 294.85,-331.15 297.54,-324.68"/>
</g>
<!-- node_1514468408 -->
<g id="node17" class="node">
<title>node_1514468408</title>
<path fill="#000000" stroke="black" d="M467.5,-324C467.5,-324 364.5,-324 364.5,-324 358.5,-324 352.5,-318 352.5,-312 352.5,-312 352.5,-300 352.5,-300 352.5,-294 358.5,-288 364.5,-288 364.5,-288 467.5,-288 467.5,-288 473.5,-288 479.5,-294 479.5,-300 479.5,-300 479.5,-312 479.5,-312 479.5,-318 473.5,-324 467.5,-324"/>
<text text-anchor="middle" x="416" y="-302.3" font-family="Times,serif" font-size="14.00" fill="#edddd4">какая_разница</text>
</g>
<!-- node_326836500&#45;&gt;node_1514468408 -->
<g id="edge15" class="edge">
<title>node_326836500&#45;&gt;node_1514468408</title>
<path fill="none" stroke="black" d="M414.49,-359.7C414.71,-351.98 414.98,-342.71 415.23,-334.11"/>
<polygon fill="black" stroke="black" points="418.72,-334.2 415.51,-324.1 411.73,-334 418.72,-334.2"/>
</g>
<!-- node_1149141318 -->
<g id="node10" class="node">
<title>node_1149141318</title>
<path fill="#000000" stroke="black" d="M297.5,-252C297.5,-252 194.5,-252 194.5,-252 188.5,-252 182.5,-246 182.5,-240 182.5,-240 182.5,-228 182.5,-228 182.5,-222 188.5,-216 194.5,-216 194.5,-216 297.5,-216 297.5,-216 303.5,-216 309.5,-222 309.5,-228 309.5,-228 309.5,-240 309.5,-240 309.5,-246 303.5,-252 297.5,-252"/>
<text text-anchor="middle" x="246" y="-230.3" font-family="Times,serif" font-size="14.00" fill="#edddd4">какая_разница</text>
</g>
<!-- node_759405495&#45;&gt;node_1149141318 -->
<g id="edge7" class="edge">
<title>node_759405495&#45;&gt;node_1149141318</title>
<path fill="none" stroke="black" d="M246,-287.7C246,-279.98 246,-270.71 246,-262.11"/>
<polygon fill="black" stroke="black" points="249.5,-262.1 246,-252.1 242.5,-262.1 249.5,-262.1"/>
</g>
<!-- node_1938977780 -->
<g id="node11" class="node">
<title>node_1938977780</title>
<path fill="#000000" stroke="black" d="M173.5,-180C173.5,-180 70.5,-180 70.5,-180 64.5,-180 58.5,-174 58.5,-168 58.5,-168 58.5,-156 58.5,-156 58.5,-150 64.5,-144 70.5,-144 70.5,-144 173.5,-144 173.5,-144 179.5,-144 185.5,-150 185.5,-156 185.5,-156 185.5,-168 185.5,-168 185.5,-174 179.5,-180 173.5,-180"/>
<text text-anchor="middle" x="122" y="-158.3" font-family="Times,serif" font-size="14.00" fill="#edddd4">какая_разница</text>
</g>
<!-- node_1149141318&#45;&gt;node_1938977780 -->
<g id="edge5" class="edge">
<title>node_1149141318&#45;&gt;node_1938977780</title>
<path fill="none" stroke="black" d="M215.67,-215.88C199.3,-206.64 178.92,-195.13 161.35,-185.21"/>
<polygon fill="black" stroke="black" points="162.88,-182.06 152.45,-180.19 159.44,-188.15 162.88,-182.06"/>
</g>
<!-- node_203645747 -->
<g id="node14" class="node">
<title>node_203645747</title>
<path fill="#c44536" stroke="black" d="M266,-180C266,-180 236,-180 236,-180 230,-180 224,-174 224,-168 224,-168 224,-156 224,-156 224,-150 230,-144 236,-144 236,-144 266,-144 266,-144 272,-144 278,-150 278,-156 278,-156 278,-168 278,-168 278,-174 272,-180 266,-180"/>
<text text-anchor="middle" x="251" y="-158.3" font-family="Times,serif" font-size="14.00" fill="#edddd4">==</text>
</g>
<!-- node_1149141318&#45;&gt;node_203645747 -->
<g id="edge6" class="edge">
<title>node_1149141318&#45;&gt;node_203645747</title>
<path fill="none" stroke="black" d="M247.24,-215.7C247.79,-207.98 248.45,-198.71 249.06,-190.11"/>
<polygon fill="black" stroke="black" points="252.56,-190.33 249.78,-180.1 245.57,-189.83 252.56,-190.33"/>
</g>
<!-- node_1611302695 -->
<g id="node12" class="node">
<title>node_1611302695</title>
<path fill="#000000" stroke="black" d="M194,-108C194,-108 12,-108 12,-108 6,-108 0,-102 0,-96 0,-96 0,-84 0,-84 0,-78 6,-72 12,-72 12,-72 194,-72 194,-72 200,-72 206,-78 206,-84 206,-84 206,-96 206,-96 206,-102 200,-108 194,-108"/>
<text text-anchor="middle" x="103" y="-86.3" font-family="Times,serif" font-size="14.00" fill="#edddd4">никто_никогда_не_вернет</text>
</g>
<!-- node_1938977780&#45;&gt;node_1611302695 -->
<g id="edge2" class="edge">
<title>node_1938977780&#45;&gt;node_1611302695</title>
<path fill="none" stroke="black" d="M117.3,-143.7C115.19,-135.9 112.64,-126.51 110.28,-117.83"/>
<polygon fill="black" stroke="black" points="113.64,-116.84 107.64,-108.1 106.88,-118.67 113.64,-116.84"/>
</g>
<!-- node_581101892 -->
<g id="node13" class="node">
<title>node_581101892</title>
<path fill="#197278" stroke="black" d="M118,-36C118,-36 88,-36 88,-36 82,-36 76,-30 76,-24 76,-24 76,-12 76,-12 76,-6 82,0 88,0 88,0 118,0 118,0 124,0 130,-6 130,-12 130,-12 130,-24 130,-24 130,-30 124,-36 118,-36"/>
<text text-anchor="middle" x="103" y="-14.3" font-family="Times,serif" font-size="14.00" fill="#edddd4">1</text>
</g>
<!-- node_1611302695&#45;&gt;node_581101892 -->
<g id="edge1" class="edge">
<title>node_1611302695&#45;&gt;node_581101892</title>
<path fill="none" stroke="black" d="M103,-71.7C103,-63.98 103,-54.71 103,-46.11"/>
<polygon fill="black" stroke="black" points="106.5,-46.1 103,-36.1 99.5,-46.1 106.5,-46.1"/>
</g>
<!-- node_2066330266 -->
<g id="node15" class="node">
<title>node_2066330266</title>
<path fill="#283d3b" stroke="black" d="M266,-108C266,-108 236,-108 236,-108 230,-108 224,-102 224,-96 224,-96 224,-84 224,-84 224,-78 230,-72 236,-72 236,-72 266,-72 266,-72 272,-72 278,-78 278,-84 278,-84 278,-96 278,-96 278,-102 272,-108 266,-108"/>
<text text-anchor="middle" x="251" y="-86.3" font-family="Times,serif" font-size="14.00" fill="#edddd4">n</text>
</g>
<!-- node_203645747&#45;&gt;node_2066330266 -->
<g id="edge3" class="edge">
<title>node_203645747&#45;&gt;node_2066330266</title>
<path fill="none" stroke="black" d="M251,-143.7C251,-135.98 251,-126.71 251,-118.11"/>
<polygon fill="black" stroke="black" points="254.5,-118.1 251,-108.1 247.5,-118.1 254.5,-118.1"/>
</g>
<!-- node_959216608 -->
<g id="node16" class="node">
<title>node_959216608</title>
<path fill="#197278" stroke="black" d="M338,-108C338,-108 308,-108 308,-108 302,-108 296,-102 296,-96 296,-96 296,-84 296,-84 296,-78 302,-72 308,-72 308,-72 338,-72 338,-72 344,-72 350,-78 350,-84 350,-84 350,-96 350,-96 350,-102 344,-108 338,-108"/>
<text text-anchor="middle" x="323" y="-86.3" font-family="Times,serif" font-size="14.00" fill="#edddd4">0</text>
</g>
<!-- node_203645747&#45;&gt;node_959216608 -->
<g id="edge4" class="edge">
<title>node_203645747&#45;&gt;node_959216608</title>
<path fill="none" stroke="black" d="M268.8,-143.7C277.6,-135.14 288.38,-124.66 298,-115.3"/>
<polygon fill="black" stroke="black" points="300.68,-117.58 305.41,-108.1 295.8,-112.57 300.68,-117.58"/>
</g>
<!-- node_204838359 -->
<g id="node18" class="node">
<title>node_204838359</title>
<path fill="#000000" stroke="black" d="M464.5,-252C464.5,-252 361.5,-252 361.5,-252 355.5,-252 349.5,-246 349.5,-240 349.5,-240 349.5,-228 349.5,-228 349.5,-222 355.5,-216 361.5,-216 361.5,-216 464.5,-216 464.5,-216 470.5,-216 476.5,-222 476.5,-228 476.5,-228 476.5,-240 476.5,-240 476.5,-246 470.5,-252 464.5,-252"/>
<text text-anchor="middle" x="413" y="-230.3" font-family="Times,serif" font-size="14.00" fill="#edddd4">какая_разница</text>
</g>
<!-- node_1514468408&#45;&gt;node_204838359 -->
<g id="edge12" class="edge">
<title>node_1514468408&#45;&gt;node_204838359</title>
<path fill="none" stroke="black" d="M415.26,-287.7C414.93,-279.98 414.53,-270.71 414.16,-262.11"/>
<polygon fill="black" stroke="black" points="417.66,-261.95 413.73,-252.1 410.66,-262.25 417.66,-261.95"/>
</g>
<!-- node_2146352132 -->
<g id="node21" class="node">
<title>node_2146352132</title>
<path fill="#c44536" stroke="black" d="M573,-252C573,-252 543,-252 543,-252 537,-252 531,-246 531,-240 531,-240 531,-228 531,-228 531,-222 537,-216 543,-216 543,-216 573,-216 573,-216 579,-216 585,-222 585,-228 585,-228 585,-240 585,-240 585,-246 579,-252 573,-252"/>
<text text-anchor="middle" x="558" y="-230.3" font-family="Times,serif" font-size="14.00" fill="#edddd4">==</text>
</g>
<!-- node_1514468408&#45;&gt;node_2146352132 -->
<g id="edge13" class="edge">
<title>node_1514468408&#45;&gt;node_2146352132</title>
<path fill="none" stroke="black" d="M450.74,-287.88C472.19,-277.3 499.69,-263.74 521.47,-253.01"/>
<polygon fill="black" stroke="black" points="523.31,-256 530.73,-248.44 520.21,-249.73 523.31,-256"/>
</g>
<!-- node_1995982537 -->
<g id="node19" class="node">
<title>node_1995982537</title>
<path fill="#000000" stroke="black" d="M501,-180C501,-180 319,-180 319,-180 313,-180 307,-174 307,-168 307,-168 307,-156 307,-156 307,-150 313,-144 319,-144 319,-144 501,-144 501,-144 507,-144 513,-150 513,-156 513,-156 513,-168 513,-168 513,-174 507,-180 501,-180"/>
<text text-anchor="middle" x="410" y="-158.3" font-family="Times,serif" font-size="14.00" fill="#edddd4">никто_никогда_не_вернет</text>
</g>
<!-- node_204838359&#45;&gt;node_1995982537 -->
<g id="edge9" class="edge">
<title>node_204838359&#45;&gt;node_1995982537</title>
<path fill="none" stroke="black" d="M412.26,-215.7C411.93,-207.98 411.53,-198.71 411.16,-190.11"/>
<polygon fill="black" stroke="black" points="414.66,-189.95 410.73,-180.1 407.66,-190.25 414.66,-189.95"/>
</g>
<!-- node_1422528542 -->
<g id="node20" class="node">
<title>node_1422528542</title>
<path fill="#197278" stroke="black" d="M425,-108C425,-108 395,-108 395,-108 389,-108 383,-102 383,-96 383,-96 383,-84 383,-84 383,-78 389,-72 395,-72 395,-72 425,-72 425,-72 431,-72 437,-78 437,-84 437,-84 437,-96 437,-96 437,-102 431,-108 425,-108"/>
<text text-anchor="middle" x="410" y="-86.3" font-family="Times,serif" font-size="14.00" fill="#edddd4">1</text>
</g>
<!-- node_1995982537&#45;&gt;node_1422528542 -->
<g id="edge8" class="edge">
<title>node_1995982537&#45;&gt;node_1422528542</title>
<path fill="none" stroke="black" d="M410,-143.7C410,-135.98 410,-126.71 410,-118.11"/>
<polygon fill="black" stroke="black" points="413.5,-118.1 410,-108.1 406.5,-118.1 413.5,-118.1"/>
</g>
<!-- node_1000387474 -->
<g id="node22" class="node">
<title>node_1000387474</title>
<path fill="#283d3b" stroke="black" d="M573,-180C573,-180 543,-180 543,-180 537,-180 531,-174 531,-168 531,-168 531,-156 531,-156 531,-150 537,-144 543,-144 543,-144 573,-144 573,-144 579,-144 585,-150 585,-156 585,-156 585,-168 585,-168 585,-174 579,-180 573,-180"/>
<text text-anchor="middle" x="558" y="-158.3" font-family="Times,serif" font-size="14.00" fill="#edddd4">n</text>
</g>
<!-- node_2146352132&#45;&gt;node_1000387474 -->
<g id="edge10" class="edge">
<title>node_2146352132&#45;&gt;node_1000387474</title>
<path fill="none" stroke="black" d="M558,-215.7C558,-207.98 558,-198.71 558,-190.11"/>
<polygon fill="black" stroke="black" points="561.5,-190.1 558,-180.1 554.5,-190.1 561.5,-190.1"/>
</g>
<!-- node_353586501 -->
<g id="node23" class="node">
<title>node_353586501</title>
<path fill="#197278" stroke="black" d="M645,-180C645,-180 615,-180 615,-180 609,-180 603,-174 603,-168 603,-168 603,-156 603,-156 603,-150 609,-144 615,-144 615,-144 645,-144 645,-144 651,-144 657,-150 657,-156 657,-156 657,-168 657,-168 657,-174 651,-180 645,-180"/>
<text text-anchor="middle" x="630" y="-158.3" font-family="Times,serif" font-size="14.00" fill="#edddd4">1</text>
</g>
<!-- node_2146352132&#45;&gt;node_353586501 -->
<g id="edge11" class="edge">
<title>node_2146352132&#45;&gt;node_353586501</title>
<path fill="none" stroke="black" d="M575.8,-215.7C584.6,-207.14 595.38,-196.66 605,-187.3"/>
<polygon fill="black" stroke="black" points="607.68,-189.58 612.41,-180.1 602.8,-184.57 607.68,-189.58"/>
</g>
<!-- node_1355154804 -->
<g id="node25" class="node">
<title>node_1355154804</title>
<path fill="#c44536" stroke="black" d="M698.5,-324C698.5,-324 589.5,-324 589.5,-324 583.5,-324 577.5,-318 577.5,-312 577.5,-312 577.5,-300 577.5,-300 577.5,-294 583.5,-288 589.5,-288 589.5,-288 698.5,-288 698.5,-288 704.5,-288 710.5,-294 710.5,-300 710.5,-300 710.5,-312 710.5,-312 710.5,-318 704.5,-324 698.5,-324"/>
<text text-anchor="middle" x="644" y="-302.3" font-family="Times,serif" font-size="14.00" fill="#edddd4">я_так_чувствую</text>
</g>
<!-- node_1555307191&#45;&gt;node_1355154804 -->
<g id="edge20" class="edge">
<title>node_1555307191&#45;&gt;node_1355154804</title>
<path fill="none" stroke="black" d="M644,-359.7C644,-351.98 644,-342.71 644,-334.11"/>
<polygon fill="black" stroke="black" points="647.5,-334.1 644,-324.1 640.5,-334.1 647.5,-334.1"/>
</g>
<!-- node_173672987 -->
<g id="node26" class="node">
<title>node_173672987</title>
<path fill="#283d3b" stroke="black" d="M656,-252C656,-252 626,-252 626,-252 620,-252 614,-246 614,-240 614,-240 614,-228 614,-228 614,-222 620,-216 626,-216 626,-216 656,-216 656,-216 662,-216 668,-222 668,-228 668,-228 668,-240 668,-240 668,-246 662,-252 656,-252"/>
<text text-anchor="middle" x="641" y="-230.3" font-family="Times,serif" font-size="14.00" fill="#edddd4">n__</text>
</g>
<!-- node_1355154804&#45;&gt;node_173672987 -->
<g id="edge18" class="edge">
<title>node_1355154804&#45;&gt;node_173672987</title>
<path fill="none" stroke="black" d="M643.26,-287.7C642.93,-279.98 642.53,-270.71 642.16,-262.11"/>
<polygon fill="black" stroke="black" points="645.66,-261.95 641.73,-252.1 638.66,-262.25 645.66,-261.95"/>
</g>
<!-- node_1634275043 -->
<g id="node27" class="node">
<title>node_1634275043</title>
<path fill="#c44536" stroke="black" d="M728,-252C728,-252 698,-252 698,-252 692,-252 686,-246 686,-240 686,-240 686,-228 686,-228 686,-222 692,-216 698,-216 698,-216 728,-216 728,-216 734,-216 740,-222 740,-228 740,-228 740,-240 740,-240 740,-246 734,-252 728,-252"/>
<text text-anchor="middle" x="713" y="-230.3" font-family="Times,serif" font-size="14.00" fill="#edddd4">&#45;</text>
</g>
<!-- node_1355154804&#45;&gt;node_1634275043 -->
<g id="edge19" class="edge">
<title>node_1355154804&#45;&gt;node_1634275043</title>
<path fill="none" stroke="black" d="M661.06,-287.7C669.5,-279.14 679.82,-268.66 689.04,-259.3"/>
<polygon fill="black" stroke="black" points="691.61,-261.68 696.14,-252.1 686.63,-256.77 691.61,-261.68"/>
</g>
<!-- node_1492340747 -->
<g id="node28" class="node">
<title>node_1492340747</title>
<path fill="#283d3b" stroke="black" d="M727,-180C727,-180 697,-180 697,-180 691,-180 685,-174 685,-168 685,-168 685,-156 685,-156 685,-150 691,-144 697,-144 697,-144 727,-144 727,-144 733,-144 739,-150 739,-156 739,-156 739,-168 739,-168 739,-174 733,-180 727,-180"/>
<text text-anchor="middle" x="712" y="-158.3" font-family="Times,serif" font-size="14.00" fill="#edddd4">n</text>
</g>
<!-- node_1634275043&#45;&gt;node_1492340747 -->
<g id="edge16" class="edge">
<title>node_1634275043&#45;&gt;node_1492340747</title>
<path fill="none" stroke="black" d="M712.75,-215.7C712.64,-207.98 712.51,-198.71 712.39,-190.11"/>
<polygon fill="black" stroke="black" points="715.89,-190.05 712.24,-180.1 708.89,-190.15 715.89,-190.05"/>
</g>
<!-- node_384018591 -->
<g id="node29" class="node">
<title>node_384018591</title>
<path fill="#197278" stroke="black" d="M799,-180C799,-180 769,-180 769,-180 763,-180 757,-174 757,-168 757,-168 757,-156 757,-156 757,-150 763,-144 769,-144 769,-144 799,-144 799,-144 805,-144 811,-150 811,-156 811,-156 811,-168 811,-168 811,-174 805,-180 799,-180"/>
<text text-anchor="middle" x="784" y="-158.3" font-family="Times,serif" font-size="14.00" fill="#edddd4">1</text>
</g>
<!-- node_1634275043&#45;&gt;node_384018591 -->
<g id="edge17" class="edge">
<title>node_1634275043&#45;&gt;node_384018591</title>
<path fill="none" stroke="black" d="M730.55,-215.7C739.23,-207.14 749.86,-196.66 759.35,-187.3"/>
<polygon fill="black" stroke="black" points="761.99,-189.62 766.65,-180.1 757.07,-184.63 761.99,-189.62"/>
</g>
<!-- node_53834727 -->
<g id="node31" class="node">
<title>node_53834727</title>
<path fill="#c44536" stroke="black" d="M917.5,-396C917.5,-396 808.5,-396 808.5,-396 802.5,-396 796.5,-390 796.5,-384 796.5,-384 796.5,-372 796.5,-372 796.5,-366 802.5,-360 808.5,-360 808.5,-360 917.5,-360 917.5,-360 923.5,-360 929.5,-366 929.5,-372 929.5,-372 929.5,-384 929.5,-384 929.5,-390 923.5,-396 917.5,-396"/>
<text text-anchor="middle" x="863" y="-374.3" font-family="Times,serif" font-size="14.00" fill="#edddd4">я_так_чувствую</text>
</g>
<!-- node_553859496&#45;&gt;node_53834727 -->
<g id="edge29" class="edge">
<title>node_553859496&#45;&gt;node_53834727</title>
<path fill="none" stroke="black" d="M863,-431.7C863,-423.98 863,-414.71 863,-406.11"/>
<polygon fill="black" stroke="black" points="866.5,-406.1 863,-396.1 859.5,-406.1 866.5,-406.1"/>
</g>
<!-- node_1927815705 -->
<g id="node32" class="node">
<title>node_1927815705</title>
<path fill="#283d3b" stroke="black" d="M835,-324C835,-324 803,-324 803,-324 797,-324 791,-318 791,-312 791,-312 791,-300 791,-300 791,-294 797,-288 803,-288 803,-288 835,-288 835,-288 841,-288 847,-294 847,-300 847,-300 847,-312 847,-312 847,-318 841,-324 835,-324"/>
<text text-anchor="middle" x="819" y="-302.3" font-family="Times,serif" font-size="14.00" fill="#edddd4">ответ</text>
</g>
<!-- node_53834727&#45;&gt;node_1927815705 -->
<g id="edge27" class="edge">
<title>node_53834727&#45;&gt;node_1927815705</title>
<path fill="none" stroke="black" d="M852.12,-359.7C847.01,-351.56 840.8,-341.69 835.16,-332.7"/>
<polygon fill="black" stroke="black" points="838.04,-330.71 829.75,-324.1 832.11,-334.43 838.04,-330.71"/>
</g>
<!-- node_1504959048 -->
<g id="node33" class="node">
<title>node_1504959048</title>
<path fill="#c44536" stroke="black" d="M907,-324C907,-324 877,-324 877,-324 871,-324 865,-318 865,-312 865,-312 865,-300 865,-300 865,-294 871,-288 877,-288 877,-288 907,-288 907,-288 913,-288 919,-294 919,-300 919,-300 919,-312 919,-312 919,-318 913,-324 907,-324"/>
<text text-anchor="middle" x="892" y="-302.3" font-family="Times,serif" font-size="14.00" fill="#edddd4">*</text>
</g>
<!-- node_53834727&#45;&gt;node_1504959048 -->
<g id="edge28" class="edge">
<title>node_53834727&#45;&gt;node_1504959048</title>
<path fill="none" stroke="black" d="M870.17,-359.7C873.43,-351.81 877.37,-342.3 881,-333.55"/>
<polygon fill="black" stroke="black" points="884.32,-334.68 884.91,-324.1 877.85,-332 884.32,-334.68"/>
</g>
<!-- node_40467521 -->
<g id="node34" class="node">
<title>node_40467521</title>
<path fill="#283d3b" stroke="black" d="M866,-252C866,-252 836,-252 836,-252 830,-252 824,-246 824,-240 824,-240 824,-228 824,-228 824,-222 830,-216 836,-216 836,-216 866,-216 866,-216 872,-216 878,-222 878,-228 878,-228 878,-240 878,-240 878,-246 872,-252 866,-252"/>
<text text-anchor="middle" x="851" y="-230.3" font-family="Times,serif" font-size="14.00" fill="#edddd4">n</text>
</g>
<!-- node_1504959048&#45;&gt;node_40467521 -->
<g id="edge25" class="edge">
<title>node_1504959048&#45;&gt;node_40467521</title>
<path fill="none" stroke="black" d="M881.87,-287.7C877.15,-279.64 871.44,-269.89 866.22,-260.98"/>
<polygon fill="black" stroke="black" points="869.09,-258.96 861.02,-252.1 863.05,-262.5 869.09,-258.96"/>
</g>
<!-- node_1258318128 -->
<g id="node35" class="node">
<title>node_1258318128</title>
<path fill="#283d3b" stroke="black" d="M997.5,-252C997.5,-252 908.5,-252 908.5,-252 902.5,-252 896.5,-246 896.5,-240 896.5,-240 896.5,-228 896.5,-228 896.5,-222 902.5,-216 908.5,-216 908.5,-216 997.5,-216 997.5,-216 1003.5,-216 1009.5,-222 1009.5,-228 1009.5,-228 1009.5,-240 1009.5,-240 1009.5,-246 1003.5,-252 997.5,-252"/>
<text text-anchor="middle" x="953" y="-230.3" font-family="Times,serif" font-size="14.00" fill="#edddd4">ФАКТОРИАЛ</text>
</g>
<!-- node_1504959048&#45;&gt;node_1258318128 -->
<g id="edge26" class="edge">
<title>node_1504959048&#45;&gt;node_1258318128</title>
<path fill="none" stroke="black" d="M907.08,-287.7C914.39,-279.3 923.31,-269.07 931.34,-259.86"/>
<polygon fill="black" stroke="black" points="934.16,-261.94 938.09,-252.1 928.89,-257.34 934.16,-261.94"/>
</g>
<!-- node_508621558 -->
<g id="node36" class="node">
<title>node_508621558</title>
<path fill="#c45baa" stroke="black" d="M1029,-180C1029,-180 877,-180 877,-180 871,-180 865,-174 865,-168 865,-168 865,-156 865,-156 865,-150 871,-144 877,-144 877,-144 1029,-144 1029,-144 1035,-144 1041,-150 1041,-156 1041,-156 1041,-168 1041,-168 1041,-174 1035,-180 1029,-180"/>
<text text-anchor="middle" x="953" y="-158.3" font-family="Times,serif" font-size="14.00" fill="#edddd4">сомнительно_но_окей</text>
</g>
<!-- node_1258318128&#45;&gt;node_508621558 -->
<g id="edge24" class="edge">
<title>node_1258318128&#45;&gt;node_508621558</title>
<path fill="none" stroke="black" d="M953,-215.7C953,-207.98 953,-198.71 953,-190.11"/>
<polygon fill="black" stroke="black" points="956.5,-190.1 953,-180.1 949.5,-190.1 956.5,-190.1"/>
</g>
<!-- node_1884661304 -->
<g id="node37" class="node">
<title>node_1884661304</title>
<path fill="#283d3b" stroke="black" d="M968,-108C968,-108 938,-108 938,-108 932,-108 926,-102 926,-96 926,-96 926,-84 926,-84 926,-78 932,-72 938,-72 938,-72 968,-72 968,-72 974,-72 980,-78 980,-84 980,-84 980,-96 980,-96 980,-102 974,-108 968,-108"/>
<text text-anchor="middle" x="953" y="-86.3" font-family="Times,serif" font-size="14.00" fill="#edddd4">n__</text>
</g>
<!-- node_508621558&#45;&gt;node_1884661304 -->
<g id="edge23" class="edge">
<title>node_508621558&#45;&gt;node_1884661304</title>
<path fill="none" stroke="black" d="M953,-143.7C953,-135.98 953,-126.71 953,-118.11"/>
<polygon fill="black" stroke="black" points="956.5,-118.1 953,-108.1 949.5,-118.1 956.5,-118.1"/>
</g>
<!-- node_835458059 -->
<g id="node39" class="node">
<title>node_835458059</title>
<path fill="#283d3b" stroke="black" d="M1068,-468C1068,-468 1036,-468 1036,-468 1030,-468 1024,-462 1024,-456 1024,-456 1024,-444 1024,-444 1024,-438 1030,-432 1036,-432 1036,-432 1068,-432 1068,-432 1074,-432 1080,-438 1080,-444 1080,-444 1080,-456 1080,-456 1080,-462 1074,-468 1068,-468"/>
<text text-anchor="middle" x="1052" y="-446.3" font-family="Times,serif" font-size="14.00" fill="#edddd4">ответ</text>
</g>
<!-- node_1339493005&#45;&gt;node_835458059 -->
<g id="edge32" class="edge">
<title>node_1339493005&#45;&gt;node_835458059</title>
<path fill="none" stroke="black" d="M1052,-503.7C1052,-495.98 1052,-486.71 1052,-478.11"/>
<polygon fill="black" stroke="black" points="1055.5,-478.1 1052,-468.1 1048.5,-478.1 1055.5,-478.1"/>
</g>
<!-- node_341150675 -->
<g id="node41" class="node">
<title>node_341150675</title>
<path fill="#c45baa" stroke="black" d="M1299,-612C1299,-612 1147,-612 1147,-612 1141,-612 1135,-606 1135,-600 1135,-600 1135,-588 1135,-588 1135,-582 1141,-576 1147,-576 1147,-576 1299,-576 1299,-576 1305,-576 1311,-582 1311,-588 1311,-588 1311,-600 1311,-600 1311,-606 1305,-612 1299,-612"/>
<text text-anchor="middle" x="1223" y="-590.3" font-family="Times,serif" font-size="14.00" fill="#edddd4">сомнительно_но_окей</text>
</g>
<!-- node_496583151&#45;&gt;node_341150675 -->
<g id="edge37" class="edge">
<title>node_496583151&#45;&gt;node_341150675</title>
<path fill="none" stroke="black" d="M1320.44,-647.88C1303.34,-638.6 1282.02,-627.03 1263.68,-617.08"/>
<polygon fill="black" stroke="black" points="1265.14,-613.88 1254.68,-612.19 1261.8,-620.04 1265.14,-613.88"/>
</g>
<!-- node_2107885847 -->
<g id="node43" class="node">
<title>node_2107885847</title>
<path fill="#283d3b" stroke="black" d="M1430.5,-612C1430.5,-612 1341.5,-612 1341.5,-612 1335.5,-612 1329.5,-606 1329.5,-600 1329.5,-600 1329.5,-588 1329.5,-588 1329.5,-582 1335.5,-576 1341.5,-576 1341.5,-576 1430.5,-576 1430.5,-576 1436.5,-576 1442.5,-582 1442.5,-588 1442.5,-588 1442.5,-600 1442.5,-600 1442.5,-606 1436.5,-612 1430.5,-612"/>
<text text-anchor="middle" x="1386" y="-590.3" font-family="Times,serif" font-size="14.00" fill="#edddd4">ФАКТОРИАЛ</text>
</g>
<!-- node_496583151&#45;&gt;node_2107885847 -->
<g id="edge38" class="edge">
<title>node_496583151&#45;&gt;node_2107885847</title>
<path fill="none" stroke="black" d="M1360.4,-647.7C1364.27,-639.73 1368.95,-630.1 1373.24,-621.26"/>
<polygon fill="black" stroke="black" points="1376.47,-622.63 1377.69,-612.1 1370.17,-619.57 1376.47,-622.63"/>
</g>
<!-- node_626952191 -->
<g id="node42" class="node">
<title>node_626952191</title>
<path fill="#283d3b" stroke="black" d="M1238,-540C1238,-540 1208,-540 1208,-540 1202,-540 1196,-534 1196,-528 1196,-528 1196,-516 1196,-516 1196,-510 1202,-504 1208,-504 1208,-504 1238,-504 1238,-504 1244,-504 1250,-510 1250,-516 1250,-516 1250,-528 1250,-528 1250,-534 1244,-540 1238,-540"/>
<text text-anchor="middle" x="1223" y="-518.3" font-family="Times,serif" font-size="14.00" fill="#edddd4">n</text>
</g>
<!-- node_341150675&#45;&gt;node_626952191 -->
<g id="edge36" class="edge">
<title>node_341150675&#45;&gt;node_626952191</title>
<path fill="none" stroke="black" d="M1223,-575.7C1223,-567.98 1223,-558.71 1223,-550.11"/>
<polygon fill="black" stroke="black" points="1226.5,-550.1 1223,-540.1 1219.5,-550.1 1226.5,-550.1"/>
</g>
<!-- node_830597938 -->
<g id="node45" class="node">
<title>node_830597938</title>
<path fill="#7d387d" stroke="black" d="M1644,-756C1644,-756 1522,-756 1522,-756 1516,-756 1510,-750 1510,-744 1510,-744 1510,-732 1510,-732 1510,-726 1516,-720 1522,-720 1522,-720 1644,-720 1644,-720 1650,-720 1656,-726 1656,-732 1656,-732 1656,-744 1656,-744 1656,-750 1650,-756 1644,-756"/>
<text text-anchor="middle" x="1583" y="-734.3" font-family="Times,serif" font-size="14.00" fill="#edddd4">олег_не_торопись</text>
</g>
<!-- node_922252567&#45;&gt;node_830597938 -->
<g id="edge67" class="edge">
<title>node_922252567&#45;&gt;node_830597938</title>
<path fill="none" stroke="black" d="M1583,-791.7C1583,-783.98 1583,-774.71 1583,-766.11"/>
<polygon fill="black" stroke="black" points="1586.5,-766.1 1583,-756.1 1579.5,-766.1 1586.5,-766.1"/>
</g>
<!-- node_1114363700 -->
<g id="node68" class="node">
<title>node_1114363700</title>
<path fill="#c45baa" stroke="black" d="M1934,-756C1934,-756 1782,-756 1782,-756 1776,-756 1770,-750 1770,-744 1770,-744 1770,-732 1770,-732 1770,-726 1776,-720 1782,-720 1782,-720 1934,-720 1934,-720 1940,-720 1946,-726 1946,-732 1946,-732 1946,-744 1946,-744 1946,-750 1940,-756 1934,-756"/>
<text text-anchor="middle" x="1858" y="-734.3" font-family="Times,serif" font-size="14.00" fill="#edddd4">сомнительно_но_окей</text>
</g>
<!-- node_922252567&#45;&gt;node_1114363700 -->
<g id="edge68" class="edge">
<title>node_922252567&#45;&gt;node_1114363700</title>
<path fill="none" stroke="black" d="M1643.69,-793.55C1684.19,-783.24 1737.78,-769.6 1781.24,-758.54"/>
<polygon fill="black" stroke="black" points="1782.38,-761.86 1791.2,-756 1780.65,-755.08 1782.38,-761.86"/>
</g>
<!-- node_2026732465 -->
<g id="node46" class="node">
<title>node_2026732465</title>
<path fill="#c45baa" stroke="black" d="M1659,-684C1659,-684 1507,-684 1507,-684 1501,-684 1495,-678 1495,-672 1495,-672 1495,-660 1495,-660 1495,-654 1501,-648 1507,-648 1507,-648 1659,-648 1659,-648 1665,-648 1671,-654 1671,-660 1671,-660 1671,-672 1671,-672 1671,-678 1665,-684 1659,-684"/>
<text text-anchor="middle" x="1583" y="-662.3" font-family="Times,serif" font-size="14.00" fill="#edddd4">сомнительно_но_окей</text>
</g>
<!-- node_830597938&#45;&gt;node_2026732465 -->
<g id="edge63" class="edge">
<title>node_830597938&#45;&gt;node_2026732465</title>
<path fill="none" stroke="black" d="M1583,-719.7C1583,-711.98 1583,-702.71 1583,-694.11"/>
<polygon fill="black" stroke="black" points="1586.5,-694.1 1583,-684.1 1579.5,-694.1 1586.5,-694.1"/>
</g>
<!-- node_1881469175 -->
<g id="node47" class="node">
<title>node_1881469175</title>
<path fill="#c45baa" stroke="black" d="M1625,-612C1625,-612 1473,-612 1473,-612 1467,-612 1461,-606 1461,-600 1461,-600 1461,-588 1461,-588 1461,-582 1467,-576 1473,-576 1473,-576 1625,-576 1625,-576 1631,-576 1637,-582 1637,-588 1637,-588 1637,-600 1637,-600 1637,-606 1631,-612 1625,-612"/>
<text text-anchor="middle" x="1549" y="-590.3" font-family="Times,serif" font-size="14.00" fill="#edddd4">сомнительно_но_окей</text>
</g>
<!-- node_2026732465&#45;&gt;node_1881469175 -->
<g id="edge61" class="edge">
<title>node_2026732465&#45;&gt;node_1881469175</title>
<path fill="none" stroke="black" d="M1574.6,-647.7C1570.73,-639.73 1566.05,-630.1 1561.76,-621.26"/>
<polygon fill="black" stroke="black" points="1564.83,-619.57 1557.31,-612.1 1558.53,-622.63 1564.83,-619.57"/>
</g>
<!-- node_1422555858 -->
<g id="node66" class="node">
<title>node_1422555858</title>
<path fill="#000000" stroke="black" d="M1849,-612C1849,-612 1667,-612 1667,-612 1661,-612 1655,-606 1655,-600 1655,-600 1655,-588 1655,-588 1655,-582 1661,-576 1667,-576 1667,-576 1849,-576 1849,-576 1855,-576 1861,-582 1861,-588 1861,-588 1861,-600 1861,-600 1861,-606 1855,-612 1849,-612"/>
<text text-anchor="middle" x="1758" y="-590.3" font-family="Times,serif" font-size="14.00" fill="#edddd4">никто_никогда_не_вернет</text>
</g>
<!-- node_2026732465&#45;&gt;node_1422555858 -->
<g id="edge62" class="edge">
<title>node_2026732465&#45;&gt;node_1422555858</title>
<path fill="none" stroke="black" d="M1625.81,-647.88C1649.95,-638.22 1680.28,-626.09 1705.81,-615.88"/>
<polygon fill="black" stroke="black" points="1707.34,-619.03 1715.33,-612.07 1704.74,-612.53 1707.34,-619.03"/>
</g>
<!-- node_197582698 -->
<g id="node48" class="node">
<title>node_197582698</title>
<path fill="#c45baa" stroke="black" d="M1433,-540C1433,-540 1281,-540 1281,-540 1275,-540 1269,-534 1269,-528 1269,-528 1269,-516 1269,-516 1269,-510 1275,-504 1281,-504 1281,-504 1433,-504 1433,-504 1439,-504 1445,-510 1445,-516 1445,-516 1445,-528 1445,-528 1445,-534 1439,-540 1433,-540"/>
<text text-anchor="middle" x="1357" y="-518.3" font-family="Times,serif" font-size="14.00" fill="#edddd4">сомнительно_но_окей</text>
</g>
<!-- node_1881469175&#45;&gt;node_197582698 -->
<g id="edge58" class="edge">
<title>node_1881469175&#45;&gt;node_197582698</title>
<path fill="none" stroke="black" d="M1502.03,-575.88C1475.32,-566.14 1441.68,-553.87 1413.53,-543.61"/>
<polygon fill="black" stroke="black" points="1414.41,-540.21 1403.82,-540.07 1412.01,-546.78 1414.41,-540.21"/>
</g>
<!-- node_383905672 -->
<g id="node60" class="node">
<title>node_383905672</title>
<path fill="#ff8966" stroke="black" d="M1698.5,-540C1698.5,-540 1475.5,-540 1475.5,-540 1469.5,-540 1463.5,-534 1463.5,-528 1463.5,-528 1463.5,-516 1463.5,-516 1463.5,-510 1469.5,-504 1475.5,-504 1475.5,-504 1698.5,-504 1698.5,-504 1704.5,-504 1710.5,-510 1710.5,-516 1710.5,-516 1710.5,-528 1710.5,-528 1710.5,-534 1704.5,-540 1698.5,-540"/>
<text text-anchor="middle" x="1587" y="-518.3" font-family="Times,serif" font-size="14.00" fill="#edddd4">але_вам_удобно_разговаривать</text>
</g>
<!-- node_1881469175&#45;&gt;node_383905672 -->
<g id="edge59" class="edge">
<title>node_1881469175&#45;&gt;node_383905672</title>
<path fill="none" stroke="black" d="M1558.39,-575.7C1562.76,-567.64 1568.06,-557.89 1572.9,-548.98"/>
<polygon fill="black" stroke="black" points="1576.02,-550.56 1577.71,-540.1 1569.87,-547.22 1576.02,-550.56"/>
</g>
<!-- node_84087176 -->
<g id="node49" class="node">
<title>node_84087176</title>
<path fill="#c45baa" stroke="black" d="M1300,-468C1300,-468 1148,-468 1148,-468 1142,-468 1136,-462 1136,-456 1136,-456 1136,-444 1136,-444 1136,-438 1142,-432 1148,-432 1148,-432 1300,-432 1300,-432 1306,-432 1312,-438 1312,-444 1312,-444 1312,-456 1312,-456 1312,-462 1306,-468 1300,-468"/>
<text text-anchor="middle" x="1224" y="-446.3" font-family="Times,serif" font-size="14.00" fill="#edddd4">сомнительно_но_окей</text>
</g>
<!-- node_197582698&#45;&gt;node_84087176 -->
<g id="edge51" class="edge">
<title>node_197582698&#45;&gt;node_84087176</title>
<path fill="none" stroke="black" d="M1324.46,-503.88C1306.75,-494.55 1284.65,-482.92 1265.68,-472.94"/>
<polygon fill="black" stroke="black" points="1267.14,-469.75 1256.66,-468.19 1263.88,-475.94 1267.14,-469.75"/>
</g>
<!-- node_1973697741 -->
<g id="node54" class="node">
<title>node_1973697741</title>
<path fill="#7d387d" stroke="black" d="M1481,-468C1481,-468 1359,-468 1359,-468 1353,-468 1347,-462 1347,-456 1347,-456 1347,-444 1347,-444 1347,-438 1353,-432 1359,-432 1359,-432 1481,-432 1481,-432 1487,-432 1493,-438 1493,-444 1493,-444 1493,-456 1493,-456 1493,-462 1487,-468 1481,-468"/>
<text text-anchor="middle" x="1420" y="-446.3" font-family="Times,serif" font-size="14.00" fill="#edddd4">олег_не_торопись</text>
</g>
<!-- node_197582698&#45;&gt;node_1973697741 -->
<g id="edge52" class="edge">
<title>node_197582698&#45;&gt;node_1973697741</title>
<path fill="none" stroke="black" d="M1372.57,-503.7C1380.2,-495.22 1389.52,-484.86 1397.88,-475.58"/>
<polygon fill="black" stroke="black" points="1400.52,-477.88 1404.61,-468.1 1395.31,-473.2 1400.52,-477.88"/>
</g>
<!-- node_1729968065 -->
<g id="node50" class="node">
<title>node_1729968065</title>
<path fill="#ff8966" stroke="black" d="M1308.5,-396C1308.5,-396 1085.5,-396 1085.5,-396 1079.5,-396 1073.5,-390 1073.5,-384 1073.5,-384 1073.5,-372 1073.5,-372 1073.5,-366 1079.5,-360 1085.5,-360 1085.5,-360 1308.5,-360 1308.5,-360 1314.5,-360 1320.5,-366 1320.5,-372 1320.5,-372 1320.5,-384 1320.5,-384 1320.5,-390 1314.5,-396 1308.5,-396"/>
<text text-anchor="middle" x="1197" y="-374.3" font-family="Times,serif" font-size="14.00" fill="#edddd4">але_вам_удобно_разговаривать</text>
</g>
<!-- node_84087176&#45;&gt;node_1729968065 -->
<g id="edge45" class="edge">
<title>node_84087176&#45;&gt;node_1729968065</title>
<path fill="none" stroke="black" d="M1217.33,-431.7C1214.29,-423.81 1210.62,-414.3 1207.24,-405.55"/>
<polygon fill="black" stroke="black" points="1210.46,-404.17 1203.6,-396.1 1203.93,-406.69 1210.46,-404.17"/>
</g>
<!-- node_1620111240 -->
<g id="node51" class="node">
<title>node_1620111240</title>
<path fill="#c44536" stroke="black" d="M1251.5,-324C1251.5,-324 1142.5,-324 1142.5,-324 1136.5,-324 1130.5,-318 1130.5,-312 1130.5,-312 1130.5,-300 1130.5,-300 1130.5,-294 1136.5,-288 1142.5,-288 1142.5,-288 1251.5,-288 1251.5,-288 1257.5,-288 1263.5,-294 1263.5,-300 1263.5,-300 1263.5,-312 1263.5,-312 1263.5,-318 1257.5,-324 1251.5,-324"/>
<text text-anchor="middle" x="1197" y="-302.3" font-family="Times,serif" font-size="14.00" fill="#edddd4">я_так_чувствую</text>
</g>
<!-- node_1729968065&#45;&gt;node_1620111240 -->
<g id="edge44" class="edge">
<title>node_1729968065&#45;&gt;node_1620111240</title>
<path fill="none" stroke="black" d="M1197,-359.7C1197,-351.98 1197,-342.71 1197,-334.11"/>
<polygon fill="black" stroke="black" points="1200.5,-334.1 1197,-324.1 1193.5,-334.1 1200.5,-334.1"/>
</g>
<!-- node_82955660 -->
<g id="node52" class="node">
<title>node_82955660</title>
<path fill="#283d3b" stroke="black" d="M1176,-252C1176,-252 1146,-252 1146,-252 1140,-252 1134,-246 1134,-240 1134,-240 1134,-228 1134,-228 1134,-222 1140,-216 1146,-216 1146,-216 1176,-216 1176,-216 1182,-216 1188,-222 1188,-228 1188,-228 1188,-240 1188,-240 1188,-246 1182,-252 1176,-252"/>
<text text-anchor="middle" x="1161" y="-230.3" font-family="Times,serif" font-size="14.00" fill="#edddd4">N</text>
</g>
<!-- node_1620111240&#45;&gt;node_82955660 -->
<g id="edge42" class="edge">
<title>node_1620111240&#45;&gt;node_82955660</title>
<path fill="none" stroke="black" d="M1188.1,-287.7C1184,-279.73 1179.05,-270.1 1174.51,-261.26"/>
<polygon fill="black" stroke="black" points="1177.48,-259.4 1169.8,-252.1 1171.26,-262.6 1177.48,-259.4"/>
</g>
<!-- node_582871891 -->
<g id="node53" class="node">
<title>node_582871891</title>
<path fill="#197278" stroke="black" d="M1248,-252C1248,-252 1218,-252 1218,-252 1212,-252 1206,-246 1206,-240 1206,-240 1206,-228 1206,-228 1206,-222 1212,-216 1218,-216 1218,-216 1248,-216 1248,-216 1254,-216 1260,-222 1260,-228 1260,-228 1260,-240 1260,-240 1260,-246 1254,-252 1248,-252"/>
<text text-anchor="middle" x="1233" y="-230.3" font-family="Times,serif" font-size="14.00" fill="#edddd4">5</text>
</g>
<!-- node_1620111240&#45;&gt;node_582871891 -->
<g id="edge43" class="edge">
<title>node_1620111240&#45;&gt;node_582871891</title>
<path fill="none" stroke="black" d="M1205.9,-287.7C1210,-279.73 1214.95,-270.1 1219.49,-261.26"/>
<polygon fill="black" stroke="black" points="1222.74,-262.6 1224.2,-252.1 1216.52,-259.4 1222.74,-262.6"/>
</g>
<!-- node_1638262851 -->
<g id="node55" class="node">
<title>node_1638262851</title>
<path fill="#c45baa" stroke="black" d="M1503,-396C1503,-396 1351,-396 1351,-396 1345,-396 1339,-390 1339,-384 1339,-384 1339,-372 1339,-372 1339,-366 1345,-360 1351,-360 1351,-360 1503,-360 1503,-360 1509,-360 1515,-366 1515,-372 1515,-372 1515,-384 1515,-384 1515,-390 1509,-396 1503,-396"/>
<text text-anchor="middle" x="1427" y="-374.3" font-family="Times,serif" font-size="14.00" fill="#edddd4">сомнительно_но_окей</text>
</g>
<!-- node_1973697741&#45;&gt;node_1638262851 -->
<g id="edge50" class="edge">
<title>node_1973697741&#45;&gt;node_1638262851</title>
<path fill="none" stroke="black" d="M1421.73,-431.7C1422.5,-423.98 1423.43,-414.71 1424.29,-406.11"/>
<polygon fill="black" stroke="black" points="1427.78,-406.4 1425.29,-396.1 1420.81,-405.71 1427.78,-406.4"/>
</g>
<!-- node_1938026696 -->
<g id="node56" class="node">
<title>node_1938026696</title>
<path fill="#ff8966" stroke="black" d="M1538.5,-324C1538.5,-324 1315.5,-324 1315.5,-324 1309.5,-324 1303.5,-318 1303.5,-312 1303.5,-312 1303.5,-300 1303.5,-300 1303.5,-294 1309.5,-288 1315.5,-288 1315.5,-288 1538.5,-288 1538.5,-288 1544.5,-288 1550.5,-294 1550.5,-300 1550.5,-300 1550.5,-312 1550.5,-312 1550.5,-318 1544.5,-324 1538.5,-324"/>
<text text-anchor="middle" x="1427" y="-302.3" font-family="Times,serif" font-size="14.00" fill="#edddd4">але_вам_удобно_разговаривать</text>
</g>
<!-- node_1638262851&#45;&gt;node_1938026696 -->
<g id="edge49" class="edge">
<title>node_1638262851&#45;&gt;node_1938026696</title>
<path fill="none" stroke="black" d="M1427,-359.7C1427,-351.98 1427,-342.71 1427,-334.11"/>
<polygon fill="black" stroke="black" points="1430.5,-334.1 1427,-324.1 1423.5,-334.1 1430.5,-334.1"/>
</g>
<!-- node_2147370729 -->
<g id="node57" class="node">
<title>node_2147370729</title>
<path fill="#c44536" stroke="black" d="M1481.5,-252C1481.5,-252 1372.5,-252 1372.5,-252 1366.5,-252 1360.5,-246 1360.5,-240 1360.5,-240 1360.5,-228 1360.5,-228 1360.5,-222 1366.5,-216 1372.5,-216 1372.5,-216 1481.5,-216 1481.5,-216 1487.5,-216 1493.5,-222 1493.5,-228 1493.5,-228 1493.5,-240 1493.5,-240 1493.5,-246 1487.5,-252 1481.5,-252"/>
<text text-anchor="middle" x="1427" y="-230.3" font-family="Times,serif" font-size="14.00" fill="#edddd4">я_так_чувствую</text>
</g>
<!-- node_1938026696&#45;&gt;node_2147370729 -->
<g id="edge48" class="edge">
<title>node_1938026696&#45;&gt;node_2147370729</title>
<path fill="none" stroke="black" d="M1427,-287.7C1427,-279.98 1427,-270.71 1427,-262.11"/>
<polygon fill="black" stroke="black" points="1430.5,-262.1 1427,-252.1 1423.5,-262.1 1430.5,-262.1"/>
</g>
<!-- node_1125054247 -->
<g id="node58" class="node">
<title>node_1125054247</title>
<path fill="#283d3b" stroke="black" d="M1406,-180C1406,-180 1376,-180 1376,-180 1370,-180 1364,-174 1364,-168 1364,-168 1364,-156 1364,-156 1364,-150 1370,-144 1376,-144 1376,-144 1406,-144 1406,-144 1412,-144 1418,-150 1418,-156 1418,-156 1418,-168 1418,-168 1418,-174 1412,-180 1406,-180"/>
<text text-anchor="middle" x="1391" y="-158.3" font-family="Times,serif" font-size="14.00" fill="#edddd4">ZV</text>
</g>
<!-- node_2147370729&#45;&gt;node_1125054247 -->
<g id="edge46" class="edge">
<title>node_2147370729&#45;&gt;node_1125054247</title>
<path fill="none" stroke="black" d="M1418.1,-215.7C1414,-207.73 1409.05,-198.1 1404.51,-189.26"/>
<polygon fill="black" stroke="black" points="1407.48,-187.4 1399.8,-180.1 1401.26,-190.6 1407.48,-187.4"/>
</g>
<!-- node_1282883795 -->
<g id="node59" class="node">
<title>node_1282883795</title>
<path fill="#197278" stroke="black" d="M1478,-180C1478,-180 1448,-180 1448,-180 1442,-180 1436,-174 1436,-168 1436,-168 1436,-156 1436,-156 1436,-150 1442,-144 1448,-144 1448,-144 1478,-144 1478,-144 1484,-144 1490,-150 1490,-156 1490,-156 1490,-168 1490,-168 1490,-174 1484,-180 1478,-180"/>
<text text-anchor="middle" x="1463" y="-158.3" font-family="Times,serif" font-size="14.00" fill="#edddd4">1488</text>
</g>
<!-- node_2147370729&#45;&gt;node_1282883795 -->
<g id="edge47" class="edge">
<title>node_2147370729&#45;&gt;node_1282883795</title>
<path fill="none" stroke="black" d="M1435.9,-215.7C1440,-207.73 1444.95,-198.1 1449.49,-189.26"/>
<polygon fill="black" stroke="black" points="1452.74,-190.6 1454.2,-180.1 1446.52,-187.4 1452.74,-190.6"/>
</g>
<!-- node_1678913743 -->
<g id="node61" class="node">
<title>node_1678913743</title>
<path fill="#c44536" stroke="black" d="M1641.5,-468C1641.5,-468 1532.5,-468 1532.5,-468 1526.5,-468 1520.5,-462 1520.5,-456 1520.5,-456 1520.5,-444 1520.5,-444 1520.5,-438 1526.5,-432 1532.5,-432 1532.5,-432 1641.5,-432 1641.5,-432 1647.5,-432 1653.5,-438 1653.5,-444 1653.5,-444 1653.5,-456 1653.5,-456 1653.5,-462 1647.5,-468 1641.5,-468"/>
<text text-anchor="middle" x="1587" y="-446.3" font-family="Times,serif" font-size="14.00" fill="#edddd4">я_так_чувствую</text>
</g>
<!-- node_383905672&#45;&gt;node_1678913743 -->
<g id="edge57" class="edge">
<title>node_383905672&#45;&gt;node_1678913743</title>
<path fill="none" stroke="black" d="M1587,-503.7C1587,-495.98 1587,-486.71 1587,-478.11"/>
<polygon fill="black" stroke="black" points="1590.5,-478.1 1587,-468.1 1583.5,-478.1 1590.5,-478.1"/>
</g>
<!-- node_1336718522 -->
<g id="node62" class="node">
<title>node_1336718522</title>
<path fill="#283d3b" stroke="black" d="M1605,-396C1605,-396 1557,-396 1557,-396 1551,-396 1545,-390 1545,-384 1545,-384 1545,-372 1545,-372 1545,-366 1551,-360 1557,-360 1557,-360 1605,-360 1605,-360 1611,-360 1617,-366 1617,-372 1617,-372 1617,-384 1617,-384 1617,-390 1611,-396 1605,-396"/>
<text text-anchor="middle" x="1581" y="-374.3" font-family="Times,serif" font-size="14.00" fill="#edddd4">ответ_1</text>
</g>
<!-- node_1678913743&#45;&gt;node_1336718522 -->
<g id="edge55" class="edge">
<title>node_1678913743&#45;&gt;node_1336718522</title>
<path fill="none" stroke="black" d="M1585.52,-431.7C1584.86,-423.98 1584.06,-414.71 1583.32,-406.11"/>
<polygon fill="black" stroke="black" points="1586.81,-405.77 1582.47,-396.1 1579.83,-406.37 1586.81,-405.77"/>
</g>
<!-- node_164237729 -->
<g id="node63" class="node">
<title>node_164237729</title>
<path fill="#283d3b" stroke="black" d="M1736.5,-396C1736.5,-396 1647.5,-396 1647.5,-396 1641.5,-396 1635.5,-390 1635.5,-384 1635.5,-384 1635.5,-372 1635.5,-372 1635.5,-366 1641.5,-360 1647.5,-360 1647.5,-360 1736.5,-360 1736.5,-360 1742.5,-360 1748.5,-366 1748.5,-372 1748.5,-372 1748.5,-384 1748.5,-384 1748.5,-390 1742.5,-396 1736.5,-396"/>
<text text-anchor="middle" x="1692" y="-374.3" font-family="Times,serif" font-size="14.00" fill="#edddd4">ФАКТОРИАЛ</text>
</g>
<!-- node_1678913743&#45;&gt;node_164237729 -->
<g id="edge56" class="edge">
<title>node_1678913743&#45;&gt;node_164237729</title>
<path fill="none" stroke="black" d="M1612.69,-431.88C1626.29,-422.81 1643.17,-411.55 1657.86,-401.76"/>
<polygon fill="black" stroke="black" points="1659.84,-404.65 1666.22,-396.19 1655.95,-398.82 1659.84,-404.65"/>
</g>
<!-- node_1036389144 -->
<g id="node64" class="node">
<title>node_1036389144</title>
<path fill="#c45baa" stroke="black" d="M1768,-324C1768,-324 1616,-324 1616,-324 1610,-324 1604,-318 1604,-312 1604,-312 1604,-300 1604,-300 1604,-294 1610,-288 1616,-288 1616,-288 1768,-288 1768,-288 1774,-288 1780,-294 1780,-300 1780,-300 1780,-312 1780,-312 1780,-318 1774,-324 1768,-324"/>
<text text-anchor="middle" x="1692" y="-302.3" font-family="Times,serif" font-size="14.00" fill="#edddd4">сомнительно_но_окей</text>
</g>
<!-- node_164237729&#45;&gt;node_1036389144 -->
<g id="edge54" class="edge">
<title>node_164237729&#45;&gt;node_1036389144</title>
<path fill="none" stroke="black" d="M1692,-359.7C1692,-351.98 1692,-342.71 1692,-334.11"/>
<polygon fill="black" stroke="black" points="1695.5,-334.1 1692,-324.1 1688.5,-334.1 1695.5,-334.1"/>
</g>
<!-- node_1377186043 -->
<g id="node65" class="node">
<title>node_1377186043</title>
<path fill="#283d3b" stroke="black" d="M1707,-252C1707,-252 1677,-252 1677,-252 1671,-252 1665,-246 1665,-240 1665,-240 1665,-228 1665,-228 1665,-222 1671,-216 1677,-216 1677,-216 1707,-216 1707,-216 1713,-216 1719,-222 1719,-228 1719,-228 1719,-240 1719,-240 1719,-246 1713,-252 1707,-252"/>
<text text-anchor="middle" x="1692" y="-230.3" font-family="Times,serif" font-size="14.00" fill="#edddd4">N</text>
</g>
<!-- node_1036389144&#45;&gt;node_1377186043 -->
<g id="edge53" class="edge">
<title>node_1036389144&#45;&gt;node_1377186043</title>
<path fill="none" stroke="black" d="M1692,-287.7C1692,-279.98 1692,-270.71 1692,-262.11"/>
<polygon fill="black" stroke="black" points="1695.5,-262.1 1692,-252.1 1688.5,-262.1 1695.5,-262.1"/>
</g>
<!-- node_1545010702 -->
<g id="node67" class="node">
<title>node_1545010702</title>
<path fill="#197278" stroke="black" d="M1773,-540C1773,-540 1743,-540 1743,-540 1737,-540 1731,-534 1731,-528 1731,-528 1731,-516 1731,-516 1731,-510 1737,-504 1743,-504 1743,-504 1773,-504 1773,-504 1779,-504 1785,-510 1785,-516 1785,-516 1785,-528 1785,-528 1785,-534 1779,-540 1773,-540"/>
<text text-anchor="middle" x="1758" y="-518.3" font-family="Times,serif" font-size="14.00" fill="#edddd4">0</text>
</g>
<!-- node_1422555858&#45;&gt;node_1545010702 -->
<g id="edge60" class="edge">
<title>node_1422555858&#45;&gt;node_1545010702</title>
<path fill="none" stroke="black" d="M1758,-575.7C1758,-567.98 1758,-558.71 1758,-550.11"/>
<polygon fill="black" stroke="black" points="1761.5,-550.1 1758,-540.1 1754.5,-550.1 1761.5,-550.1"/>
</g>
<!-- node_614565215 -->
<g id="node69" class="node">
<title>node_614565215</title>
<path fill="#c45baa" stroke="black" d="M1934,-684C1934,-684 1782,-684 1782,-684 1776,-684 1770,-678 1770,-672 1770,-672 1770,-660 1770,-660 1770,-654 1776,-648 1782,-648 1782,-648 1934,-648 1934,-648 1940,-648 1946,-654 1946,-660 1946,-660 1946,-672 1946,-672 1946,-678 1940,-684 1934,-684"/>
<text text-anchor="middle" x="1858" y="-662.3" font-family="Times,serif" font-size="14.00" fill="#edddd4">сомнительно_но_окей</text>
</g>
<!-- node_1114363700&#45;&gt;node_614565215 -->
<g id="edge65" class="edge">
<title>node_1114363700&#45;&gt;node_614565215</title>
<path fill="none" stroke="black" d="M1858,-719.7C1858,-711.98 1858,-702.71 1858,-694.11"/>
<polygon fill="black" stroke="black" points="1861.5,-694.1 1858,-684.1 1854.5,-694.1 1861.5,-694.1"/>
</g>
<!-- node_1610946851 -->
<g id="node71" class="node">
<title>node_1610946851</title>
<path fill="#283d3b" stroke="black" d="M2011.5,-684C2011.5,-684 1976.5,-684 1976.5,-684 1970.5,-684 1964.5,-678 1964.5,-672 1964.5,-672 1964.5,-660 1964.5,-660 1964.5,-654 1970.5,-648 1976.5,-648 1976.5,-648 2011.5,-648 2011.5,-648 2017.5,-648 2023.5,-654 2023.5,-660 2023.5,-660 2023.5,-672 2023.5,-672 2023.5,-678 2017.5,-684 2011.5,-684"/>
<text text-anchor="middle" x="1994" y="-662.3" font-family="Times,serif" font-size="14.00" fill="#edddd4">ЦАРЬ</text>
</g>
<!-- node_1114363700&#45;&gt;node_1610946851 -->
<g id="edge66" class="edge">
<title>node_1114363700&#45;&gt;node_1610946851</title>
<path fill="none" stroke="black" d="M1891.27,-719.88C1910.64,-709.91 1935.14,-697.29 1955.36,-686.89"/>
<polygon fill="black" stroke="black" points="1957.02,-689.97 1964.31,-682.28 1953.82,-683.74 1957.02,-689.97"/>
</g>
<!-- node_232985113 -->
<g id="node70" class="node">
<title>node_232985113</title>
<path fill="#283d3b" stroke="black" d="M1921,-612C1921,-612 1891,-612 1891,-612 1885,-612 1879,-606 1879,-600 1879,-600 1879,-588 1879,-588 1879,-582 1885,-576 1891,-576 1891,-576 1921,-576 1921,-576 1927,-576 1933,-582 1933,-588 1933,-588 1933,-600 1933,-600 1933,-606 1927,-612 1921,-612"/>
<text text-anchor="middle" x="1906" y="-590.3" font-family="Times,serif" font-size="14.00" fill="#edddd4">x</text>
</g>
<!-- node_614565215&#45;&gt;node_232985113 -->
<g id="edge64" class="edge">
<title>node_614565215&#45;&gt;node_232985113</title>
<path fill="none" stroke="black" d="M1869.87,-647.7C1875.5,-639.47 1882.35,-629.48 1888.57,-620.42"/>
<polygon fill="black" stroke="black" points="1891.5,-622.33 1894.27,-612.1 1885.73,-618.37 1891.5,-622.33"/>
</g>
</g>
</svg>
