<?xml version="1.0" encoding="UTF-8" standalone="no"?>
<!DOCTYPE svg PUBLIC "-//W3C//DTD SVG 1.1//EN"
 "http://www.w3.org/Graphics/SVG/1.1/DTD/svg11.dtd">
<!-- Generated by graphviz version 2.43.0 (0)
 -->
<!-- Title: TREE Pages: 1 -->
<svg width="2033pt" height="908pt"
 viewBox="0.00 0.00 2032.50 908.00" xmlns="http://www.w3.org/2000/svg" xmlns:xlink="http://www.w3.org/1999/xlink">
<g id="graph0" class="graph" transform="scale(1 1) rotate(0) translate(4 904)">
<title>TREE</title>
<polygon fill="#edddd4" stroke="transparent" points="-4,4 -4,-904 2028.5,-904 2028.5,4 -4,4"/>
<!-- node_1656329069 -->
<g id="node1" class="node">
<title>node_1656329069</title>
<path fill="#c45baa" stroke="black" d="M1563,-900C1563,-900 1411,-900 1411,-900 1405,-900 1399,-894 1399,-888 1399,-888 1399,-876 1399,-876 1399,-870 1405,-864 1411,-864 1411,-864 1563,-864 1563,-864 1569,-864 1575,-870 1575,-876 1575,-876 1575,-888 1575,-888 1575,-894 1569,-900 1563,-900"/>
<text text-anchor="middle" x="1487" y="-878.3" font-family="Times,serif" font-size="14.00" fill="#edddd4">сомнительно_но_окей</text>
</g>
<!-- node_461268193 -->
<g id="node2" class="node">
<title>node_461268193</title>
<path fill="#c45baa" stroke="black" d="M1480,-828C1480,-828 1328,-828 1328,-828 1322,-828 1316,-822 1316,-816 1316,-816 1316,-804 1316,-804 1316,-798 1322,-792 1328,-792 1328,-792 1480,-792 1480,-792 1486,-792 1492,-798 1492,-804 1492,-804 1492,-816 1492,-816 1492,-822 1486,-828 1480,-828"/>
<text text-anchor="middle" x="1404" y="-806.3" font-family="Times,serif" font-size="14.00" fill="#edddd4">сомнительно_но_окей</text>
</g>
<!-- node_1656329069&#45;&gt;node_461268193 -->
<g id="edge71" class="edge">
<title>node_1656329069&#45;&gt;node_461268193</title>
<path fill="none" stroke="black" d="M1466.48,-863.7C1456.13,-854.97 1443.41,-844.24 1432.16,-834.75"/>
<polygon fill="black" stroke="black" points="1434.18,-831.88 1424.28,-828.1 1429.67,-837.23 1434.18,-831.88"/>
</g>
<!-- node_1673430442 -->
<g id="node44" class="node">
<title>node_1673430442</title>
<path fill="#7d387d" stroke="black" d="M1632.5,-828C1632.5,-828 1535.5,-828 1535.5,-828 1529.5,-828 1523.5,-822 1523.5,-816 1523.5,-816 1523.5,-804 1523.5,-804 1523.5,-798 1529.5,-792 1535.5,-792 1535.5,-792 1632.5,-792 1632.5,-792 1638.5,-792 1644.5,-798 1644.5,-804 1644.5,-804 1644.5,-816 1644.5,-816 1644.5,-822 1638.5,-828 1632.5,-828"/>
<text text-anchor="middle" x="1584" y="-806.3" font-family="Times,serif" font-size="14.00" fill="#edddd4">россии_нужен</text>
</g>
<!-- node_1656329069&#45;&gt;node_1673430442 -->
<g id="edge72" class="edge">
<title>node_1656329069&#45;&gt;node_1673430442</title>
<path fill="none" stroke="black" d="M1510.98,-863.7C1523.31,-854.8 1538.52,-843.82 1551.85,-834.2"/>
<polygon fill="black" stroke="black" points="1554.24,-836.79 1560.3,-828.1 1550.14,-831.12 1554.24,-836.79"/>
</g>
<!-- node_900215826 -->
<g id="node3" class="node">
<title>node_900215826</title>
<path fill="#7d387d" stroke="black" d="M1401.5,-756C1401.5,-756 1304.5,-756 1304.5,-756 1298.5,-756 1292.5,-750 1292.5,-744 1292.5,-744 1292.5,-732 1292.5,-732 1292.5,-726 1298.5,-720 1304.5,-720 1304.5,-720 1401.5,-720 1401.5,-720 1407.5,-720 1413.5,-726 1413.5,-732 1413.5,-732 1413.5,-744 1413.5,-744 1413.5,-750 1407.5,-756 1401.5,-756"/>
<text text-anchor="middle" x="1353" y="-734.3" font-family="Times,serif" font-size="14.00" fill="#edddd4">россии_нужен</text>
</g>
<!-- node_461268193&#45;&gt;node_900215826 -->
<g id="edge41" class="edge">
<title>node_461268193&#45;&gt;node_900215826</title>
<path fill="none" stroke="black" d="M1391.39,-791.7C1385.4,-783.47 1378.12,-773.48 1371.52,-764.42"/>
<polygon fill="black" stroke="black" points="1374.18,-762.13 1365.46,-756.1 1368.52,-766.25 1374.18,-762.13"/>
</g>
<!-- node_1914282256 -->
<g id="node4" class="node">
<title>node_1914282256</title>
<path fill="#7d387d" stroke="black" d="M1162,-684C1162,-684 1040,-684 1040,-684 1034,-684 1028,-678 1028,-672 1028,-672 1028,-660 1028,-660 1028,-654 1034,-648 1040,-648 1040,-648 1162,-648 1162,-648 1168,-648 1174,-654 1174,-660 1174,-660 1174,-672 1174,-672 1174,-678 1168,-684 1162,-684"/>
<text text-anchor="middle" x="1101" y="-662.3" font-family="Times,serif" font-size="14.00" fill="#edddd4">олег_не_торопись</text>
</g>
<!-- node_900215826&#45;&gt;node_1914282256 -->
<g id="edge39" class="edge">
<title>node_900215826&#45;&gt;node_1914282256</title>
<path fill="none" stroke="black" d="M1292.32,-720.14C1256.22,-710.12 1210.24,-697.34 1172.4,-686.83"/>
<polygon fill="black" stroke="black" points="1173.04,-683.38 1162.47,-684.07 1171.16,-690.12 1173.04,-683.38"/>
</g>
<!-- node_2067847556 -->
<g id="node40" class="node">
<title>node_2067847556</title>
<path fill="#c45baa" stroke="black" d="M1429,-684C1429,-684 1277,-684 1277,-684 1271,-684 1265,-678 1265,-672 1265,-672 1265,-660 1265,-660 1265,-654 1271,-648 1277,-648 1277,-648 1429,-648 1429,-648 1435,-648 1441,-654 1441,-660 1441,-660 1441,-672 1441,-672 1441,-678 1435,-684 1429,-684"/>
<text text-anchor="middle" x="1353" y="-662.3" font-family="Times,serif" font-size="14.00" fill="#edddd4">сомнительно_но_окей</text>
</g>
<!-- node_900215826&#45;&gt;node_2067847556 -->
<g id="edge40" class="edge">
<title>node_900215826&#45;&gt;node_2067847556</title>
<path fill="none" stroke="black" d="M1353,-719.7C1353,-711.98 1353,-702.71 1353,-694.11"/>
<polygon fill="black" stroke="black" points="1356.5,-694.1 1353,-684.1 1349.5,-694.1 1356.5,-694.1"/>
</g>
<!-- node_2013835758 -->
<g id="node5" class="node">
<title>node_2013835758</title>
<path fill="#c45baa" stroke="black" d="M1102,-612C1102,-612 950,-612 950,-612 944,-612 938,-606 938,-600 938,-600 938,-588 938,-588 938,-582 944,-576 950,-576 950,-576 1102,-576 1102,-576 1108,-576 1114,-582 1114,-588 1114,-588 1114,-600 1114,-600 1114,-606 1108,-612 1102,-612"/>
<text text-anchor="middle" x="1026" y="-590.3" font-family="Times,serif" font-size="14.00" fill="#edddd4">сомнительно_но_окей</text>
</g>
<!-- node_1914282256&#45;&gt;node_2013835758 -->
<g id="edge35" class="edge">
<title>node_1914282256&#45;&gt;node_2013835758</title>
<path fill="none" stroke="black" d="M1082.46,-647.7C1073.2,-639.05 1061.84,-628.45 1051.74,-619.03"/>
<polygon fill="black" stroke="black" points="1054.02,-616.37 1044.33,-612.1 1049.25,-621.49 1054.02,-616.37"/>
</g>
<!-- node_77690573 -->
<g id="node6" class="node">
<title>node_77690573</title>
<path fill="#c45baa" stroke="black" d="M912,-540C912,-540 760,-540 760,-540 754,-540 748,-534 748,-528 748,-528 748,-516 748,-516 748,-510 754,-504 760,-504 760,-504 912,-504 912,-504 918,-504 924,-510 924,-516 924,-516 924,-528 924,-528 924,-534 918,-540 912,-540"/>
<text text-anchor="middle" x="836" y="-518.3" font-family="Times,serif" font-size="14.00" fill="#edddd4">сомнительно_но_окей</text>
</g>
<!-- node_2013835758&#45;&gt;node_77690573 -->
<g id="edge33" class="edge">
<title>node_2013835758&#45;&gt;node_77690573</title>
<path fill="none" stroke="black" d="M979.52,-575.88C953.08,-566.14 919.8,-553.87 891.94,-543.61"/>
<polygon fill="black" stroke="black" points="892.92,-540.24 882.33,-540.07 890.5,-546.81 892.92,-540.24"/>
</g>
<!-- node_872288649 -->
<g id="node38" class="node">
<title>node_872288649</title>
<path fill="#000000" stroke="black" d="M1136,-540C1136,-540 954,-540 954,-540 948,-540 942,-534 942,-528 942,-528 942,-516 942,-516 942,-510 948,-504 954,-504 954,-504 1136,-504 1136,-504 1142,-504 1148,-510 1148,-516 1148,-516 1148,-528 1148,-528 1148,-534 1142,-540 1136,-540"/>
<text text-anchor="middle" x="1045" y="-518.3" font-family="Times,serif" font-size="14.00" fill="#edddd4">никто_никогда_не_вернет</text>
</g>
<!-- node_2013835758&#45;&gt;node_872288649 -->
<g id="edge34" class="edge">
<title>node_2013835758&#45;&gt;node_872288649</title>
<path fill="none" stroke="black" d="M1030.7,-575.7C1032.81,-567.9 1035.36,-558.51 1037.72,-549.83"/>
<polygon fill="black" stroke="black" points="1041.12,-550.67 1040.36,-540.1 1034.36,-548.84 1041.12,-550.67"/>
</g>
<!-- node_247428685 -->
<g id="node7" class="node">
<title>node_247428685</title>
<path fill="#c45baa" stroke="black" d="M702,-468C702,-468 550,-468 550,-468 544,-468 538,-462 538,-456 538,-456 538,-444 538,-444 538,-438 544,-432 550,-432 550,-432 702,-432 702,-432 708,-432 714,-438 714,-444 714,-444 714,-456 714,-456 714,-462 708,-468 702,-468"/>
<text text-anchor="middle" x="626" y="-446.3" font-family="Times,serif" font-size="14.00" fill="#edddd4">сомнительно_но_окей</text>
</g>
<!-- node_77690573&#45;&gt;node_247428685 -->
<g id="edge30" class="edge">
<title>node_77690573&#45;&gt;node_247428685</title>
<path fill="none" stroke="black" d="M784.9,-503.97C755.43,-494.14 718.19,-481.73 687.17,-471.39"/>
<polygon fill="black" stroke="black" points="687.93,-467.95 677.33,-468.11 685.71,-474.59 687.93,-467.95"/>
</g>
<!-- node_1151969084 -->
<g id="node30" class="node">
<title>node_1151969084</title>
<path fill="#ff8966" stroke="black" d="M967.5,-468C967.5,-468 744.5,-468 744.5,-468 738.5,-468 732.5,-462 732.5,-456 732.5,-456 732.5,-444 732.5,-444 732.5,-438 738.5,-432 744.5,-432 744.5,-432 967.5,-432 967.5,-432 973.5,-432 979.5,-438 979.5,-444 979.5,-444 979.5,-456 979.5,-456 979.5,-462 973.5,-468 967.5,-468"/>
<text text-anchor="middle" x="856" y="-446.3" font-family="Times,serif" font-size="14.00" fill="#edddd4">але_вам_удобно_разговаривать</text>
</g>
<!-- node_77690573&#45;&gt;node_1151969084 -->
<g id="edge31" class="edge">
<title>node_77690573&#45;&gt;node_1151969084</title>
<path fill="none" stroke="black" d="M840.94,-503.7C843.17,-495.9 845.85,-486.51 848.33,-477.83"/>
<polygon fill="black" stroke="black" points="851.73,-478.68 851.11,-468.1 845,-476.76 851.73,-478.68"/>
</g>
<!-- node_1332026841 -->
<g id="node8" class="node">
<title>node_1332026841</title>
<path fill="#c45baa" stroke="black" d="M483,-396C483,-396 331,-396 331,-396 325,-396 319,-390 319,-384 319,-384 319,-372 319,-372 319,-366 325,-360 331,-360 331,-360 483,-360 483,-360 489,-360 495,-366 495,-372 495,-372 495,-384 495,-384 495,-390 489,-396 483,-396"/>
<text text-anchor="middle" x="407" y="-374.3" font-family="Times,serif" font-size="14.00" fill="#edddd4">сомнительно_но_окей</text>
</g>
<!-- node_247428685&#45;&gt;node_1332026841 -->
<g id="edge21" class="edge">
<title>node_247428685&#45;&gt;node_1332026841</title>
<path fill="none" stroke="black" d="M572.71,-431.97C541.84,-422.1 502.8,-409.62 470.37,-399.25"/>
<polygon fill="black" stroke="black" points="471.12,-395.82 460.53,-396.11 468.99,-402.49 471.12,-395.82"/>
</g>
<!-- node_486420169 -->
<g id="node24" class="node">
<title>node_486420169</title>
<path fill="#ff8966" stroke="black" d="M748.5,-396C748.5,-396 525.5,-396 525.5,-396 519.5,-396 513.5,-390 513.5,-384 513.5,-384 513.5,-372 513.5,-372 513.5,-366 519.5,-360 525.5,-360 525.5,-360 748.5,-360 748.5,-360 754.5,-360 760.5,-366 760.5,-372 760.5,-372 760.5,-384 760.5,-384 760.5,-390 754.5,-396 748.5,-396"/>
<text text-anchor="middle" x="637" y="-374.3" font-family="Times,serif" font-size="14.00" fill="#edddd4">але_вам_удобно_разговаривать</text>
</g>
<!-- node_247428685&#45;&gt;node_486420169 -->
<g id="edge22" class="edge">
<title>node_247428685&#45;&gt;node_486420169</title>
<path fill="none" stroke="black" d="M628.72,-431.7C629.93,-423.98 631.39,-414.71 632.74,-406.11"/>
<polygon fill="black" stroke="black" points="636.22,-406.53 634.31,-396.1 629.3,-405.44 636.22,-406.53"/>
</g>
<!-- node_822390297 -->
<g id="node9" class="node">
<title>node_822390297</title>
<path fill="#c45baa" stroke="black" d="M316,-324C316,-324 164,-324 164,-324 158,-324 152,-318 152,-312 152,-312 152,-300 152,-300 152,-294 158,-288 164,-288 164,-288 316,-288 316,-288 322,-288 328,-294 328,-300 328,-300 328,-312 328,-312 328,-318 322,-324 316,-324"/>
<text text-anchor="middle" x="240" y="-302.3" font-family="Times,serif" font-size="14.00" fill="#edddd4">сомнительно_но_окей</text>
</g>
<!-- node_1332026841&#45;&gt;node_822390297 -->
<g id="edge14" class="edge">
<title>node_1332026841&#45;&gt;node_822390297</title>
<path fill="none" stroke="black" d="M366.15,-359.88C343.22,-350.26 314.42,-338.19 290.13,-328.01"/>
<polygon fill="black" stroke="black" points="291.3,-324.71 280.72,-324.07 288.59,-331.16 291.3,-324.71"/>
</g>
<!-- node_1452123563 -->
<g id="node17" class="node">
<title>node_1452123563</title>
<path fill="#000000" stroke="black" d="M461.5,-324C461.5,-324 358.5,-324 358.5,-324 352.5,-324 346.5,-318 346.5,-312 346.5,-312 346.5,-300 346.5,-300 346.5,-294 352.5,-288 358.5,-288 358.5,-288 461.5,-288 461.5,-288 467.5,-288 473.5,-294 473.5,-300 473.5,-300 473.5,-312 473.5,-312 473.5,-318 467.5,-324 461.5,-324"/>
<text text-anchor="middle" x="410" y="-302.3" font-family="Times,serif" font-size="14.00" fill="#edddd4">какая_разница</text>
</g>
<!-- node_1332026841&#45;&gt;node_1452123563 -->
<g id="edge15" class="edge">
<title>node_1332026841&#45;&gt;node_1452123563</title>
<path fill="none" stroke="black" d="M407.74,-359.7C408.07,-351.98 408.47,-342.71 408.84,-334.11"/>
<polygon fill="black" stroke="black" points="412.34,-334.25 409.27,-324.1 405.34,-333.95 412.34,-334.25"/>
</g>
<!-- node_1911545444 -->
<g id="node10" class="node">
<title>node_1911545444</title>
<path fill="#000000" stroke="black" d="M291.5,-252C291.5,-252 188.5,-252 188.5,-252 182.5,-252 176.5,-246 176.5,-240 176.5,-240 176.5,-228 176.5,-228 176.5,-222 182.5,-216 188.5,-216 188.5,-216 291.5,-216 291.5,-216 297.5,-216 303.5,-222 303.5,-228 303.5,-228 303.5,-240 303.5,-240 303.5,-246 297.5,-252 291.5,-252"/>
<text text-anchor="middle" x="240" y="-230.3" font-family="Times,serif" font-size="14.00" fill="#edddd4">какая_разница</text>
</g>
<!-- node_822390297&#45;&gt;node_1911545444 -->
<g id="edge7" class="edge">
<title>node_822390297&#45;&gt;node_1911545444</title>
<path fill="none" stroke="black" d="M240,-287.7C240,-279.98 240,-270.71 240,-262.11"/>
<polygon fill="black" stroke="black" points="243.5,-262.1 240,-252.1 236.5,-262.1 243.5,-262.1"/>
</g>
<!-- node_1236640886 -->
<g id="node11" class="node">
<title>node_1236640886</title>
<path fill="#000000" stroke="black" d="M173.5,-180C173.5,-180 70.5,-180 70.5,-180 64.5,-180 58.5,-174 58.5,-168 58.5,-168 58.5,-156 58.5,-156 58.5,-150 64.5,-144 70.5,-144 70.5,-144 173.5,-144 173.5,-144 179.5,-144 185.5,-150 185.5,-156 185.5,-156 185.5,-168 185.5,-168 185.5,-174 179.5,-180 173.5,-180"/>
<text text-anchor="middle" x="122" y="-158.3" font-family="Times,serif" font-size="14.00" fill="#edddd4">какая_разница</text>
</g>
<!-- node_1911545444&#45;&gt;node_1236640886 -->
<g id="edge5" class="edge">
<title>node_1911545444&#45;&gt;node_1236640886</title>
<path fill="none" stroke="black" d="M211.13,-215.88C195.71,-206.72 176.52,-195.34 159.9,-185.48"/>
<polygon fill="black" stroke="black" points="161.36,-182.28 150.98,-180.19 157.79,-188.3 161.36,-182.28"/>
</g>
<!-- node_397378600 -->
<g id="node14" class="node">
<title>node_397378600</title>
<path fill="#c44536" stroke="black" d="M266,-180C266,-180 236,-180 236,-180 230,-180 224,-174 224,-168 224,-168 224,-156 224,-156 224,-150 230,-144 236,-144 236,-144 266,-144 266,-144 272,-144 278,-150 278,-156 278,-156 278,-168 278,-168 278,-174 272,-180 266,-180"/>
<text text-anchor="middle" x="251" y="-158.3" font-family="Times,serif" font-size="14.00" fill="#edddd4">==</text>
</g>
<!-- node_1911545444&#45;&gt;node_397378600 -->
<g id="edge6" class="edge">
<title>node_1911545444&#45;&gt;node_397378600</title>
<path fill="none" stroke="black" d="M242.72,-215.7C243.93,-207.98 245.39,-198.71 246.74,-190.11"/>
<polygon fill="black" stroke="black" points="250.22,-190.53 248.31,-180.1 243.3,-189.44 250.22,-190.53"/>
</g>
<!-- node_1217063973 -->
<g id="node12" class="node">
<title>node_1217063973</title>
<path fill="#000000" stroke="black" d="M194,-108C194,-108 12,-108 12,-108 6,-108 0,-102 0,-96 0,-96 0,-84 0,-84 0,-78 6,-72 12,-72 12,-72 194,-72 194,-72 200,-72 206,-78 206,-84 206,-84 206,-96 206,-96 206,-102 200,-108 194,-108"/>
<text text-anchor="middle" x="103" y="-86.3" font-family="Times,serif" font-size="14.00" fill="#edddd4">никто_никогда_не_вернет</text>
</g>
<!-- node_1236640886&#45;&gt;node_1217063973 -->
<g id="edge2" class="edge">
<title>node_1236640886&#45;&gt;node_1217063973</title>
<path fill="none" stroke="black" d="M117.3,-143.7C115.19,-135.9 112.64,-126.51 110.28,-117.83"/>
<polygon fill="black" stroke="black" points="113.64,-116.84 107.64,-108.1 106.88,-118.67 113.64,-116.84"/>
</g>
<!-- node_1037079996 -->
<g id="node13" class="node">
<title>node_1037079996</title>
<path fill="#197278" stroke="black" d="M118,-36C118,-36 88,-36 88,-36 82,-36 76,-30 76,-24 76,-24 76,-12 76,-12 76,-6 82,0 88,0 88,0 118,0 118,0 124,0 130,-6 130,-12 130,-12 130,-24 130,-24 130,-30 124,-36 118,-36"/>
<text text-anchor="middle" x="103" y="-14.3" font-family="Times,serif" font-size="14.00" fill="#edddd4">1</text>
</g>
<!-- node_1217063973&#45;&gt;node_1037079996 -->
<g id="edge1" class="edge">
<title>node_1217063973&#45;&gt;node_1037079996</title>
<path fill="none" stroke="black" d="M103,-71.7C103,-63.98 103,-54.71 103,-46.11"/>
<polygon fill="black" stroke="black" points="106.5,-46.1 103,-36.1 99.5,-46.1 106.5,-46.1"/>
</g>
<!-- node_1518349952 -->
<g id="node15" class="node">
<title>node_1518349952</title>
<path fill="#283d3b" stroke="black" d="M266,-108C266,-108 236,-108 236,-108 230,-108 224,-102 224,-96 224,-96 224,-84 224,-84 224,-78 230,-72 236,-72 236,-72 266,-72 266,-72 272,-72 278,-78 278,-84 278,-84 278,-96 278,-96 278,-102 272,-108 266,-108"/>
<text text-anchor="middle" x="251" y="-86.3" font-family="Times,serif" font-size="14.00" fill="#edddd4">n</text>
</g>
<!-- node_397378600&#45;&gt;node_1518349952 -->
<g id="edge3" class="edge">
<title>node_397378600&#45;&gt;node_1518349952</title>
<path fill="none" stroke="black" d="M251,-143.7C251,-135.98 251,-126.71 251,-118.11"/>
<polygon fill="black" stroke="black" points="254.5,-118.1 251,-108.1 247.5,-118.1 254.5,-118.1"/>
</g>
<!-- node_627936833 -->
<g id="node16" class="node">
<title>node_627936833</title>
<path fill="#197278" stroke="black" d="M338,-108C338,-108 308,-108 308,-108 302,-108 296,-102 296,-96 296,-96 296,-84 296,-84 296,-78 302,-72 308,-72 308,-72 338,-72 338,-72 344,-72 350,-78 350,-84 350,-84 350,-96 350,-96 350,-102 344,-108 338,-108"/>
<text text-anchor="middle" x="323" y="-86.3" font-family="Times,serif" font-size="14.00" fill="#edddd4">0</text>
</g>
<!-- node_397378600&#45;&gt;node_627936833 -->
<g id="edge4" class="edge">
<title>node_397378600&#45;&gt;node_627936833</title>
<path fill="none" stroke="black" d="M268.8,-143.7C277.6,-135.14 288.38,-124.66 298,-115.3"/>
<polygon fill="black" stroke="black" points="300.68,-117.58 305.41,-108.1 295.8,-112.57 300.68,-117.58"/>
</g>
<!-- node_290364231 -->
<g id="node18" class="node">
<title>node_290364231</title>
<path fill="#000000" stroke="black" d="M456.5,-252C456.5,-252 353.5,-252 353.5,-252 347.5,-252 341.5,-246 341.5,-240 341.5,-240 341.5,-228 341.5,-228 341.5,-222 347.5,-216 353.5,-216 353.5,-216 456.5,-216 456.5,-216 462.5,-216 468.5,-222 468.5,-228 468.5,-228 468.5,-240 468.5,-240 468.5,-246 462.5,-252 456.5,-252"/>
<text text-anchor="middle" x="405" y="-230.3" font-family="Times,serif" font-size="14.00" fill="#edddd4">какая_разница</text>
</g>
<!-- node_1452123563&#45;&gt;node_290364231 -->
<g id="edge12" class="edge">
<title>node_1452123563&#45;&gt;node_290364231</title>
<path fill="none" stroke="black" d="M408.76,-287.7C408.21,-279.98 407.55,-270.71 406.94,-262.11"/>
<polygon fill="black" stroke="black" points="410.43,-261.83 406.22,-252.1 403.44,-262.33 410.43,-261.83"/>
</g>
<!-- node_1249002793 -->
<g id="node21" class="node">
<title>node_1249002793</title>
<path fill="#c44536" stroke="black" d="M565,-252C565,-252 535,-252 535,-252 529,-252 523,-246 523,-240 523,-240 523,-228 523,-228 523,-222 529,-216 535,-216 535,-216 565,-216 565,-216 571,-216 577,-222 577,-228 577,-228 577,-240 577,-240 577,-246 571,-252 565,-252"/>
<text text-anchor="middle" x="550" y="-230.3" font-family="Times,serif" font-size="14.00" fill="#edddd4">==</text>
</g>
<!-- node_1452123563&#45;&gt;node_1249002793 -->
<g id="edge13" class="edge">
<title>node_1452123563&#45;&gt;node_1249002793</title>
<path fill="none" stroke="black" d="M444.25,-287.88C465.26,-277.37 492.15,-263.92 513.56,-253.22"/>
<polygon fill="black" stroke="black" points="515.28,-256.27 522.66,-248.67 512.15,-250.01 515.28,-256.27"/>
</g>
<!-- node_1985028076 -->
<g id="node19" class="node">
<title>node_1985028076</title>
<path fill="#000000" stroke="black" d="M493,-180C493,-180 311,-180 311,-180 305,-180 299,-174 299,-168 299,-168 299,-156 299,-156 299,-150 305,-144 311,-144 311,-144 493,-144 493,-144 499,-144 505,-150 505,-156 505,-156 505,-168 505,-168 505,-174 499,-180 493,-180"/>
<text text-anchor="middle" x="402" y="-158.3" font-family="Times,serif" font-size="14.00" fill="#edddd4">никто_никогда_не_вернет</text>
</g>
<!-- node_290364231&#45;&gt;node_1985028076 -->
<g id="edge9" class="edge">
<title>node_290364231&#45;&gt;node_1985028076</title>
<path fill="none" stroke="black" d="M404.26,-215.7C403.93,-207.98 403.53,-198.71 403.16,-190.11"/>
<polygon fill="black" stroke="black" points="406.66,-189.95 402.73,-180.1 399.66,-190.25 406.66,-189.95"/>
</g>
<!-- node_2088556368 -->
<g id="node20" class="node">
<title>node_2088556368</title>
<path fill="#197278" stroke="black" d="M417,-108C417,-108 387,-108 387,-108 381,-108 375,-102 375,-96 375,-96 375,-84 375,-84 375,-78 381,-72 387,-72 387,-72 417,-72 417,-72 423,-72 429,-78 429,-84 429,-84 429,-96 429,-96 429,-102 423,-108 417,-108"/>
<text text-anchor="middle" x="402" y="-86.3" font-family="Times,serif" font-size="14.00" fill="#edddd4">1</text>
</g>
<!-- node_1985028076&#45;&gt;node_2088556368 -->
<g id="edge8" class="edge">
<title>node_1985028076&#45;&gt;node_2088556368</title>
<path fill="none" stroke="black" d="M402,-143.7C402,-135.98 402,-126.71 402,-118.11"/>
<polygon fill="black" stroke="black" points="405.5,-118.1 402,-108.1 398.5,-118.1 405.5,-118.1"/>
</g>
<!-- node_108827545 -->
<g id="node22" class="node">
<title>node_108827545</title>
<path fill="#283d3b" stroke="black" d="M565,-180C565,-180 535,-180 535,-180 529,-180 523,-174 523,-168 523,-168 523,-156 523,-156 523,-150 529,-144 535,-144 535,-144 565,-144 565,-144 571,-144 577,-150 577,-156 577,-156 577,-168 577,-168 577,-174 571,-180 565,-180"/>
<text text-anchor="middle" x="550" y="-158.3" font-family="Times,serif" font-size="14.00" fill="#edddd4">n</text>
</g>
<!-- node_1249002793&#45;&gt;node_108827545 -->
<g id="edge10" class="edge">
<title>node_1249002793&#45;&gt;node_108827545</title>
<path fill="none" stroke="black" d="M550,-215.7C550,-207.98 550,-198.71 550,-190.11"/>
<polygon fill="black" stroke="black" points="553.5,-190.1 550,-180.1 546.5,-190.1 553.5,-190.1"/>
</g>
<!-- node_1896682585 -->
<g id="node23" class="node">
<title>node_1896682585</title>
<path fill="#197278" stroke="black" d="M637,-180C637,-180 607,-180 607,-180 601,-180 595,-174 595,-168 595,-168 595,-156 595,-156 595,-150 601,-144 607,-144 607,-144 637,-144 637,-144 643,-144 649,-150 649,-156 649,-156 649,-168 649,-168 649,-174 643,-180 637,-180"/>
<text text-anchor="middle" x="622" y="-158.3" font-family="Times,serif" font-size="14.00" fill="#edddd4">1</text>
</g>
<!-- node_1249002793&#45;&gt;node_1896682585 -->
<g id="edge11" class="edge">
<title>node_1249002793&#45;&gt;node_1896682585</title>
<path fill="none" stroke="black" d="M567.8,-215.7C576.6,-207.14 587.38,-196.66 597,-187.3"/>
<polygon fill="black" stroke="black" points="599.68,-189.58 604.41,-180.1 594.8,-184.57 599.68,-189.58"/>
</g>
<!-- node_587959637 -->
<g id="node25" class="node">
<title>node_587959637</title>
<path fill="#c44536" stroke="black" d="M691.5,-324C691.5,-324 582.5,-324 582.5,-324 576.5,-324 570.5,-318 570.5,-312 570.5,-312 570.5,-300 570.5,-300 570.5,-294 576.5,-288 582.5,-288 582.5,-288 691.5,-288 691.5,-288 697.5,-288 703.5,-294 703.5,-300 703.5,-300 703.5,-312 703.5,-312 703.5,-318 697.5,-324 691.5,-324"/>
<text text-anchor="middle" x="637" y="-302.3" font-family="Times,serif" font-size="14.00" fill="#edddd4">я_так_чувствую</text>
</g>
<!-- node_486420169&#45;&gt;node_587959637 -->
<g id="edge20" class="edge">
<title>node_486420169&#45;&gt;node_587959637</title>
<path fill="none" stroke="black" d="M637,-359.7C637,-351.98 637,-342.71 637,-334.11"/>
<polygon fill="black" stroke="black" points="640.5,-334.1 637,-324.1 633.5,-334.1 640.5,-334.1"/>
</g>
<!-- node_1266076148 -->
<g id="node26" class="node">
<title>node_1266076148</title>
<path fill="#283d3b" stroke="black" d="M648,-252C648,-252 618,-252 618,-252 612,-252 606,-246 606,-240 606,-240 606,-228 606,-228 606,-222 612,-216 618,-216 618,-216 648,-216 648,-216 654,-216 660,-222 660,-228 660,-228 660,-240 660,-240 660,-246 654,-252 648,-252"/>
<text text-anchor="middle" x="633" y="-230.3" font-family="Times,serif" font-size="14.00" fill="#edddd4">n__</text>
</g>
<!-- node_587959637&#45;&gt;node_1266076148 -->
<g id="edge18" class="edge">
<title>node_587959637&#45;&gt;node_1266076148</title>
<path fill="none" stroke="black" d="M636.01,-287.7C635.57,-279.98 635.04,-270.71 634.55,-262.11"/>
<polygon fill="black" stroke="black" points="638.04,-261.89 633.98,-252.1 631.05,-262.29 638.04,-261.89"/>
</g>
<!-- node_1414790893 -->
<g id="node27" class="node">
<title>node_1414790893</title>
<path fill="#c44536" stroke="black" d="M720,-252C720,-252 690,-252 690,-252 684,-252 678,-246 678,-240 678,-240 678,-228 678,-228 678,-222 684,-216 690,-216 690,-216 720,-216 720,-216 726,-216 732,-222 732,-228 732,-228 732,-240 732,-240 732,-246 726,-252 720,-252"/>
<text text-anchor="middle" x="705" y="-230.3" font-family="Times,serif" font-size="14.00" fill="#edddd4">&#45;</text>
</g>
<!-- node_587959637&#45;&gt;node_1414790893 -->
<g id="edge19" class="edge">
<title>node_587959637&#45;&gt;node_1414790893</title>
<path fill="none" stroke="black" d="M653.81,-287.7C662.13,-279.14 672.31,-268.66 681.39,-259.3"/>
<polygon fill="black" stroke="black" points="683.93,-261.72 688.38,-252.1 678.91,-256.84 683.93,-261.72"/>
</g>
<!-- node_261724600 -->
<g id="node28" class="node">
<title>node_261724600</title>
<path fill="#283d3b" stroke="black" d="M718,-180C718,-180 688,-180 688,-180 682,-180 676,-174 676,-168 676,-168 676,-156 676,-156 676,-150 682,-144 688,-144 688,-144 718,-144 718,-144 724,-144 730,-150 730,-156 730,-156 730,-168 730,-168 730,-174 724,-180 718,-180"/>
<text text-anchor="middle" x="703" y="-158.3" font-family="Times,serif" font-size="14.00" fill="#edddd4">n</text>
</g>
<!-- node_1414790893&#45;&gt;node_261724600 -->
<g id="edge16" class="edge">
<title>node_1414790893&#45;&gt;node_261724600</title>
<path fill="none" stroke="black" d="M704.51,-215.7C704.29,-207.98 704.02,-198.71 703.77,-190.11"/>
<polygon fill="black" stroke="black" points="707.27,-190 703.49,-180.1 700.28,-190.2 707.27,-190"/>
</g>
<!-- node_1349215934 -->
<g id="node29" class="node">
<title>node_1349215934</title>
<path fill="#197278" stroke="black" d="M790,-180C790,-180 760,-180 760,-180 754,-180 748,-174 748,-168 748,-168 748,-156 748,-156 748,-150 754,-144 760,-144 760,-144 790,-144 790,-144 796,-144 802,-150 802,-156 802,-156 802,-168 802,-168 802,-174 796,-180 790,-180"/>
<text text-anchor="middle" x="775" y="-158.3" font-family="Times,serif" font-size="14.00" fill="#edddd4">1</text>
</g>
<!-- node_1414790893&#45;&gt;node_1349215934 -->
<g id="edge17" class="edge">
<title>node_1414790893&#45;&gt;node_1349215934</title>
<path fill="none" stroke="black" d="M722.3,-215.7C730.86,-207.14 741.34,-196.66 750.7,-187.3"/>
<polygon fill="black" stroke="black" points="753.3,-189.65 757.9,-180.1 748.35,-184.7 753.3,-189.65"/>
</g>
<!-- node_267550859 -->
<g id="node31" class="node">
<title>node_267550859</title>
<path fill="#c44536" stroke="black" d="M910.5,-396C910.5,-396 801.5,-396 801.5,-396 795.5,-396 789.5,-390 789.5,-384 789.5,-384 789.5,-372 789.5,-372 789.5,-366 795.5,-360 801.5,-360 801.5,-360 910.5,-360 910.5,-360 916.5,-360 922.5,-366 922.5,-372 922.5,-372 922.5,-384 922.5,-384 922.5,-390 916.5,-396 910.5,-396"/>
<text text-anchor="middle" x="856" y="-374.3" font-family="Times,serif" font-size="14.00" fill="#edddd4">я_так_чувствую</text>
</g>
<!-- node_1151969084&#45;&gt;node_267550859 -->
<g id="edge29" class="edge">
<title>node_1151969084&#45;&gt;node_267550859</title>
<path fill="none" stroke="black" d="M856,-431.7C856,-423.98 856,-414.71 856,-406.11"/>
<polygon fill="black" stroke="black" points="859.5,-406.1 856,-396.1 852.5,-406.1 859.5,-406.1"/>
</g>
<!-- node_858061356 -->
<g id="node32" class="node">
<title>node_858061356</title>
<path fill="#283d3b" stroke="black" d="M828,-324C828,-324 796,-324 796,-324 790,-324 784,-318 784,-312 784,-312 784,-300 784,-300 784,-294 790,-288 796,-288 796,-288 828,-288 828,-288 834,-288 840,-294 840,-300 840,-300 840,-312 840,-312 840,-318 834,-324 828,-324"/>
<text text-anchor="middle" x="812" y="-302.3" font-family="Times,serif" font-size="14.00" fill="#edddd4">ответ</text>
</g>
<!-- node_267550859&#45;&gt;node_858061356 -->
<g id="edge27" class="edge">
<title>node_267550859&#45;&gt;node_858061356</title>
<path fill="none" stroke="black" d="M845.12,-359.7C840.01,-351.56 833.8,-341.69 828.16,-332.7"/>
<polygon fill="black" stroke="black" points="831.04,-330.71 822.75,-324.1 825.11,-334.43 831.04,-330.71"/>
</g>
<!-- node_1613237277 -->
<g id="node33" class="node">
<title>node_1613237277</title>
<path fill="#c44536" stroke="black" d="M900,-324C900,-324 870,-324 870,-324 864,-324 858,-318 858,-312 858,-312 858,-300 858,-300 858,-294 864,-288 870,-288 870,-288 900,-288 900,-288 906,-288 912,-294 912,-300 912,-300 912,-312 912,-312 912,-318 906,-324 900,-324"/>
<text text-anchor="middle" x="885" y="-302.3" font-family="Times,serif" font-size="14.00" fill="#edddd4">*</text>
</g>
<!-- node_267550859&#45;&gt;node_1613237277 -->
<g id="edge28" class="edge">
<title>node_267550859&#45;&gt;node_1613237277</title>
<path fill="none" stroke="black" d="M863.17,-359.7C866.43,-351.81 870.37,-342.3 874,-333.55"/>
<polygon fill="black" stroke="black" points="877.32,-334.68 877.91,-324.1 870.85,-332 877.32,-334.68"/>
</g>
<!-- node_1167766685 -->
<g id="node34" class="node">
<title>node_1167766685</title>
<path fill="#283d3b" stroke="black" d="M857,-252C857,-252 827,-252 827,-252 821,-252 815,-246 815,-240 815,-240 815,-228 815,-228 815,-222 821,-216 827,-216 827,-216 857,-216 857,-216 863,-216 869,-222 869,-228 869,-228 869,-240 869,-240 869,-246 863,-252 857,-252"/>
<text text-anchor="middle" x="842" y="-230.3" font-family="Times,serif" font-size="14.00" fill="#edddd4">n</text>
</g>
<!-- node_1613237277&#45;&gt;node_1167766685 -->
<g id="edge25" class="edge">
<title>node_1613237277&#45;&gt;node_1167766685</title>
<path fill="none" stroke="black" d="M874.37,-287.7C869.37,-279.56 863.31,-269.69 857.79,-260.7"/>
<polygon fill="black" stroke="black" points="860.72,-258.79 852.51,-252.1 854.76,-262.46 860.72,-258.79"/>
</g>
<!-- node_624859964 -->
<g id="node35" class="node">
<title>node_624859964</title>
<path fill="#283d3b" stroke="black" d="M988.5,-252C988.5,-252 899.5,-252 899.5,-252 893.5,-252 887.5,-246 887.5,-240 887.5,-240 887.5,-228 887.5,-228 887.5,-222 893.5,-216 899.5,-216 899.5,-216 988.5,-216 988.5,-216 994.5,-216 1000.5,-222 1000.5,-228 1000.5,-228 1000.5,-240 1000.5,-240 1000.5,-246 994.5,-252 988.5,-252"/>
<text text-anchor="middle" x="944" y="-230.3" font-family="Times,serif" font-size="14.00" fill="#edddd4">ФАКТОРИАЛ</text>
</g>
<!-- node_1613237277&#45;&gt;node_624859964 -->
<g id="edge26" class="edge">
<title>node_1613237277&#45;&gt;node_624859964</title>
<path fill="none" stroke="black" d="M899.58,-287.7C906.66,-279.3 915.28,-269.07 923.05,-259.86"/>
<polygon fill="black" stroke="black" points="925.81,-262.01 929.58,-252.1 920.46,-257.49 925.81,-262.01"/>
</g>
<!-- node_1479589387 -->
<g id="node36" class="node">
<title>node_1479589387</title>
<path fill="#c45baa" stroke="black" d="M1020,-180C1020,-180 868,-180 868,-180 862,-180 856,-174 856,-168 856,-168 856,-156 856,-156 856,-150 862,-144 868,-144 868,-144 1020,-144 1020,-144 1026,-144 1032,-150 1032,-156 1032,-156 1032,-168 1032,-168 1032,-174 1026,-180 1020,-180"/>
<text text-anchor="middle" x="944" y="-158.3" font-family="Times,serif" font-size="14.00" fill="#edddd4">сомнительно_но_окей</text>
</g>
<!-- node_624859964&#45;&gt;node_1479589387 -->
<g id="edge24" class="edge">
<title>node_624859964&#45;&gt;node_1479589387</title>
<path fill="none" stroke="black" d="M944,-215.7C944,-207.98 944,-198.71 944,-190.11"/>
<polygon fill="black" stroke="black" points="947.5,-190.1 944,-180.1 940.5,-190.1 947.5,-190.1"/>
</g>
<!-- node_1245457259 -->
<g id="node37" class="node">
<title>node_1245457259</title>
<path fill="#283d3b" stroke="black" d="M959,-108C959,-108 929,-108 929,-108 923,-108 917,-102 917,-96 917,-96 917,-84 917,-84 917,-78 923,-72 929,-72 929,-72 959,-72 959,-72 965,-72 971,-78 971,-84 971,-84 971,-96 971,-96 971,-102 965,-108 959,-108"/>
<text text-anchor="middle" x="944" y="-86.3" font-family="Times,serif" font-size="14.00" fill="#edddd4">n__</text>
</g>
<!-- node_1479589387&#45;&gt;node_1245457259 -->
<g id="edge23" class="edge">
<title>node_1479589387&#45;&gt;node_1245457259</title>
<path fill="none" stroke="black" d="M944,-143.7C944,-135.98 944,-126.71 944,-118.11"/>
<polygon fill="black" stroke="black" points="947.5,-118.1 944,-108.1 940.5,-118.1 947.5,-118.1"/>
</g>
<!-- node_664132581 -->
<g id="node39" class="node">
<title>node_664132581</title>
<path fill="#283d3b" stroke="black" d="M1061,-468C1061,-468 1029,-468 1029,-468 1023,-468 1017,-462 1017,-456 1017,-456 1017,-444 1017,-444 1017,-438 1023,-432 1029,-432 1029,-432 1061,-432 1061,-432 1067,-432 1073,-438 1073,-444 1073,-444 1073,-456 1073,-456 1073,-462 1067,-468 1061,-468"/>
<text text-anchor="middle" x="1045" y="-446.3" font-family="Times,serif" font-size="14.00" fill="#edddd4">ответ</text>
</g>
<!-- node_872288649&#45;&gt;node_664132581 -->
<g id="edge32" class="edge">
<title>node_872288649&#45;&gt;node_664132581</title>
<path fill="none" stroke="black" d="M1045,-503.7C1045,-495.98 1045,-486.71 1045,-478.11"/>
<polygon fill="black" stroke="black" points="1048.5,-478.1 1045,-468.1 1041.5,-478.1 1048.5,-478.1"/>
</g>
<!-- node_636350446 -->
<g id="node41" class="node">
<title>node_636350446</title>
<path fill="#c45baa" stroke="black" d="M1296,-612C1296,-612 1144,-612 1144,-612 1138,-612 1132,-606 1132,-600 1132,-600 1132,-588 1132,-588 1132,-582 1138,-576 1144,-576 1144,-576 1296,-576 1296,-576 1302,-576 1308,-582 1308,-588 1308,-588 1308,-600 1308,-600 1308,-606 1302,-612 1296,-612"/>
<text text-anchor="middle" x="1220" y="-590.3" font-family="Times,serif" font-size="14.00" fill="#edddd4">сомнительно_но_окей</text>
</g>
<!-- node_2067847556&#45;&gt;node_636350446 -->
<g id="edge37" class="edge">
<title>node_2067847556&#45;&gt;node_636350446</title>
<path fill="none" stroke="black" d="M1320.46,-647.88C1302.75,-638.55 1280.65,-626.92 1261.68,-616.94"/>
<polygon fill="black" stroke="black" points="1263.14,-613.75 1252.66,-612.19 1259.88,-619.94 1263.14,-613.75"/>
</g>
<!-- node_1137427882 -->
<g id="node43" class="node">
<title>node_1137427882</title>
<path fill="#283d3b" stroke="black" d="M1427.5,-612C1427.5,-612 1338.5,-612 1338.5,-612 1332.5,-612 1326.5,-606 1326.5,-600 1326.5,-600 1326.5,-588 1326.5,-588 1326.5,-582 1332.5,-576 1338.5,-576 1338.5,-576 1427.5,-576 1427.5,-576 1433.5,-576 1439.5,-582 1439.5,-588 1439.5,-588 1439.5,-600 1439.5,-600 1439.5,-606 1433.5,-612 1427.5,-612"/>
<text text-anchor="middle" x="1383" y="-590.3" font-family="Times,serif" font-size="14.00" fill="#edddd4">ФАКТОРИАЛ</text>
</g>
<!-- node_2067847556&#45;&gt;node_1137427882 -->
<g id="edge38" class="edge">
<title>node_2067847556&#45;&gt;node_1137427882</title>
<path fill="none" stroke="black" d="M1360.42,-647.7C1363.79,-639.81 1367.87,-630.3 1371.62,-621.55"/>
<polygon fill="black" stroke="black" points="1374.95,-622.67 1375.67,-612.1 1368.51,-619.92 1374.95,-622.67"/>
</g>
<!-- node_1900773467 -->
<g id="node42" class="node">
<title>node_1900773467</title>
<path fill="#283d3b" stroke="black" d="M1231,-540C1231,-540 1201,-540 1201,-540 1195,-540 1189,-534 1189,-528 1189,-528 1189,-516 1189,-516 1189,-510 1195,-504 1201,-504 1201,-504 1231,-504 1231,-504 1237,-504 1243,-510 1243,-516 1243,-516 1243,-528 1243,-528 1243,-534 1237,-540 1231,-540"/>
<text text-anchor="middle" x="1216" y="-518.3" font-family="Times,serif" font-size="14.00" fill="#edddd4">n</text>
</g>
<!-- node_636350446&#45;&gt;node_1900773467 -->
<g id="edge36" class="edge">
<title>node_636350446&#45;&gt;node_1900773467</title>
<path fill="none" stroke="black" d="M1219.01,-575.7C1218.57,-567.98 1218.04,-558.71 1217.55,-550.11"/>
<polygon fill="black" stroke="black" points="1221.04,-549.89 1216.98,-540.1 1214.05,-550.29 1221.04,-549.89"/>
</g>
<!-- node_150668419 -->
<g id="node45" class="node">
<title>node_150668419</title>
<path fill="#7d387d" stroke="black" d="M1645,-756C1645,-756 1523,-756 1523,-756 1517,-756 1511,-750 1511,-744 1511,-744 1511,-732 1511,-732 1511,-726 1517,-720 1523,-720 1523,-720 1645,-720 1645,-720 1651,-720 1657,-726 1657,-732 1657,-732 1657,-744 1657,-744 1657,-750 1651,-756 1645,-756"/>
<text text-anchor="middle" x="1584" y="-734.3" font-family="Times,serif" font-size="14.00" fill="#edddd4">олег_не_торопись</text>
</g>
<!-- node_1673430442&#45;&gt;node_150668419 -->
<g id="edge69" class="edge">
<title>node_1673430442&#45;&gt;node_150668419</title>
<path fill="none" stroke="black" d="M1584,-791.7C1584,-783.98 1584,-774.71 1584,-766.11"/>
<polygon fill="black" stroke="black" points="1587.5,-766.1 1584,-756.1 1580.5,-766.1 1587.5,-766.1"/>
</g>
<!-- node_267866011 -->
<g id="node70" class="node">
<title>node_267866011</title>
<path fill="#c45baa" stroke="black" d="M1935,-756C1935,-756 1783,-756 1783,-756 1777,-756 1771,-750 1771,-744 1771,-744 1771,-732 1771,-732 1771,-726 1777,-720 1783,-720 1783,-720 1935,-720 1935,-720 1941,-720 1947,-726 1947,-732 1947,-732 1947,-744 1947,-744 1947,-750 1941,-756 1935,-756"/>
<text text-anchor="middle" x="1859" y="-734.3" font-family="Times,serif" font-size="14.00" fill="#edddd4">сомнительно_но_окей</text>
</g>
<!-- node_1673430442&#45;&gt;node_267866011 -->
<g id="edge70" class="edge">
<title>node_1673430442&#45;&gt;node_267866011</title>
<path fill="none" stroke="black" d="M1644.69,-793.55C1685.19,-783.24 1738.78,-769.6 1782.24,-758.54"/>
<polygon fill="black" stroke="black" points="1783.38,-761.86 1792.2,-756 1781.65,-755.08 1783.38,-761.86"/>
</g>
<!-- node_508294186 -->
<g id="node46" class="node">
<title>node_508294186</title>
<path fill="#c45baa" stroke="black" d="M1660,-684C1660,-684 1508,-684 1508,-684 1502,-684 1496,-678 1496,-672 1496,-672 1496,-660 1496,-660 1496,-654 1502,-648 1508,-648 1508,-648 1660,-648 1660,-648 1666,-648 1672,-654 1672,-660 1672,-660 1672,-672 1672,-672 1672,-678 1666,-684 1660,-684"/>
<text text-anchor="middle" x="1584" y="-662.3" font-family="Times,serif" font-size="14.00" fill="#edddd4">сомнительно_но_окей</text>
</g>
<!-- node_150668419&#45;&gt;node_508294186 -->
<g id="edge65" class="edge">
<title>node_150668419&#45;&gt;node_508294186</title>
<path fill="none" stroke="black" d="M1584,-719.7C1584,-711.98 1584,-702.71 1584,-694.11"/>
<polygon fill="black" stroke="black" points="1587.5,-694.1 1584,-684.1 1580.5,-694.1 1587.5,-694.1"/>
</g>
<!-- node_153883627 -->
<g id="node47" class="node">
<title>node_153883627</title>
<path fill="#c45baa" stroke="black" d="M1631,-612C1631,-612 1479,-612 1479,-612 1473,-612 1467,-606 1467,-600 1467,-600 1467,-588 1467,-588 1467,-582 1473,-576 1479,-576 1479,-576 1631,-576 1631,-576 1637,-576 1643,-582 1643,-588 1643,-588 1643,-600 1643,-600 1643,-606 1637,-612 1631,-612"/>
<text text-anchor="middle" x="1555" y="-590.3" font-family="Times,serif" font-size="14.00" fill="#edddd4">сомнительно_но_окей</text>
</g>
<!-- node_508294186&#45;&gt;node_153883627 -->
<g id="edge63" class="edge">
<title>node_508294186&#45;&gt;node_153883627</title>
<path fill="none" stroke="black" d="M1576.83,-647.7C1573.57,-639.81 1569.63,-630.3 1566,-621.55"/>
<polygon fill="black" stroke="black" points="1569.15,-620 1562.09,-612.1 1562.68,-622.68 1569.15,-620"/>
</g>
<!-- node_1483230994 -->
<g id="node68" class="node">
<title>node_1483230994</title>
<path fill="#000000" stroke="black" d="M1855,-612C1855,-612 1673,-612 1673,-612 1667,-612 1661,-606 1661,-600 1661,-600 1661,-588 1661,-588 1661,-582 1667,-576 1673,-576 1673,-576 1855,-576 1855,-576 1861,-576 1867,-582 1867,-588 1867,-588 1867,-600 1867,-600 1867,-606 1861,-612 1855,-612"/>
<text text-anchor="middle" x="1764" y="-590.3" font-family="Times,serif" font-size="14.00" fill="#edddd4">никто_никогда_не_вернет</text>
</g>
<!-- node_508294186&#45;&gt;node_1483230994 -->
<g id="edge64" class="edge">
<title>node_508294186&#45;&gt;node_1483230994</title>
<path fill="none" stroke="black" d="M1628.03,-647.88C1652.97,-638.18 1684.34,-625.98 1710.66,-615.74"/>
<polygon fill="black" stroke="black" points="1712.06,-618.95 1720.11,-612.07 1709.52,-612.43 1712.06,-618.95"/>
</g>
<!-- node_1602791982 -->
<g id="node48" class="node">
<title>node_1602791982</title>
<path fill="#c45baa" stroke="black" d="M1425,-540C1425,-540 1273,-540 1273,-540 1267,-540 1261,-534 1261,-528 1261,-528 1261,-516 1261,-516 1261,-510 1267,-504 1273,-504 1273,-504 1425,-504 1425,-504 1431,-504 1437,-510 1437,-516 1437,-516 1437,-528 1437,-528 1437,-534 1431,-540 1425,-540"/>
<text text-anchor="middle" x="1349" y="-518.3" font-family="Times,serif" font-size="14.00" fill="#edddd4">сомнительно_но_окей</text>
</g>
<!-- node_153883627&#45;&gt;node_1602791982 -->
<g id="edge60" class="edge">
<title>node_153883627&#45;&gt;node_1602791982</title>
<path fill="none" stroke="black" d="M1504.87,-575.97C1475.96,-566.14 1439.43,-553.73 1409,-543.39"/>
<polygon fill="black" stroke="black" points="1409.95,-540.01 1399.35,-540.11 1407.7,-546.64 1409.95,-540.01"/>
</g>
<!-- node_1217490697 -->
<g id="node62" class="node">
<title>node_1217490697</title>
<path fill="#ff8966" stroke="black" d="M1690.5,-540C1690.5,-540 1467.5,-540 1467.5,-540 1461.5,-540 1455.5,-534 1455.5,-528 1455.5,-528 1455.5,-516 1455.5,-516 1455.5,-510 1461.5,-504 1467.5,-504 1467.5,-504 1690.5,-504 1690.5,-504 1696.5,-504 1702.5,-510 1702.5,-516 1702.5,-516 1702.5,-528 1702.5,-528 1702.5,-534 1696.5,-540 1690.5,-540"/>
<text text-anchor="middle" x="1579" y="-518.3" font-family="Times,serif" font-size="14.00" fill="#edddd4">але_вам_удобно_разговаривать</text>
</g>
<!-- node_153883627&#45;&gt;node_1217490697 -->
<g id="edge61" class="edge">
<title>node_153883627&#45;&gt;node_1217490697</title>
<path fill="none" stroke="black" d="M1560.93,-575.7C1563.61,-567.9 1566.83,-558.51 1569.8,-549.83"/>
<polygon fill="black" stroke="black" points="1573.2,-550.7 1573.14,-540.1 1566.58,-548.43 1573.2,-550.7"/>
</g>
<!-- node_798658417 -->
<g id="node49" class="node">
<title>node_798658417</title>
<path fill="#c45baa" stroke="black" d="M1283,-468C1283,-468 1131,-468 1131,-468 1125,-468 1119,-462 1119,-456 1119,-456 1119,-444 1119,-444 1119,-438 1125,-432 1131,-432 1131,-432 1283,-432 1283,-432 1289,-432 1295,-438 1295,-444 1295,-444 1295,-456 1295,-456 1295,-462 1289,-468 1283,-468"/>
<text text-anchor="middle" x="1207" y="-446.3" font-family="Times,serif" font-size="14.00" fill="#edddd4">сомнительно_но_окей</text>
</g>
<!-- node_1602791982&#45;&gt;node_798658417 -->
<g id="edge53" class="edge">
<title>node_1602791982&#45;&gt;node_798658417</title>
<path fill="none" stroke="black" d="M1314.26,-503.88C1295.18,-494.47 1271.32,-482.71 1250.95,-472.67"/>
<polygon fill="black" stroke="black" points="1252.39,-469.47 1241.87,-468.19 1249.29,-475.75 1252.39,-469.47"/>
</g>
<!-- node_688215238 -->
<g id="node56" class="node">
<title>node_688215238</title>
<path fill="#7d387d" stroke="black" d="M1470,-468C1470,-468 1348,-468 1348,-468 1342,-468 1336,-462 1336,-456 1336,-456 1336,-444 1336,-444 1336,-438 1342,-432 1348,-432 1348,-432 1470,-432 1470,-432 1476,-432 1482,-438 1482,-444 1482,-444 1482,-456 1482,-456 1482,-462 1476,-468 1470,-468"/>
<text text-anchor="middle" x="1409" y="-446.3" font-family="Times,serif" font-size="14.00" fill="#edddd4">олег_не_торопись</text>
</g>
<!-- node_1602791982&#45;&gt;node_688215238 -->
<g id="edge54" class="edge">
<title>node_1602791982&#45;&gt;node_688215238</title>
<path fill="none" stroke="black" d="M1363.83,-503.7C1371.02,-495.3 1379.8,-485.07 1387.69,-475.86"/>
<polygon fill="black" stroke="black" points="1390.49,-477.97 1394.34,-468.1 1385.17,-473.42 1390.49,-477.97"/>
</g>
<!-- node_2138911704 -->
<g id="node50" class="node">
<title>node_2138911704</title>
<path fill="#ff8966" stroke="black" d="M1294.5,-396C1294.5,-396 1071.5,-396 1071.5,-396 1065.5,-396 1059.5,-390 1059.5,-384 1059.5,-384 1059.5,-372 1059.5,-372 1059.5,-366 1065.5,-360 1071.5,-360 1071.5,-360 1294.5,-360 1294.5,-360 1300.5,-360 1306.5,-366 1306.5,-372 1306.5,-372 1306.5,-384 1306.5,-384 1306.5,-390 1300.5,-396 1294.5,-396"/>
<text text-anchor="middle" x="1183" y="-374.3" font-family="Times,serif" font-size="14.00" fill="#edddd4">але_вам_удобно_разговаривать</text>
</g>
<!-- node_798658417&#45;&gt;node_2138911704 -->
<g id="edge47" class="edge">
<title>node_798658417&#45;&gt;node_2138911704</title>
<path fill="none" stroke="black" d="M1201.07,-431.7C1198.39,-423.9 1195.17,-414.51 1192.2,-405.83"/>
<polygon fill="black" stroke="black" points="1195.42,-404.43 1188.86,-396.1 1188.8,-406.7 1195.42,-404.43"/>
</g>
<!-- node_1543864702 -->
<g id="node51" class="node">
<title>node_1543864702</title>
<path fill="#c44536" stroke="black" d="M1237.5,-324C1237.5,-324 1128.5,-324 1128.5,-324 1122.5,-324 1116.5,-318 1116.5,-312 1116.5,-312 1116.5,-300 1116.5,-300 1116.5,-294 1122.5,-288 1128.5,-288 1128.5,-288 1237.5,-288 1237.5,-288 1243.5,-288 1249.5,-294 1249.5,-300 1249.5,-300 1249.5,-312 1249.5,-312 1249.5,-318 1243.5,-324 1237.5,-324"/>
<text text-anchor="middle" x="1183" y="-302.3" font-family="Times,serif" font-size="14.00" fill="#edddd4">я_так_чувствую</text>
</g>
<!-- node_2138911704&#45;&gt;node_1543864702 -->
<g id="edge46" class="edge">
<title>node_2138911704&#45;&gt;node_1543864702</title>
<path fill="none" stroke="black" d="M1183,-359.7C1183,-351.98 1183,-342.71 1183,-334.11"/>
<polygon fill="black" stroke="black" points="1186.5,-334.1 1183,-324.1 1179.5,-334.1 1186.5,-334.1"/>
</g>
<!-- node_2047661210 -->
<g id="node52" class="node">
<title>node_2047661210</title>
<path fill="#283d3b" stroke="black" d="M1162,-252C1162,-252 1132,-252 1132,-252 1126,-252 1120,-246 1120,-240 1120,-240 1120,-228 1120,-228 1120,-222 1126,-216 1132,-216 1132,-216 1162,-216 1162,-216 1168,-216 1174,-222 1174,-228 1174,-228 1174,-240 1174,-240 1174,-246 1168,-252 1162,-252"/>
<text text-anchor="middle" x="1147" y="-230.3" font-family="Times,serif" font-size="14.00" fill="#edddd4">N</text>
</g>
<!-- node_1543864702&#45;&gt;node_2047661210 -->
<g id="edge44" class="edge">
<title>node_1543864702&#45;&gt;node_2047661210</title>
<path fill="none" stroke="black" d="M1174.1,-287.7C1170,-279.73 1165.05,-270.1 1160.51,-261.26"/>
<polygon fill="black" stroke="black" points="1163.48,-259.4 1155.8,-252.1 1157.26,-262.6 1163.48,-259.4"/>
</g>
<!-- node_100255601 -->
<g id="node53" class="node">
<title>node_100255601</title>
<path fill="#c44536" stroke="black" d="M1234,-252C1234,-252 1204,-252 1204,-252 1198,-252 1192,-246 1192,-240 1192,-240 1192,-228 1192,-228 1192,-222 1198,-216 1204,-216 1204,-216 1234,-216 1234,-216 1240,-216 1246,-222 1246,-228 1246,-228 1246,-240 1246,-240 1246,-246 1240,-252 1234,-252"/>
<text text-anchor="middle" x="1219" y="-230.3" font-family="Times,serif" font-size="14.00" fill="#edddd4">+</text>
</g>
<!-- node_1543864702&#45;&gt;node_100255601 -->
<g id="edge45" class="edge">
<title>node_1543864702&#45;&gt;node_100255601</title>
<path fill="none" stroke="black" d="M1191.9,-287.7C1196,-279.73 1200.95,-270.1 1205.49,-261.26"/>
<polygon fill="black" stroke="black" points="1208.74,-262.6 1210.2,-252.1 1202.52,-259.4 1208.74,-262.6"/>
</g>
<!-- node_1293063639 -->
<g id="node54" class="node">
<title>node_1293063639</title>
<path fill="#197278" stroke="black" d="M1198,-180C1198,-180 1168,-180 1168,-180 1162,-180 1156,-174 1156,-168 1156,-168 1156,-156 1156,-156 1156,-150 1162,-144 1168,-144 1168,-144 1198,-144 1198,-144 1204,-144 1210,-150 1210,-156 1210,-156 1210,-168 1210,-168 1210,-174 1204,-180 1198,-180"/>
<text text-anchor="middle" x="1183" y="-158.3" font-family="Times,serif" font-size="14.00" fill="#edddd4">5</text>
</g>
<!-- node_100255601&#45;&gt;node_1293063639 -->
<g id="edge42" class="edge">
<title>node_100255601&#45;&gt;node_1293063639</title>
<path fill="none" stroke="black" d="M1210.1,-215.7C1206,-207.73 1201.05,-198.1 1196.51,-189.26"/>
<polygon fill="black" stroke="black" points="1199.48,-187.4 1191.8,-180.1 1193.26,-190.6 1199.48,-187.4"/>
</g>
<!-- node_386597732 -->
<g id="node55" class="node">
<title>node_386597732</title>
<path fill="#197278" stroke="black" d="M1270,-180C1270,-180 1240,-180 1240,-180 1234,-180 1228,-174 1228,-168 1228,-168 1228,-156 1228,-156 1228,-150 1234,-144 1240,-144 1240,-144 1270,-144 1270,-144 1276,-144 1282,-150 1282,-156 1282,-156 1282,-168 1282,-168 1282,-174 1276,-180 1270,-180"/>
<text text-anchor="middle" x="1255" y="-158.3" font-family="Times,serif" font-size="14.00" fill="#edddd4">1</text>
</g>
<!-- node_100255601&#45;&gt;node_386597732 -->
<g id="edge43" class="edge">
<title>node_100255601&#45;&gt;node_386597732</title>
<path fill="none" stroke="black" d="M1227.9,-215.7C1232,-207.73 1236.95,-198.1 1241.49,-189.26"/>
<polygon fill="black" stroke="black" points="1244.74,-190.6 1246.2,-180.1 1238.52,-187.4 1244.74,-190.6"/>
</g>
<!-- node_411656139 -->
<g id="node57" class="node">
<title>node_411656139</title>
<path fill="#c45baa" stroke="black" d="M1489,-396C1489,-396 1337,-396 1337,-396 1331,-396 1325,-390 1325,-384 1325,-384 1325,-372 1325,-372 1325,-366 1331,-360 1337,-360 1337,-360 1489,-360 1489,-360 1495,-360 1501,-366 1501,-372 1501,-372 1501,-384 1501,-384 1501,-390 1495,-396 1489,-396"/>
<text text-anchor="middle" x="1413" y="-374.3" font-family="Times,serif" font-size="14.00" fill="#edddd4">сомнительно_но_окей</text>
</g>
<!-- node_688215238&#45;&gt;node_411656139 -->
<g id="edge52" class="edge">
<title>node_688215238&#45;&gt;node_411656139</title>
<path fill="none" stroke="black" d="M1409.99,-431.7C1410.43,-423.98 1410.96,-414.71 1411.45,-406.11"/>
<polygon fill="black" stroke="black" points="1414.95,-406.29 1412.02,-396.1 1407.96,-405.89 1414.95,-406.29"/>
</g>
<!-- node_1801388625 -->
<g id="node58" class="node">
<title>node_1801388625</title>
<path fill="#ff8966" stroke="black" d="M1524.5,-324C1524.5,-324 1301.5,-324 1301.5,-324 1295.5,-324 1289.5,-318 1289.5,-312 1289.5,-312 1289.5,-300 1289.5,-300 1289.5,-294 1295.5,-288 1301.5,-288 1301.5,-288 1524.5,-288 1524.5,-288 1530.5,-288 1536.5,-294 1536.5,-300 1536.5,-300 1536.5,-312 1536.5,-312 1536.5,-318 1530.5,-324 1524.5,-324"/>
<text text-anchor="middle" x="1413" y="-302.3" font-family="Times,serif" font-size="14.00" fill="#edddd4">але_вам_удобно_разговаривать</text>
</g>
<!-- node_411656139&#45;&gt;node_1801388625 -->
<g id="edge51" class="edge">
<title>node_411656139&#45;&gt;node_1801388625</title>
<path fill="none" stroke="black" d="M1413,-359.7C1413,-351.98 1413,-342.71 1413,-334.11"/>
<polygon fill="black" stroke="black" points="1416.5,-334.1 1413,-324.1 1409.5,-334.1 1416.5,-334.1"/>
</g>
<!-- node_949939838 -->
<g id="node59" class="node">
<title>node_949939838</title>
<path fill="#c44536" stroke="black" d="M1467.5,-252C1467.5,-252 1358.5,-252 1358.5,-252 1352.5,-252 1346.5,-246 1346.5,-240 1346.5,-240 1346.5,-228 1346.5,-228 1346.5,-222 1352.5,-216 1358.5,-216 1358.5,-216 1467.5,-216 1467.5,-216 1473.5,-216 1479.5,-222 1479.5,-228 1479.5,-228 1479.5,-240 1479.5,-240 1479.5,-246 1473.5,-252 1467.5,-252"/>
<text text-anchor="middle" x="1413" y="-230.3" font-family="Times,serif" font-size="14.00" fill="#edddd4">я_так_чувствую</text>
</g>
<!-- node_1801388625&#45;&gt;node_949939838 -->
<g id="edge50" class="edge">
<title>node_1801388625&#45;&gt;node_949939838</title>
<path fill="none" stroke="black" d="M1413,-287.7C1413,-279.98 1413,-270.71 1413,-262.11"/>
<polygon fill="black" stroke="black" points="1416.5,-262.1 1413,-252.1 1409.5,-262.1 1416.5,-262.1"/>
</g>
<!-- node_1760872074 -->
<g id="node60" class="node">
<title>node_1760872074</title>
<path fill="#283d3b" stroke="black" d="M1392,-180C1392,-180 1362,-180 1362,-180 1356,-180 1350,-174 1350,-168 1350,-168 1350,-156 1350,-156 1350,-150 1356,-144 1362,-144 1362,-144 1392,-144 1392,-144 1398,-144 1404,-150 1404,-156 1404,-156 1404,-168 1404,-168 1404,-174 1398,-180 1392,-180"/>
<text text-anchor="middle" x="1377" y="-158.3" font-family="Times,serif" font-size="14.00" fill="#edddd4">ZV</text>
</g>
<!-- node_949939838&#45;&gt;node_1760872074 -->
<g id="edge48" class="edge">
<title>node_949939838&#45;&gt;node_1760872074</title>
<path fill="none" stroke="black" d="M1404.1,-215.7C1400,-207.73 1395.05,-198.1 1390.51,-189.26"/>
<polygon fill="black" stroke="black" points="1393.48,-187.4 1385.8,-180.1 1387.26,-190.6 1393.48,-187.4"/>
</g>
<!-- node_805874061 -->
<g id="node61" class="node">
<title>node_805874061</title>
<path fill="#197278" stroke="black" d="M1464,-180C1464,-180 1434,-180 1434,-180 1428,-180 1422,-174 1422,-168 1422,-168 1422,-156 1422,-156 1422,-150 1428,-144 1434,-144 1434,-144 1464,-144 1464,-144 1470,-144 1476,-150 1476,-156 1476,-156 1476,-168 1476,-168 1476,-174 1470,-180 1464,-180"/>
<text text-anchor="middle" x="1449" y="-158.3" font-family="Times,serif" font-size="14.00" fill="#edddd4">1488</text>
</g>
<!-- node_949939838&#45;&gt;node_805874061 -->
<g id="edge49" class="edge">
<title>node_949939838&#45;&gt;node_805874061</title>
<path fill="none" stroke="black" d="M1421.9,-215.7C1426,-207.73 1430.95,-198.1 1435.49,-189.26"/>
<polygon fill="black" stroke="black" points="1438.74,-190.6 1440.2,-180.1 1432.52,-187.4 1438.74,-190.6"/>
</g>
<!-- node_471449782 -->
<g id="node63" class="node">
<title>node_471449782</title>
<path fill="#c44536" stroke="black" d="M1633.5,-468C1633.5,-468 1524.5,-468 1524.5,-468 1518.5,-468 1512.5,-462 1512.5,-456 1512.5,-456 1512.5,-444 1512.5,-444 1512.5,-438 1518.5,-432 1524.5,-432 1524.5,-432 1633.5,-432 1633.5,-432 1639.5,-432 1645.5,-438 1645.5,-444 1645.5,-444 1645.5,-456 1645.5,-456 1645.5,-462 1639.5,-468 1633.5,-468"/>
<text text-anchor="middle" x="1579" y="-446.3" font-family="Times,serif" font-size="14.00" fill="#edddd4">я_так_чувствую</text>
</g>
<!-- node_1217490697&#45;&gt;node_471449782 -->
<g id="edge59" class="edge">
<title>node_1217490697&#45;&gt;node_471449782</title>
<path fill="none" stroke="black" d="M1579,-503.7C1579,-495.98 1579,-486.71 1579,-478.11"/>
<polygon fill="black" stroke="black" points="1582.5,-478.1 1579,-468.1 1575.5,-478.1 1582.5,-478.1"/>
</g>
<!-- node_271627690 -->
<g id="node64" class="node">
<title>node_271627690</title>
<path fill="#283d3b" stroke="black" d="M1611,-396C1611,-396 1539,-396 1539,-396 1533,-396 1527,-390 1527,-384 1527,-384 1527,-372 1527,-372 1527,-366 1533,-360 1539,-360 1539,-360 1611,-360 1611,-360 1617,-360 1623,-366 1623,-372 1623,-372 1623,-384 1623,-384 1623,-390 1617,-396 1611,-396"/>
<text text-anchor="middle" x="1575" y="-374.3" font-family="Times,serif" font-size="14.00" fill="#edddd4">факториал</text>
</g>
<!-- node_471449782&#45;&gt;node_271627690 -->
<g id="edge57" class="edge">
<title>node_471449782&#45;&gt;node_271627690</title>
<path fill="none" stroke="black" d="M1578.01,-431.7C1577.57,-423.98 1577.04,-414.71 1576.55,-406.11"/>
<polygon fill="black" stroke="black" points="1580.04,-405.89 1575.98,-396.1 1573.05,-406.29 1580.04,-405.89"/>
</g>
<!-- node_237773735 -->
<g id="node65" class="node">
<title>node_237773735</title>
<path fill="#283d3b" stroke="black" d="M1742.5,-396C1742.5,-396 1653.5,-396 1653.5,-396 1647.5,-396 1641.5,-390 1641.5,-384 1641.5,-384 1641.5,-372 1641.5,-372 1641.5,-366 1647.5,-360 1653.5,-360 1653.5,-360 1742.5,-360 1742.5,-360 1748.5,-360 1754.5,-366 1754.5,-372 1754.5,-372 1754.5,-384 1754.5,-384 1754.5,-390 1748.5,-396 1742.5,-396"/>
<text text-anchor="middle" x="1698" y="-374.3" font-family="Times,serif" font-size="14.00" fill="#edddd4">ФАКТОРИАЛ</text>
</g>
<!-- node_471449782&#45;&gt;node_237773735 -->
<g id="edge58" class="edge">
<title>node_471449782&#45;&gt;node_237773735</title>
<path fill="none" stroke="black" d="M1608.11,-431.88C1623.67,-422.72 1643.02,-411.34 1659.78,-401.48"/>
<polygon fill="black" stroke="black" points="1661.93,-404.28 1668.78,-396.19 1658.38,-398.24 1661.93,-404.28"/>
</g>
<!-- node_1096309746 -->
<g id="node66" class="node">
<title>node_1096309746</title>
<path fill="#c45baa" stroke="black" d="M1774,-324C1774,-324 1622,-324 1622,-324 1616,-324 1610,-318 1610,-312 1610,-312 1610,-300 1610,-300 1610,-294 1616,-288 1622,-288 1622,-288 1774,-288 1774,-288 1780,-288 1786,-294 1786,-300 1786,-300 1786,-312 1786,-312 1786,-318 1780,-324 1774,-324"/>
<text text-anchor="middle" x="1698" y="-302.3" font-family="Times,serif" font-size="14.00" fill="#edddd4">сомнительно_но_окей</text>
</g>
<!-- node_237773735&#45;&gt;node_1096309746 -->
<g id="edge56" class="edge">
<title>node_237773735&#45;&gt;node_1096309746</title>
<path fill="none" stroke="black" d="M1698,-359.7C1698,-351.98 1698,-342.71 1698,-334.11"/>
<polygon fill="black" stroke="black" points="1701.5,-334.1 1698,-324.1 1694.5,-334.1 1701.5,-334.1"/>
</g>
<!-- node_1751217078 -->
<g id="node67" class="node">
<title>node_1751217078</title>
<path fill="#283d3b" stroke="black" d="M1713,-252C1713,-252 1683,-252 1683,-252 1677,-252 1671,-246 1671,-240 1671,-240 1671,-228 1671,-228 1671,-222 1677,-216 1683,-216 1683,-216 1713,-216 1713,-216 1719,-216 1725,-222 1725,-228 1725,-228 1725,-240 1725,-240 1725,-246 1719,-252 1713,-252"/>
<text text-anchor="middle" x="1698" y="-230.3" font-family="Times,serif" font-size="14.00" fill="#edddd4">N</text>
</g>
<!-- node_1096309746&#45;&gt;node_1751217078 -->
<g id="edge55" class="edge">
<title>node_1096309746&#45;&gt;node_1751217078</title>
<path fill="none" stroke="black" d="M1698,-287.7C1698,-279.98 1698,-270.71 1698,-262.11"/>
<polygon fill="black" stroke="black" points="1701.5,-262.1 1698,-252.1 1694.5,-262.1 1701.5,-262.1"/>
</g>
<!-- node_1968598395 -->
<g id="node69" class="node">
<title>node_1968598395</title>
<path fill="#283d3b" stroke="black" d="M1805,-540C1805,-540 1733,-540 1733,-540 1727,-540 1721,-534 1721,-528 1721,-528 1721,-516 1721,-516 1721,-510 1727,-504 1733,-504 1733,-504 1805,-504 1805,-504 1811,-504 1817,-510 1817,-516 1817,-516 1817,-528 1817,-528 1817,-534 1811,-540 1805,-540"/>
<text text-anchor="middle" x="1769" y="-518.3" font-family="Times,serif" font-size="14.00" fill="#edddd4">факториал</text>
</g>
<!-- node_1483230994&#45;&gt;node_1968598395 -->
<g id="edge62" class="edge">
<title>node_1483230994&#45;&gt;node_1968598395</title>
<path fill="none" stroke="black" d="M1765.24,-575.7C1765.79,-567.98 1766.45,-558.71 1767.06,-550.11"/>
<polygon fill="black" stroke="black" points="1770.56,-550.33 1767.78,-540.1 1763.57,-549.83 1770.56,-550.33"/>
</g>
<!-- node_1403594902 -->
<g id="node71" class="node">
<title>node_1403594902</title>
<path fill="#c45baa" stroke="black" d="M1935,-684C1935,-684 1783,-684 1783,-684 1777,-684 1771,-678 1771,-672 1771,-672 1771,-660 1771,-660 1771,-654 1777,-648 1783,-648 1783,-648 1935,-648 1935,-648 1941,-648 1947,-654 1947,-660 1947,-660 1947,-672 1947,-672 1947,-678 1941,-684 1935,-684"/>
<text text-anchor="middle" x="1859" y="-662.3" font-family="Times,serif" font-size="14.00" fill="#edddd4">сомнительно_но_окей</text>
</g>
<!-- node_267866011&#45;&gt;node_1403594902 -->
<g id="edge67" class="edge">
<title>node_267866011&#45;&gt;node_1403594902</title>
<path fill="none" stroke="black" d="M1859,-719.7C1859,-711.98 1859,-702.71 1859,-694.11"/>
<polygon fill="black" stroke="black" points="1862.5,-694.1 1859,-684.1 1855.5,-694.1 1862.5,-694.1"/>
</g>
<!-- node_21155830 -->
<g id="node73" class="node">
<title>node_21155830</title>
<path fill="#283d3b" stroke="black" d="M2012.5,-684C2012.5,-684 1977.5,-684 1977.5,-684 1971.5,-684 1965.5,-678 1965.5,-672 1965.5,-672 1965.5,-660 1965.5,-660 1965.5,-654 1971.5,-648 1977.5,-648 1977.5,-648 2012.5,-648 2012.5,-648 2018.5,-648 2024.5,-654 2024.5,-660 2024.5,-660 2024.5,-672 2024.5,-672 2024.5,-678 2018.5,-684 2012.5,-684"/>
<text text-anchor="middle" x="1995" y="-662.3" font-family="Times,serif" font-size="14.00" fill="#edddd4">ЦАРЬ</text>
</g>
<!-- node_267866011&#45;&gt;node_21155830 -->
<g id="edge68" class="edge">
<title>node_267866011&#45;&gt;node_21155830</title>
<path fill="none" stroke="black" d="M1892.27,-719.88C1911.64,-709.91 1936.14,-697.29 1956.36,-686.89"/>
<polygon fill="black" stroke="black" points="1958.02,-689.97 1965.31,-682.28 1954.82,-683.74 1958.02,-689.97"/>
</g>
<!-- node_457465193 -->
<g id="node72" class="node">
<title>node_457465193</title>
<path fill="#283d3b" stroke="black" d="M1927,-612C1927,-612 1897,-612 1897,-612 1891,-612 1885,-606 1885,-600 1885,-600 1885,-588 1885,-588 1885,-582 1891,-576 1897,-576 1897,-576 1927,-576 1927,-576 1933,-576 1939,-582 1939,-588 1939,-588 1939,-600 1939,-600 1939,-606 1933,-612 1927,-612"/>
<text text-anchor="middle" x="1912" y="-590.3" font-family="Times,serif" font-size="14.00" fill="#edddd4">x</text>
</g>
<!-- node_1403594902&#45;&gt;node_457465193 -->
<g id="edge66" class="edge">
<title>node_1403594902&#45;&gt;node_457465193</title>
<path fill="none" stroke="black" d="M1872.1,-647.7C1878.39,-639.39 1886.05,-629.28 1892.96,-620.14"/>
<polygon fill="black" stroke="black" points="1895.8,-622.19 1899.05,-612.1 1890.22,-617.96 1895.8,-622.19"/>
</g>
</g>
</svg>
